# Made in Blockbench 4.12.6
mtllib model.mtl

o cube
v 8.125 2.625 0.6875
v 8.125 2.625 -0.6875
v 8.125 0.125 0.6875
v 8.125 0.125 -0.6875
v 6.375 2.625 -0.6875
v 6.375 2.625 0.6875
v 6.375 0.125 -0.6875
v 6.375 0.125 0.6875
vt 0.61 0.93125
vt 0.638 0.93125
vt 0.638 0.80625
vt 0.61 0.80625
vt 0.638 0.93125
vt 0.61 0.93125
vt 0.61 0.80625
vt 0.638 0.80625
vt 0.638 0.93125
vt 0.61 0.93125
vt 0.61 1
vt 0.638 1
vt 0.638 0.7375
vt 0.61 0.7375
vt 0.61 0.80625
vt 0.638 0.80625
vn 0 0 -1
vn 0 0 1
vn 0 1 0
vn 0 -1 0
usemtl m_de3730fb-0b02-0b58-47fc-9a90a06323b8
f 4/4/1 7/3/1 5/2/1 2/1/1
f 8/8/2 3/7/2 1/6/2 6/5/2
f 6/12/3 1/11/3 2/10/3 5/9/3
f 7/16/4 4/15/4 3/14/4 8/13/4
o cube
v 8.25 2 0.8125
v 8.25 2 -0.8125
v 8.25 0 0.8125
v 8.25 0 -0.8125
v 7.75 2 -0.8125
v 7.75 2 0.8125
v 7.75 0 -0.8125
v 7.75 0 0.8125
vt 0 0.16874999999999996
vt 0.001 0.16874999999999996
vt 0.001 0.16562500000000002
vt 0 0.16562500000000002
vt 0 0.16874999999999996
vt 0.001 0.16874999999999996
vt 0.001 0.16562500000000002
vt 0 0.16562500000000002
vn -1 0 0
vn 0 1 0
usemtl m_de3730fb-0b02-0b58-47fc-9a90a06323b8
f 15/20/5 16/19/5 14/18/5 13/17/5
f 14/24/6 9/23/6 10/22/6 13/21/6
o cube
v 6.75 2 0.8125
v 6.75 2 -0.8125
v 6.75 0 0.8125
v 6.75 0 -0.8125
v 6.25 2 -0.8125
v 6.25 2 0.8125
v 6.25 0 -0.8125
v 6.25 0 0.8125
vt 0 0.16874999999999996
vt 0.001 0.16874999999999996
vt 0.001 0.16562500000000002
vt 0 0.16562500000000002
vt 0 0.16874999999999996
vt 0.001 0.16874999999999996
vt 0.001 0.16562500000000002
vt 0 0.16562500000000002
vn 1 0 0
vn 0 1 0
usemtl m_de3730fb-0b02-0b58-47fc-9a90a06323b8
f 19/28/7 20/27/7 18/26/7 17/25/7
f 22/32/8 17/31/8 18/30/8 21/29/8
o cube
v 6.25 0 -0.8125
v 6.25 0 0.8125
v 6.25 2.75 -0.8125
v 6.25 2.75 0.8125
v 8.25 0 0.8125
v 8.25 0 -0.8125
v 8.25 2.75 0.8125
v 8.25 2.75 -0.8125
vt 0.002 0.09999999999999998
vt 0.006 0.09999999999999998
vt 0.006 0.13437500000000002
vt 0.002 0.13437500000000002
vt 0.002 0.09999999999999998
vt 0.003 0.09999999999999998
vt 0.003 0.13437500000000002
vt 0.002 0.13437500000000002
vt 0.002 0.09999999999999998
vt 0.006 0.09999999999999998
vt 0.006 0.13437500000000002
vt 0.002 0.13437500000000002
vt 0.002 0.09999999999999998
vt 0.003 0.09999999999999998
vt 0.003 0.13437500000000002
vt 0.002 0.13437500000000002
vt 0.002 0.09999999999999998
vt 0.006 0.09999999999999998
vt 0.006 0.10312500000000002
vt 0.002 0.10312500000000002
vt 0 0.16874999999999996
vt 0.001 0.16874999999999996
vt 0.001 0.16562500000000002
vt 0 0.16562500000000002
vn 0 0 -1
vn 1 0 0
vn 0 0 1
vn -1 0 0
vn 0 1 0
vn 0 -1 0
usemtl m_de3730fb-0b02-0b58-47fc-9a90a06323b8
f 28/36/9 31/35/9 29/34/9 26/33/9
f 27/40/10 28/39/10 26/38/10 25/37/10
f 32/44/11 27/43/11 25/42/11 30/41/11
f 31/48/12 32/47/12 30/46/12 29/45/12
f 30/52/13 25/51/13 26/50/13 29/49/13
f 31/56/14 28/55/14 27/54/14 32/53/14
o cube
v 6.125 2.625 0.6875
v 6.125 2.625 -0.6875
v 6.125 0.125 0.6875
v 6.125 0.125 -0.6875
v 4.375 2.625 -0.6875
v 4.375 2.625 0.6875
v 4.375 0.125 -0.6875
v 4.375 0.125 0.6875
vt 0.24 0.93125
vt 0.268 0.93125
vt 0.268 0.80625
vt 0.24 0.80625
vt 0.268 0.93125
vt 0.24 0.93125
vt 0.24 0.80625
vt 0.268 0.80625
vt 0.268 0.93125
vt 0.24 0.93125
vt 0.24 1
vt 0.268 1
vt 0.268 0.7375
vt 0.24 0.7375
vt 0.24 0.80625
vt 0.268 0.80625
vn 0 0 -1
vn 0 0 1
vn 0 1 0
vn 0 -1 0
usemtl m_de3730fb-0b02-0b58-47fc-9a90a06323b8
f 36/60/15 39/59/15 37/58/15 34/57/15
f 40/64/16 35/63/16 33/62/16 38/61/16
f 38/68/17 33/67/17 34/66/17 37/65/17
f 39/72/18 36/71/18 35/70/18 40/69/18
o cube
v 4.25 0 -0.8125
v 4.25 0 0.8125
v 4.25 2.75 -0.8125
v 4.25 2.75 0.8125
v 6.25 0 0.8125
v 6.25 0 -0.8125
v 6.25 2.75 0.8125
v 6.25 2.75 -0.8125
vt 0 0.16874999999999996
vt 0.001 0.16874999999999996
vt 0.001 0.16562500000000002
vt 0 0.16562500000000002
vt 0 0.16874999999999996
vt 0.001 0.16874999999999996
vt 0.001 0.16562500000000002
vt 0 0.16562500000000002
vt 0 0.16874999999999996
vt 0.001 0.16874999999999996
vt 0.001 0.16562500000000002
vt 0 0.16562500000000002
vt 0 0.16874999999999996
vt 0.001 0.16874999999999996
vt 0.001 0.16562500000000002
vt 0 0.16562500000000002
vt 0 0.16874999999999996
vt 0.001 0.16874999999999996
vt 0.001 0.16562500000000002
vt 0 0.16562500000000002
vt 0 0.16874999999999996
vt 0.001 0.16874999999999996
vt 0.001 0.16562500000000002
vt 0 0.16562500000000002
vn 0 0 -1
vn 1 0 0
vn 0 0 1
vn -1 0 0
vn 0 1 0
vn 0 -1 0
usemtl m_de3730fb-0b02-0b58-47fc-9a90a06323b8
f 44/76/19 47/75/19 45/74/19 42/73/19
f 43/80/20 44/79/20 42/78/20 41/77/20
f 48/84/21 43/83/21 41/82/21 46/81/21
f 47/88/22 48/87/22 46/86/22 45/85/22
f 46/92/23 41/91/23 42/90/23 45/89/23
f 47/96/24 44/95/24 43/94/24 48/93/24
o cube
v 4.125 2.625 0.6875
v 4.125 2.625 -0.6875
v 4.125 0.125 0.6875
v 4.125 0.125 -0.6875
v 2.375 2.625 -0.6875
v 2.375 2.625 0.6875
v 2.375 0.125 -0.6875
v 2.375 0.125 0.6875
vt 0.15 0.93125
vt 0.178 0.93125
vt 0.178 0.80625
vt 0.15 0.80625
vt 0.178 0.93125
vt 0.15 0.93125
vt 0.15 0.80625
vt 0.178 0.80625
vt 0.178 0.93125
vt 0.15 0.93125
vt 0.15 1
vt 0.178 1
vt 0.178 0.7375
vt 0.15 0.7375
vt 0.15 0.80625
vt 0.178 0.80625
vn 0 0 -1
vn 0 0 1
vn 0 1 0
vn 0 -1 0
usemtl m_de3730fb-0b02-0b58-47fc-9a90a06323b8
f 52/100/25 55/99/25 53/98/25 50/97/25
f 56/104/26 51/103/26 49/102/26 54/101/26
f 54/108/27 49/107/27 50/106/27 53/105/27
f 55/112/28 52/111/28 51/110/28 56/109/28
o cube
v 3.25 2 0.8125
v 3.25 2 -0.8125
v 3.25 1.75 0.8125
v 3.25 1.75 -0.8125
v 2.25 2 -0.8125
v 2.25 2 0.8125
v 2.25 1.75 -0.8125
v 2.25 1.75 0.8125
vt 0 0.16874999999999996
vt 0.001 0.16874999999999996
vt 0.001 0.16562500000000002
vt 0 0.16562500000000002
vt 0 0.16874999999999996
vt 0.001 0.16874999999999996
vt 0.001 0.16562500000000002
vt 0 0.16562500000000002
vt 0 0.16874999999999996
vt 0.001 0.16874999999999996
vt 0.001 0.16562500000000002
vt 0 0.16562500000000002
vn 1 0 0
vn 0 1 0
vn 0 -1 0
usemtl m_de3730fb-0b02-0b58-47fc-9a90a06323b8
f 59/116/29 60/115/29 58/114/29 57/113/29
f 62/120/30 57/119/30 58/118/30 61/117/30
f 63/124/31 60/123/31 59/122/31 64/121/31
o cube
v 3.25 1 0.8125
v 3.25 1 -0.8125
v 3.25 0.75 0.8125
v 3.25 0.75 -0.8125
v 2.25 1 -0.8125
v 2.25 1 0.8125
v 2.25 0.75 -0.8125
v 2.25 0.75 0.8125
vt 0 0.16874999999999996
vt 0.001 0.16874999999999996
vt 0.001 0.16562500000000002
vt 0 0.16562500000000002
vt 0 0.16874999999999996
vt 0.001 0.16874999999999996
vt 0.001 0.16562500000000002
vt 0 0.16562500000000002
vt 0 0.16874999999999996
vt 0.001 0.16874999999999996
vt 0.001 0.16562500000000002
vt 0 0.16562500000000002
vn 1 0 0
vn 0 1 0
vn 0 -1 0
usemtl m_de3730fb-0b02-0b58-47fc-9a90a06323b8
f 67/128/32 68/127/32 66/126/32 65/125/32
f 70/132/33 65/131/33 66/130/33 69/129/33
f 71/136/34 68/135/34 67/134/34 72/133/34
o cube
v 2.25 0 -0.8125
v 2.25 0 0.8125
v 2.25 2.75 -0.8125
v 2.25 2.75 0.8125
v 4.25 0 0.8125
v 4.25 0 -0.8125
v 4.25 2.75 0.8125
v 4.25 2.75 -0.8125
vt 0.003 0.16874999999999996
vt 0.005 0.16874999999999996
vt 0.005 0.13437500000000002
vt 0.003 0.13437500000000002
vt 0.004 0.16874999999999996
vt 0.003 0.16874999999999996
vt 0.003 0.13437500000000002
vt 0.004 0.13437500000000002
vt 0.005 0.16874999999999996
vt 0.003 0.16874999999999996
vt 0.003 0.13437500000000002
vt 0.005 0.13437500000000002
vt 0 0.16874999999999996
vt 0.001 0.16874999999999996
vt 0.001 0.16562500000000002
vt 0 0.16562500000000002
vt 0 0.16874999999999996
vt 0.001 0.16874999999999996
vt 0.001 0.16562500000000002
vt 0 0.16562500000000002
vt 0 0.16874999999999996
vt 0.001 0.16874999999999996
vt 0.001 0.16562500000000002
vt 0 0.16562500000000002
vn 0 0 -1
vn 1 0 0
vn 0 0 1
vn -1 0 0
vn 0 1 0
vn 0 -1 0
usemtl m_de3730fb-0b02-0b58-47fc-9a90a06323b8
f 76/140/35 79/139/35 77/138/35 74/137/35
f 75/144/36 76/143/36 74/142/36 73/141/36
f 80/148/37 75/147/37 73/146/37 78/145/37
f 79/152/38 80/151/38 78/150/38 77/149/38
f 78/156/39 73/155/39 74/154/39 77/153/39
f 79/160/40 76/159/40 75/158/40 80/157/40
o cube
v 1.625 2.625 0.6875
v 1.625 2.625 -0.6875
v 1.625 0.125 0.6875
v 1.625 0.125 -0.6875
v -0.125 2.625 -0.6875
v -0.125 2.625 0.6875
v -0.125 0.125 -0.6875
v -0.125 0.125 0.6875
vt 0.58 0.93125
vt 0.608 0.93125
vt 0.608 0.80625
vt 0.58 0.80625
vt 0.608 0.93125
vt 0.58 0.93125
vt 0.58 0.80625
vt 0.608 0.80625
vt 0.608 0.93125
vt 0.58 0.93125
vt 0.58 1
vt 0.608 1
vt 0.608 0.7375
vt 0.58 0.7375
vt 0.58 0.80625
vt 0.608 0.80625
vn 0 0 -1
vn 0 0 1
vn 0 1 0
vn 0 -1 0
usemtl m_de3730fb-0b02-0b58-47fc-9a90a06323b8
f 84/164/41 87/163/41 85/162/41 82/161/41
f 88/168/42 83/167/42 81/166/42 86/165/42
f 86/172/43 81/171/43 82/170/43 85/169/43
f 87/176/44 84/175/44 83/174/44 88/173/44
o cube
v 1.75 1 0.8125
v 1.75 1 -0.8125
v 1.75 0.75 0.8125
v 1.75 0.75 -0.8125
v 0.75 1 -0.8125
v 0.75 1 0.8125
v 0.75 0.75 -0.8125
v 0.75 0.75 0.8125
vt 0 0.16874999999999996
vt 0.001 0.16874999999999996
vt 0.001 0.16562500000000002
vt 0 0.16562500000000002
vt 0 0.16874999999999996
vt 0.001 0.16874999999999996
vt 0.001 0.16562500000000002
vt 0 0.16562500000000002
vt 0 0.16874999999999996
vt 0.001 0.16874999999999996
vt 0.001 0.16562500000000002
vt 0 0.16562500000000002
vn -1 0 0
vn 0 1 0
vn 0 -1 0
usemtl m_de3730fb-0b02-0b58-47fc-9a90a06323b8
f 95/180/45 96/179/45 94/178/45 93/177/45
f 94/184/46 89/183/46 90/182/46 93/181/46
f 95/188/47 92/187/47 91/186/47 96/185/47
o cube
v 0.75 2 0.8125
v 0.75 2 -0.8125
v 0.75 1.75 0.8125
v 0.75 1.75 -0.8125
v -0.25 2 -0.8125
v -0.25 2 0.8125
v -0.25 1.75 -0.8125
v -0.25 1.75 0.8125
vt 0 0.16874999999999996
vt 0.001 0.16874999999999996
vt 0.001 0.16562500000000002
vt 0 0.16562500000000002
vt 0 0.16874999999999996
vt 0.001 0.16874999999999996
vt 0.001 0.16562500000000002
vt 0 0.16562500000000002
vt 0 0.16874999999999996
vt 0.001 0.16874999999999996
vt 0.001 0.16562500000000002
vt 0 0.16562500000000002
vn 1 0 0
vn 0 1 0
vn 0 -1 0
usemtl m_de3730fb-0b02-0b58-47fc-9a90a06323b8
f 99/192/48 100/191/48 98/190/48 97/189/48
f 102/196/49 97/195/49 98/194/49 101/193/49
f 103/200/50 100/199/50 99/198/50 104/197/50
o cube
v -0.25 0 -0.8125
v -0.25 0 0.8125
v -0.25 2.75 -0.8125
v -0.25 2.75 0.8125
v 1.75 0 0.8125
v 1.75 0 -0.8125
v 1.75 2.75 0.8125
v 1.75 2.75 -0.8125
vt 0 0.13437500000000002
vt 0.002 0.13437500000000002
vt 0.002 0.09999999999999998
vt 0 0.09999999999999998
vt 0 0.13437500000000002
vt 0.001 0.13437500000000002
vt 0.001 0.09999999999999998
vt 0 0.09999999999999998
vt 0.002 0.13437500000000002
vt 0 0.13437500000000002
vt 0 0.09999999999999998
vt 0.002 0.09999999999999998
vt 0.001 0.13437500000000002
vt 0.002 0.13437500000000002
vt 0.002 0.09999999999999998
vt 0.001 0.09999999999999998
vt 0 0.16874999999999996
vt 0.001 0.16874999999999996
vt 0.001 0.16562500000000002
vt 0 0.16562500000000002
vt 0 0.16874999999999996
vt 0.001 0.16874999999999996
vt 0.001 0.16562500000000002
vt 0 0.16562500000000002
vn 0 0 -1
vn 1 0 0
vn 0 0 1
vn -1 0 0
vn 0 1 0
vn 0 -1 0
usemtl m_de3730fb-0b02-0b58-47fc-9a90a06323b8
f 108/204/51 111/203/51 109/202/51 106/201/51
f 107/208/52 108/207/52 106/206/52 105/205/52
f 112/212/53 107/211/53 105/210/53 110/209/53
f 111/216/54 112/215/54 110/214/54 109/213/54
f 110/220/55 105/219/55 106/218/55 109/217/55
f 111/224/56 108/223/56 107/222/56 112/221/56
o cube
v -0.375 2.625 0.6875
v -0.375 2.625 -0.6875
v -0.375 0.125 0.6875
v -0.375 0.125 -0.6875
v -2.125 2.625 -0.6875
v -2.125 2.625 0.6875
v -2.125 0.125 -0.6875
v -2.125 0.125 0.6875
vt 0.61 0.93125
vt 0.638 0.93125
vt 0.638 0.80625
vt 0.61 0.80625
vt 0.638 0.93125
vt 0.61 0.93125
vt 0.61 0.80625
vt 0.638 0.80625
vt 0.638 0.93125
vt 0.61 0.93125
vt 0.61 1
vt 0.638 1
vt 0.638 0.7375
vt 0.61 0.7375
vt 0.61 0.80625
vt 0.638 0.80625
vn 0 0 -1
vn 0 0 1
vn 0 1 0
vn 0 -1 0
usemtl m_de3730fb-0b02-0b58-47fc-9a90a06323b8
f 116/228/57 119/227/57 117/226/57 114/225/57
f 120/232/58 115/231/58 113/230/58 118/229/58
f 118/236/59 113/235/59 114/234/59 117/233/59
f 119/240/60 116/239/60 115/238/60 120/237/60
o cube
v -0.25 2 0.8125
v -0.25 2 -0.8125
v -0.25 0 0.8125
v -0.25 0 -0.8125
v -0.75 2 -0.8125
v -0.75 2 0.8125
v -0.75 0 -0.8125
v -0.75 0 0.8125
vt 0 0.16874999999999996
vt 0.001 0.16874999999999996
vt 0.001 0.16562500000000002
vt 0 0.16562500000000002
vt 0 0.16874999999999996
vt 0.001 0.16874999999999996
vt 0.001 0.16562500000000002
vt 0 0.16562500000000002
vn -1 0 0
vn 0 1 0
usemtl m_de3730fb-0b02-0b58-47fc-9a90a06323b8
f 127/244/61 128/243/61 126/242/61 125/241/61
f 126/248/62 121/247/62 122/246/62 125/245/62
o cube
v -1.75 2 0.8125
v -1.75 2 -0.8125
v -1.75 0 0.8125
v -1.75 0 -0.8125
v -2.25 2 -0.8125
v -2.25 2 0.8125
v -2.25 0 -0.8125
v -2.25 0 0.8125
vt 0 0.16874999999999996
vt 0.001 0.16874999999999996
vt 0.001 0.16562500000000002
vt 0 0.16562500000000002
vt 0 0.16874999999999996
vt 0.001 0.16874999999999996
vt 0.001 0.16562500000000002
vt 0 0.16562500000000002
vn 1 0 0
vn 0 1 0
usemtl m_de3730fb-0b02-0b58-47fc-9a90a06323b8
f 131/252/63 132/251/63 130/250/63 129/249/63
f 134/256/64 129/255/64 130/254/64 133/253/64
o cube
v -2.25 0 -0.8125
v -2.25 0 0.8125
v -2.25 2.75 -0.8125
v -2.25 2.75 0.8125
v -0.25 0 0.8125
v -0.25 0 -0.8125
v -0.25 2.75 0.8125
v -0.25 2.75 -0.8125
vt 0.002 0.09999999999999998
vt 0.006 0.09999999999999998
vt 0.006 0.13437500000000002
vt 0.002 0.13437500000000002
vt 0.002 0.09999999999999998
vt 0.003 0.09999999999999998
vt 0.003 0.13437500000000002
vt 0.002 0.13437500000000002
vt 0.002 0.09999999999999998
vt 0.006 0.09999999999999998
vt 0.006 0.13437500000000002
vt 0.002 0.13437500000000002
vt 0.002 0.09999999999999998
vt 0.003 0.09999999999999998
vt 0.003 0.13437500000000002
vt 0.002 0.13437500000000002
vt 0.002 0.09999999999999998
vt 0.006 0.09999999999999998
vt 0.006 0.10312500000000002
vt 0.002 0.10312500000000002
vt 0 0.16874999999999996
vt 0.001 0.16874999999999996
vt 0.001 0.16562500000000002
vt 0 0.16562500000000002
vn 0 0 -1
vn 1 0 0
vn 0 0 1
vn -1 0 0
vn 0 1 0
vn 0 -1 0
usemtl m_de3730fb-0b02-0b58-47fc-9a90a06323b8
f 140/260/65 143/259/65 141/258/65 138/257/65
f 139/264/66 140/263/66 138/262/66 137/261/66
f 144/268/67 139/267/67 137/266/67 142/265/67
f 143/272/68 144/271/68 142/270/68 141/269/68
f 142/276/69 137/275/69 138/274/69 141/273/69
f 143/280/70 140/279/70 139/278/70 144/277/70
o cube
v -2.375 2.625 0.6875
v -2.375 2.625 -0.6875
v -2.375 0.125 0.6875
v -2.375 0.125 -0.6875
v -4.125 2.625 -0.6875
v -4.125 2.625 0.6875
v -4.125 0.125 -0.6875
v -4.125 0.125 0.6875
vt 0.03 0.93125
vt 0.058 0.93125
vt 0.058 0.80625
vt 0.03 0.80625
vt 0.058 0.93125
vt 0.03 0.93125
vt 0.03 0.80625
vt 0.058 0.80625
vt 0.058 0.93125
vt 0.03 0.93125
vt 0.03 1
vt 0.058 1
vt 0.058 0.7375
vt 0.03 0.7375
vt 0.03 0.80625
vt 0.058 0.80625
vn 0 0 -1
vn 0 0 1
vn 0 1 0
vn 0 -1 0
usemtl m_de3730fb-0b02-0b58-47fc-9a90a06323b8
f 148/284/71 151/283/71 149/282/71 146/281/71
f 152/288/72 147/287/72 145/286/72 150/285/72
f 150/292/73 145/291/73 146/290/73 149/289/73
f 151/296/74 148/295/74 147/294/74 152/293/74
o cube
v -4.25 0 -0.8125
v -4.25 0 0.8125
v -4.25 2.75 -0.8125
v -4.25 2.75 0.8125
v -2.25 0 0.8125
v -2.25 0 -0.8125
v -2.25 2.75 0.8125
v -2.25 2.75 -0.8125
vt 0 0.16874999999999996
vt 0.001 0.16874999999999996
vt 0.001 0.16562500000000002
vt 0 0.16562500000000002
vt 0 0.16874999999999996
vt 0.001 0.16874999999999996
vt 0.001 0.16562500000000002
vt 0 0.16562500000000002
vt 0 0.16874999999999996
vt 0.001 0.16874999999999996
vt 0.001 0.16562500000000002
vt 0 0.16562500000000002
vt 0 0.16874999999999996
vt 0.001 0.16874999999999996
vt 0.001 0.16562500000000002
vt 0 0.16562500000000002
vt 0 0.16874999999999996
vt 0.001 0.16874999999999996
vt 0.001 0.16562500000000002
vt 0 0.16562500000000002
vt 0 0.16874999999999996
vt 0.001 0.16874999999999996
vt 0.001 0.16562500000000002
vt 0 0.16562500000000002
vn 0 0 -1
vn 1 0 0
vn 0 0 1
vn -1 0 0
vn 0 1 0
vn 0 -1 0
usemtl m_de3730fb-0b02-0b58-47fc-9a90a06323b8
f 156/300/75 159/299/75 157/298/75 154/297/75
f 155/304/76 156/303/76 154/302/76 153/301/76
f 160/308/77 155/307/77 153/306/77 158/305/77
f 159/312/78 160/311/78 158/310/78 157/309/78
f 158/316/79 153/315/79 154/314/79 157/313/79
f 159/320/80 156/319/80 155/318/80 160/317/80
o cube
v -4.375 2.625 0.6875
v -4.375 2.625 -0.6875
v -4.375 0.125 0.6875
v -4.375 0.125 -0.6875
v -6.125 2.625 -0.6875
v -6.125 2.625 0.6875
v -6.125 0.125 -0.6875
v -6.125 0.125 0.6875
vt 0.18 0.93125
vt 0.208 0.93125
vt 0.208 0.80625
vt 0.18 0.80625
vt 0.208 0.93125
vt 0.18 0.93125
vt 0.18 0.80625
vt 0.208 0.80625
vt 0.208 0.93125
vt 0.18 0.93125
vt 0.18 1
vt 0.208 1
vt 0.208 0.7375
vt 0.18 0.7375
vt 0.18 0.80625
vt 0.208 0.80625
vn 0 0 -1
vn 0 0 1
vn 0 1 0
vn 0 -1 0
usemtl m_de3730fb-0b02-0b58-47fc-9a90a06323b8
f 164/324/81 167/323/81 165/322/81 162/321/81
f 168/328/82 163/327/82 161/326/82 166/325/82
f 166/332/83 161/331/83 162/330/83 165/329/83
f 167/336/84 164/335/84 163/334/84 168/333/84
o cube
v -5.25 2 0.8125
v -5.25 2 -0.8125
v -5.25 1.75 0.8125
v -5.25 1.75 -0.8125
v -6.25 2 -0.8125
v -6.25 2 0.8125
v -6.25 1.75 -0.8125
v -6.25 1.75 0.8125
vt 0 0.16874999999999996
vt 0.001 0.16874999999999996
vt 0.001 0.16562500000000002
vt 0 0.16562500000000002
vt 0 0.16874999999999996
vt 0.001 0.16874999999999996
vt 0.001 0.16562500000000002
vt 0 0.16562500000000002
vt 0 0.16874999999999996
vt 0.001 0.16874999999999996
vt 0.001 0.16562500000000002
vt 0 0.16562500000000002
vn 1 0 0
vn 0 1 0
vn 0 -1 0
usemtl m_de3730fb-0b02-0b58-47fc-9a90a06323b8
f 171/340/85 172/339/85 170/338/85 169/337/85
f 174/344/86 169/343/86 170/342/86 173/341/86
f 175/348/87 172/347/87 171/346/87 176/345/87
o cube
v -5.25 1 0.8125
v -5.25 1 -0.8125
v -5.25 0 0.8125
v -5.25 0 -0.8125
v -6.25 1 -0.8125
v -6.25 1 0.8125
v -6.25 0 -0.8125
v -6.25 0 0.8125
vt 0 0.16874999999999996
vt 0.001 0.16874999999999996
vt 0.001 0.16562500000000002
vt 0 0.16562500000000002
vt 0 0.16874999999999996
vt 0.001 0.16874999999999996
vt 0.001 0.16562500000000002
vt 0 0.16562500000000002
vn 1 0 0
vn 0 1 0
usemtl m_de3730fb-0b02-0b58-47fc-9a90a06323b8
f 179/352/88 180/351/88 178/350/88 177/349/88
f 182/356/89 177/355/89 178/354/89 181/353/89
o cube
v -6.25 0 -0.8125
v -6.25 0 0.8125
v -6.25 2.75 -0.8125
v -6.25 2.75 0.8125
v -4.25 0 0.8125
v -4.25 0 -0.8125
v -4.25 2.75 0.8125
v -4.25 2.75 -0.8125
vt 0.006 0.13437500000000002
vt 0.004 0.13437500000000002
vt 0.004 0.16874999999999996
vt 0.006 0.16874999999999996
vt 0.006 0.13437500000000002
vt 0.005 0.13437500000000002
vt 0.005 0.16874999999999996
vt 0.006 0.16874999999999996
vt 0.004 0.13437500000000002
vt 0.006 0.13437500000000002
vt 0.006 0.16874999999999996
vt 0.004 0.16874999999999996
vt 0 0.16874999999999996
vt 0.001 0.16874999999999996
vt 0.001 0.16562500000000002
vt 0 0.16562500000000002
vt 0.001 0.16562500000000002
vt 0.003 0.16562500000000002
vt 0.003 0.16249999999999998
vt 0.001 0.16249999999999998
vt 0 0.16874999999999996
vt 0.001 0.16874999999999996
vt 0.001 0.16562500000000002
vt 0 0.16562500000000002
vn 0 0 -1
vn 1 0 0
vn 0 0 1
vn -1 0 0
vn 0 1 0
vn 0 -1 0
usemtl m_de3730fb-0b02-0b58-47fc-9a90a06323b8
f 188/360/90 191/359/90 189/358/90 186/357/90
f 187/364/91 188/363/91 186/362/91 185/361/91
f 192/368/92 187/367/92 185/366/92 190/365/92
f 191/372/93 192/371/93 190/370/93 189/369/93
f 190/376/94 185/375/94 186/374/94 189/373/94
f 191/380/95 188/379/95 187/378/95 192/377/95
o cube
v -6.375 2.625 0.6875
v -6.375 2.625 -0.6875
v -6.375 0.125 0.6875
v -6.375 0.125 -0.6875
v -8.125 2.625 -0.6875
v -8.125 2.625 0.6875
v -8.125 0.125 -0.6875
v -8.125 0.125 0.6875
vt 0.18 0.93125
vt 0.208 0.93125
vt 0.208 0.80625
vt 0.18 0.80625
vt 0.208 0.93125
vt 0.18 0.93125
vt 0.18 0.80625
vt 0.208 0.80625
vt 0.208 0.93125
vt 0.18 0.93125
vt 0.18 1
vt 0.208 1
vt 0.208 0.7375
vt 0.18 0.7375
vt 0.18 0.80625
vt 0.208 0.80625
vn 0 0 -1
vn 0 0 1
vn 0 1 0
vn 0 -1 0
usemtl m_de3730fb-0b02-0b58-47fc-9a90a06323b8
f 196/384/96 199/383/96 197/382/96 194/381/96
f 200/388/97 195/387/97 193/386/97 198/385/97
f 198/392/98 193/391/98 194/390/98 197/389/98
f 199/396/99 196/395/99 195/394/99 200/393/99
o cube
v -7.25 2 0.8125
v -7.25 2 -0.8125
v -7.25 1.75 0.8125
v -7.25 1.75 -0.8125
v -8.25 2 -0.8125
v -8.25 2 0.8125
v -8.25 1.75 -0.8125
v -8.25 1.75 0.8125
vt 0 0.16874999999999996
vt 0.001 0.16874999999999996
vt 0.001 0.16562500000000002
vt 0 0.16562500000000002
vt 0 0.16874999999999996
vt 0.001 0.16874999999999996
vt 0.001 0.16562500000000002
vt 0 0.16562500000000002
vt 0 0.16874999999999996
vt 0.001 0.16874999999999996
vt 0.001 0.16562500000000002
vt 0 0.16562500000000002
vn 1 0 0
vn 0 1 0
vn 0 -1 0
usemtl m_de3730fb-0b02-0b58-47fc-9a90a06323b8
f 203/400/100 204/399/100 202/398/100 201/397/100
f 206/404/101 201/403/101 202/402/101 205/401/101
f 207/408/102 204/407/102 203/406/102 208/405/102
o cube
v -7.25 1 0.8125
v -7.25 1 -0.8125
v -7.25 0 0.8125
v -7.25 0 -0.8125
v -8.25 1 -0.8125
v -8.25 1 0.8125
v -8.25 0 -0.8125
v -8.25 0 0.8125
vt 0 0.16874999999999996
vt 0.001 0.16874999999999996
vt 0.001 0.16562500000000002
vt 0 0.16562500000000002
vt 0 0.16874999999999996
vt 0.001 0.16874999999999996
vt 0.001 0.16562500000000002
vt 0 0.16562500000000002
vn 1 0 0
vn 0 1 0
usemtl m_de3730fb-0b02-0b58-47fc-9a90a06323b8
f 211/412/103 212/411/103 210/410/103 209/409/103
f 214/416/104 209/415/104 210/414/104 213/413/104
o cube
v -8.25 0 -0.8125
v -8.25 0 0.8125
v -8.25 2.75 -0.8125
v -8.25 2.75 0.8125
v -6.25 0 0.8125
v -6.25 0 -0.8125
v -6.25 2.75 0.8125
v -6.25 2.75 -0.8125
vt 0.006 0.13437500000000002
vt 0.004 0.13437500000000002
vt 0.004 0.16874999999999996
vt 0.006 0.16874999999999996
vt 0.006 0.13437500000000002
vt 0.005 0.13437500000000002
vt 0.005 0.16874999999999996
vt 0.006 0.16874999999999996
vt 0.004 0.13437500000000002
vt 0.006 0.13437500000000002
vt 0.006 0.16874999999999996
vt 0.004 0.16874999999999996
vt 0 0.16874999999999996
vt 0.001 0.16874999999999996
vt 0.001 0.16562500000000002
vt 0 0.16562500000000002
vt 0.001 0.16562500000000002
vt 0.003 0.16562500000000002
vt 0.003 0.16249999999999998
vt 0.001 0.16249999999999998
vt 0 0.16874999999999996
vt 0.001 0.16874999999999996
vt 0.001 0.16562500000000002
vt 0 0.16562500000000002
vn 0 0 -1
vn 1 0 0
vn 0 0 1
vn -1 0 0
vn 0 1 0
vn 0 -1 0
usemtl m_de3730fb-0b02-0b58-47fc-9a90a06323b8
f 220/420/105 223/419/105 221/418/105 218/417/105
f 219/424/106 220/423/106 218/422/106 217/421/106
f 224/428/107 219/427/107 217/426/107 222/425/107
f 223/432/108 224/431/108 222/430/108 221/429/108
f 222/436/109 217/435/109 218/434/109 221/433/109
f 223/440/110 220/439/110 219/438/110 224/437/110