# Blender 4.1.1 Goo Engine
# www.blender.org
mtllib after_effects.mtl
o After_Effects_Base
v 0.244439 0.755561 0.534849
v 0.755561 0.755561 0.534849
v 0.755561 0.244439 0.534849
v 0.244439 0.244439 0.534849
v 0.244439 0.755561 0.465151
v 0.755561 0.755561 0.465151
v 0.755561 0.244439 0.465151
v 0.244439 0.244439 0.465151
vn -0.0000 -0.0000 1.0000
vn -0.0000 -0.0000 -1.0000
vn -1.0000 -0.0000 -0.0000
vn -0.0000 1.0000 -0.0000
vn 1.0000 -0.0000 -0.0000
vn -0.0000 -1.0000 -0.0000
vt 1.000000 0.000000
vt 0.333333 0.000000
vt 0.000000 0.000000
vt 0.666667 0.000000
s 0
g After_Effects_Base_AfterEffectsBase
usemtl AfterEffectsBase
f 4/1/1 2/2/1 1/3/1
f 4/1/1 3/4/1 2/2/1
f 8/1/2 5/3/2 6/2/2
f 8/1/2 6/2/2 7/4/2
f 1/3/3 8/1/3 4/1/3
f 2/2/4 5/3/4 1/3/4
f 3/4/5 6/2/5 2/2/5
f 4/1/6 7/4/6 3/4/6
f 1/3/3 5/3/3 8/1/3
f 2/2/4 6/2/4 5/3/4
f 3/4/5 7/4/5 6/2/5
f 4/1/6 8/1/6 7/4/6
o After_Effects_Border
v 0.244439 0.754245 0.527879
v 0.755562 0.754245 0.527879
v 0.755562 0.244314 0.527879
v 0.244439 0.244314 0.527879
v 0.221207 0.220485 0.527879
v 0.778795 0.220485 0.527879
v 0.778795 0.778073 0.527879
v 0.221207 0.778073 0.527879
v 0.244439 0.754245 0.472121
v 0.755562 0.754245 0.472121
v 0.755562 0.244314 0.472121
v 0.244439 0.244314 0.472121
v 0.221207 0.220485 0.472121
v 0.778795 0.220485 0.472121
v 0.778795 0.778073 0.472121
v 0.221207 0.778073 0.472121
vn -0.0000 -0.0000 1.0000
vn -0.0000 -0.0000 -1.0000
vn -0.0000 -1.0000 -0.0000
vn -1.0000 -0.0000 -0.0000
vn -0.0000 1.0000 -0.0000
vn 1.0000 -0.0000 -0.0000
vt 0.571429 0.000000
vt 0.000000 0.000000
vt 1.000000 0.000000
vt 0.857143 0.000000
vt 0.142857 0.000000
vt 0.714286 0.000000
vt 0.428571 0.000000
vt 0.285714 0.000000
s 0
g After_Effects_Border_AfterEffectsBorder
usemtl AfterEffectsBorder
f 13/5/7 9/6/7 16/7/7
f 9/6/7 15/8/7 16/7/7
f 9/6/7 10/9/7 15/8/7
f 10/9/7 14/10/7 15/8/7
f 13/5/7 12/11/7 9/6/7
f 11/12/7 14/10/7 10/9/7
f 13/5/7 11/12/7 12/11/7
f 13/5/7 14/10/7 11/12/7
f 21/5/8 24/7/8 17/6/8
f 17/6/8 24/7/8 23/8/8
f 17/6/8 23/8/8 18/9/8
f 18/9/8 23/8/8 22/10/8
f 21/5/8 17/6/8 20/11/8
f 19/12/8 18/9/8 22/10/8
f 21/5/8 20/11/8 19/12/8
f 21/5/8 19/12/8 22/10/8
f 9/6/9 18/9/9 10/9/9
f 10/9/10 19/12/10 11/12/10
f 11/12/11 20/11/11 12/11/11
f 16/7/10 21/5/10 13/5/10
f 12/11/12 17/6/12 9/6/12
f 15/8/11 24/7/11 16/7/11
f 13/5/9 22/10/9 14/10/9
f 14/10/12 23/8/12 15/8/12
f 9/6/9 17/6/9 18/9/9
f 10/9/10 18/9/10 19/12/10
f 11/12/11 19/12/11 20/11/11
f 16/7/10 24/7/10 21/5/10
f 12/11/12 20/11/12 17/6/12
f 15/8/11 23/8/11 24/7/11
f 13/5/9 21/5/9 22/10/9
f 14/10/12 22/10/12 23/8/12
o After_Effects_Text
v 0.447186 0.497439 0.539496
v 0.442253 0.516350 0.539496
v 0.435996 0.539774 0.539496
v 0.429354 0.564814 0.539496
v 0.423267 0.588577 0.539496
v 0.418673 0.608167 0.539496
v 0.418507 0.608167 0.539496
v 0.418367 0.608167 0.539496
v 0.418202 0.608167 0.539496
v 0.414362 0.589572 0.539496
v 0.409142 0.567800 0.539496
v 0.403085 0.544252 0.539496
v 0.396734 0.520331 0.539496
v 0.390631 0.497439 0.539496
v 0.396513 0.497439 0.539496
v 0.410539 0.497439 0.539496
v 0.427279 0.497439 0.539496
v 0.441304 0.497439 0.539496
v 0.362355 0.388831 0.539497
v 0.362032 0.387838 0.539497
v 0.361586 0.387105 0.539497
v 0.360946 0.386609 0.539497
v 0.360047 0.386328 0.539497
v 0.358820 0.386240 0.539497
v 0.355217 0.386240 0.539497
v 0.346627 0.386240 0.539497
v 0.336373 0.386240 0.539497
v 0.327783 0.386240 0.539497
v 0.324180 0.386240 0.539497
v 0.322985 0.386336 0.539497
v 0.322197 0.386669 0.539497
v 0.321771 0.387308 0.539497
v 0.321662 0.388320 0.539497
v 0.321824 0.389773 0.539497
v 0.328784 0.414103 0.539497
v 0.345381 0.472121 0.539496
v 0.365189 0.541368 0.539496
v 0.381786 0.599385 0.539496
v 0.388746 0.623715 0.539496
v 0.389398 0.626222 0.539496
v 0.389948 0.628955 0.539496
v 0.390408 0.632366 0.539496
v 0.390789 0.636908 0.539496
v 0.391102 0.643033 0.539496
v 0.391185 0.643911 0.539496
v 0.391426 0.644575 0.539496
v 0.391814 0.645034 0.539496
v 0.392338 0.645302 0.539496
v 0.392987 0.645389 0.539496
v 0.398133 0.645389 0.539496
v 0.410405 0.645389 0.539496
v 0.425053 0.645389 0.539496
v 0.437325 0.645389 0.539496
v 0.442471 0.645389 0.539496
v 0.443353 0.645325 0.539496
v 0.444043 0.645102 0.539496
v 0.444575 0.644676 0.539496
v 0.444982 0.644002 0.539496
v 0.445299 0.643033 0.539496
v 0.453092 0.616645 0.539496
v 0.471676 0.553720 0.539496
v 0.493856 0.478615 0.539496
v 0.512439 0.415690 0.539497
v 0.520232 0.389302 0.539497
v 0.520398 0.388260 0.539497
v 0.520315 0.387410 0.539497
v 0.519961 0.386775 0.539497
v 0.519313 0.386377 0.539497
v 0.518348 0.386240 0.539497
v 0.514304 0.386240 0.539497
v 0.504662 0.386240 0.539497
v 0.493153 0.386240 0.539497
v 0.483511 0.386240 0.539497
v 0.479467 0.386240 0.539497
v 0.478421 0.386326 0.539497
v 0.477544 0.386594 0.539497
v 0.476837 0.387053 0.539497
v 0.476300 0.387717 0.539497
v 0.475932 0.388594 0.539497
v 0.473923 0.395945 0.539497
v 0.469131 0.413473 0.539497
v 0.463411 0.434393 0.539496
v 0.458619 0.451921 0.539496
v 0.456610 0.459271 0.539496
v 0.380970 0.459271 0.539496
v 0.621323 0.505684 0.539496
v 0.627638 0.505688 0.539496
v 0.632313 0.505714 0.539496
v 0.635574 0.505786 0.539496
v 0.637648 0.505925 0.539496
v 0.638760 0.506155 0.539496
v 0.638809 0.507092 0.539496
v 0.638926 0.507938 0.539496
v 0.639065 0.508717 0.539496
v 0.639182 0.509450 0.539496
v 0.639231 0.510161 0.539496
v 0.638398 0.518819 0.539496
v 0.635506 0.528427 0.539496
v 0.629968 0.537335 0.539496
v 0.621194 0.543890 0.539496
v 0.608598 0.546442 0.539496
v 0.596535 0.544216 0.539496
v 0.587311 0.538134 0.539496
v 0.580655 0.529089 0.539496
v 0.576295 0.517975 0.539496
v 0.573959 0.505684 0.539496
v 0.578885 0.505684 0.539496
v 0.590631 0.505684 0.539496
v 0.604651 0.505684 0.539496
v 0.616397 0.505684 0.539496
v 0.573489 0.473409 0.539496
v 0.575574 0.455658 0.539496
v 0.581459 0.440927 0.539496
v 0.591439 0.429747 0.539496
v 0.605807 0.422649 0.539496
v 0.624858 0.420165 0.539496
v 0.632992 0.420404 0.539496
v 0.640787 0.421175 0.539496
v 0.648356 0.422556 0.539496
v 0.655812 0.424627 0.539496
v 0.663268 0.427467 0.539496
v 0.664195 0.427771 0.539496
v 0.664976 0.427803 0.539496
v 0.665576 0.427518 0.539496
v 0.665960 0.426872 0.539496
v 0.666096 0.425818 0.539496
v 0.666096 0.422756 0.539496
v 0.666096 0.415452 0.539497
v 0.666096 0.406735 0.539497
v 0.666096 0.399432 0.539497
v 0.666096 0.396370 0.539497
v 0.666009 0.395088 0.539497
v 0.665742 0.394032 0.539497
v 0.665282 0.393146 0.539497
v 0.664618 0.392374 0.539497
v 0.663740 0.391657 0.539497
v 0.655873 0.388375 0.539497
v 0.647237 0.385860 0.539497
v 0.637798 0.384093 0.539497
v 0.627523 0.383048 0.539497
v 0.616376 0.382705 0.539497
v 0.583592 0.387892 0.539497
v 0.559393 0.402148 0.539497
v 0.543032 0.423517 0.539496
v 0.533763 0.450042 0.539496
v 0.530839 0.479768 0.539496
v 0.534234 0.511629 0.539496
v 0.544201 0.539363 0.539496
v 0.560411 0.561273 0.539496
v 0.582537 0.575662 0.539496
v 0.610250 0.580836 0.539496
v 0.637181 0.576071 0.539496
v 0.656828 0.563414 0.539496
v 0.669937 0.545317 0.539496
v 0.677255 0.524234 0.539496
v 0.679529 0.502620 0.539496
v 0.679446 0.496110 0.539496
v 0.679205 0.490233 0.539496
v 0.678816 0.485114 0.539496
v 0.678292 0.480877 0.539496
v 0.677644 0.477647 0.539496
v 0.677325 0.476650 0.539496
v 0.676905 0.475890 0.539496
v 0.676337 0.475323 0.539496
v 0.675578 0.474902 0.539496
v 0.674580 0.474584 0.539496
v 0.670668 0.474141 0.539496
v 0.664664 0.473698 0.539496
v 0.656680 0.473312 0.539496
v 0.646831 0.473039 0.539496
v 0.635228 0.472936 0.539496
v 0.613495 0.472936 0.539496
v 0.595221 0.472936 0.539496
v 0.579909 0.472936 0.539496
v 0.573489 0.472936 0.539496
v 0.573698 0.472933 0.539496
v 0.573724 0.473043 0.539496
v 0.573646 0.473203 0.539496
v 0.573541 0.473346 0.539496
v 0.447186 0.497439 0.460505
v 0.442253 0.516350 0.460505
v 0.435996 0.539774 0.460505
v 0.429354 0.564814 0.460505
v 0.423267 0.588577 0.460505
v 0.418673 0.608167 0.460505
v 0.418507 0.608167 0.460505
v 0.418367 0.608167 0.460505
v 0.418202 0.608167 0.460505
v 0.414362 0.589572 0.460505
v 0.409142 0.567800 0.460505
v 0.403085 0.544252 0.460505
v 0.396734 0.520331 0.460505
v 0.390631 0.497439 0.460505
v 0.396513 0.497439 0.460505
v 0.410539 0.497439 0.460505
v 0.427279 0.497439 0.460505
v 0.441304 0.497439 0.460505
v 0.380970 0.459272 0.460505
v 0.362355 0.388831 0.460505
v 0.362032 0.387838 0.460505
v 0.361586 0.387105 0.460505
v 0.360946 0.386609 0.460505
v 0.360047 0.386328 0.460505
v 0.358820 0.386240 0.460505
v 0.355217 0.386240 0.460505
v 0.346627 0.386240 0.460505
v 0.336373 0.386240 0.460505
v 0.327783 0.386240 0.460505
v 0.324180 0.386240 0.460505
v 0.322985 0.386336 0.460505
v 0.322197 0.386669 0.460505
v 0.321771 0.387308 0.460505
v 0.321662 0.388320 0.460505
v 0.321824 0.389773 0.460505
v 0.328784 0.414103 0.460505
v 0.345381 0.472121 0.460505
v 0.365189 0.541368 0.460505
v 0.381786 0.599385 0.460505
v 0.388746 0.623715 0.460505
v 0.389398 0.626222 0.460505
v 0.389948 0.628955 0.460505
v 0.390408 0.632366 0.460505
v 0.390789 0.636908 0.460505
v 0.391102 0.643033 0.460505
v 0.391185 0.643911 0.460505
v 0.391426 0.644575 0.460505
v 0.391814 0.645034 0.460505
v 0.392338 0.645302 0.460505
v 0.392987 0.645389 0.460505
v 0.398133 0.645389 0.460505
v 0.410405 0.645389 0.460505
v 0.425053 0.645389 0.460505
v 0.437325 0.645389 0.460505
v 0.442471 0.645389 0.460505
v 0.443353 0.645325 0.460505
v 0.444043 0.645102 0.460505
v 0.444575 0.644676 0.460505
v 0.444982 0.644002 0.460505
v 0.445299 0.643033 0.460505
v 0.453092 0.616645 0.460505
v 0.471676 0.553720 0.460505
v 0.493856 0.478615 0.460505
v 0.512439 0.415690 0.460505
v 0.520232 0.389302 0.460505
v 0.520398 0.388260 0.460505
v 0.520315 0.387410 0.460505
v 0.519961 0.386775 0.460505
v 0.519313 0.386377 0.460505
v 0.518348 0.386240 0.460505
v 0.514304 0.386240 0.460505
v 0.504662 0.386240 0.460505
v 0.493153 0.386240 0.460505
v 0.483511 0.386240 0.460505
v 0.479467 0.386240 0.460505
v 0.478421 0.386326 0.460505
v 0.477544 0.386594 0.460505
v 0.476837 0.387053 0.460505
v 0.476300 0.387716 0.460505
v 0.475932 0.388594 0.460505
v 0.473923 0.395945 0.460505
v 0.469131 0.413473 0.460505
v 0.463411 0.434393 0.460505
v 0.458619 0.451921 0.460505
v 0.456610 0.459271 0.460505
v 0.621323 0.505684 0.460505
v 0.627638 0.505688 0.460505
v 0.632313 0.505714 0.460505
v 0.635574 0.505786 0.460505
v 0.637648 0.505925 0.460505
v 0.638760 0.506155 0.460505
v 0.638809 0.507092 0.460505
v 0.638926 0.507938 0.460505
v 0.639065 0.508717 0.460505
v 0.639182 0.509450 0.460505
v 0.639231 0.510161 0.460505
v 0.638398 0.518819 0.460505
v 0.635506 0.528427 0.460505
v 0.629968 0.537335 0.460505
v 0.621194 0.543890 0.460505
v 0.608598 0.546441 0.460505
v 0.596535 0.544216 0.460505
v 0.587311 0.538134 0.460505
v 0.580655 0.529089 0.460505
v 0.576295 0.517975 0.460505
v 0.573959 0.505684 0.460505
v 0.578885 0.505684 0.460505
v 0.590631 0.505684 0.460505
v 0.604651 0.505684 0.460505
v 0.616397 0.505684 0.460505
v 0.573489 0.473409 0.460505
v 0.575574 0.455658 0.460505
v 0.581459 0.440927 0.460505
v 0.591439 0.429747 0.460505
v 0.605807 0.422649 0.460505
v 0.624858 0.420165 0.460505
v 0.632992 0.420404 0.460505
v 0.640787 0.421175 0.460505
v 0.648356 0.422556 0.460505
v 0.655812 0.424627 0.460505
v 0.663268 0.427467 0.460505
v 0.664195 0.427770 0.460505
v 0.664976 0.427803 0.460505
v 0.665576 0.427518 0.460505
v 0.665960 0.426872 0.460505
v 0.666096 0.425818 0.460505
v 0.666096 0.422756 0.460505
v 0.666096 0.415452 0.460505
v 0.666096 0.406735 0.460505
v 0.666096 0.399432 0.460505
v 0.666096 0.396369 0.460505
v 0.666009 0.395088 0.460505
v 0.665742 0.394032 0.460505
v 0.665282 0.393146 0.460505
v 0.664618 0.392374 0.460505
v 0.663740 0.391657 0.460505
v 0.655873 0.388375 0.460505
v 0.647237 0.385860 0.460505
v 0.637798 0.384092 0.460505
v 0.627523 0.383048 0.460505
v 0.616376 0.382705 0.460505
v 0.583592 0.387892 0.460505
v 0.559393 0.402148 0.460505
v 0.543032 0.423517 0.460505
v 0.533763 0.450042 0.460505
v 0.530839 0.479768 0.460505
v 0.534234 0.511629 0.460505
v 0.544201 0.539363 0.460505
v 0.560411 0.561273 0.460505
v 0.582537 0.575662 0.460505
v 0.610250 0.580836 0.460505
v 0.637181 0.576071 0.460505
v 0.656828 0.563414 0.460505
v 0.669937 0.545317 0.460505
v 0.677255 0.524234 0.460505
v 0.679529 0.502620 0.460505
v 0.679446 0.496110 0.460505
v 0.679205 0.490233 0.460505
v 0.678816 0.485114 0.460505
v 0.678292 0.480877 0.460505
v 0.677644 0.477647 0.460505
v 0.677325 0.476650 0.460505
v 0.676905 0.475890 0.460505
v 0.676337 0.475323 0.460505
v 0.675578 0.474902 0.460505
v 0.674580 0.474584 0.460505
v 0.670668 0.474141 0.460505
v 0.664664 0.473698 0.460505
v 0.656680 0.473312 0.460505
v 0.646831 0.473039 0.460505
v 0.635228 0.472936 0.460505
v 0.628807 0.472936 0.500001
v 0.613495 0.472936 0.460505
v 0.595221 0.472936 0.460505
v 0.579909 0.472936 0.460505
v 0.573489 0.472936 0.460505
v 0.573698 0.472933 0.460505
v 0.573724 0.473043 0.460505
v 0.573646 0.473203 0.460505
v 0.573541 0.473346 0.460505
vn -0.0000 -0.0000 1.0000
vn 0.0001 -0.0000 1.0000
vn 0.0001 -1.0000 -0.0000
vn -0.0000 -0.0000 -1.0000
vn 0.0001 -0.0000 -1.0000
vn -0.9676 -0.2524 -0.0000
vn -0.9736 -0.2283 -0.0000
vn -0.0000 -1.0000 -0.0000
vn 0.9685 -0.2491 -0.0000
vn -0.0000 1.0000 -0.0000
vn 0.9668 -0.2555 -0.0000
vn 0.2982 -0.9545 -0.0000
vn 0.9591 0.2832 -0.0000
vn -0.9614 0.2750 -0.0000
vn 0.9971 -0.0756 -0.0000
vn -0.9965 0.0835 -0.0000
vn -0.7640 0.6452 -0.0000
vn 0.0724 0.9974 -0.0000
vn 0.9504 0.3111 -0.0000
vn 0.8733 -0.4872 -0.0000
vn -0.3898 -0.9209 -0.0000
vn -0.0826 -0.9966 -0.0000
vn -0.9223 -0.3864 -0.0000
vn -0.9646 -0.2637 -0.0000
vn -0.0006 1.0000 -0.0000
vn -0.2024 0.9793 -0.0000
vn -0.9875 0.1574 -0.0000
vn -0.8492 -0.5280 -0.0000
vn -0.7940 -0.6079 -0.0000
vn 0.5505 -0.8349 -0.0000
vn 0.4429 0.8966 -0.0000
vn -0.1795 0.9838 -0.0000
vn -0.0410 0.9992 -0.0000
vn 1.0000 -0.0000 -0.0000
vn 0.7588 -0.6514 -0.0000
vn 0.1841 -0.9829 -0.0000
vn -0.1835 0.9830 -0.0000
vn 0.9447 0.3279 -0.0000
vn 0.8750 -0.4842 -0.0000
vn 0.1125 -0.9937 -0.0000
vn 0.0089 -1.0000 -0.0000
vn -0.2919 -0.9565 -0.0000
vn 0.9665 -0.2566 -0.0000
vn 0.9511 -0.3088 -0.0000
vn 0.0720 -0.9974 -0.0000
vn -0.8319 -0.5549 -0.0000
vn -0.9678 0.2518 -0.0000
vn -0.9987 0.0510 -0.0000
vn -0.8974 -0.4412 -0.0000
vn -0.4548 0.8906 -0.0000
vn 0.3068 0.9518 -0.0000
vn 0.5230 -0.8524 -0.0000
vn -0.0056 1.0000 -0.0000
vn -0.9986 0.0523 -0.0000
vn -0.9661 -0.2581 -0.0000
vn -0.9976 0.0688 -0.0000
vn -0.5985 -0.8011 -0.0000
vn 0.8054 -0.5927 -0.0000
vn 0.7071 -0.7071 -0.0000
vn 0.9932 0.1167 -0.0000
vn -0.9440 -0.3299 -0.0000
vn 0.1293 0.9916 -0.0000
vn -0.2676 0.9635 -0.0000
vn 0.4287 0.9034 -0.0000
vn 0.9977 -0.0675 -0.0000
vn 0.6320 -0.7750 -0.0000
vn 0.1011 -0.9949 -0.0000
vn 0.1742 0.9847 -0.0000
vn 0.9945 0.1046 -0.0000
vn 0.0735 -0.9973 -0.0000
vn 0.9924 -0.1227 -0.0000
vn -0.7656 -0.6433 -0.0000
vn -0.9666 -0.2564 -0.0000
vn 0.9793 -0.2022 -0.0000
vn 0.9663 -0.2576 -0.0000
vn 0.8539 -0.5204 -0.0000
vn 0.2795 -0.9601 -0.0000
vn -0.9803 0.1974 -0.0000
vn -0.9956 0.0940 -0.0000
vn -0.1325 0.9912 -0.0000
vn 0.6252 0.7805 -0.0000
vn -0.8079 -0.5893 -0.0000
vn 0.9876 0.1572 -0.0000
vn 0.1412 -0.9900 -0.0000
vn -0.1563 -0.9877 -0.0000
vn -0.5450 -0.8384 -0.0000
vn -0.0220 0.9998 -0.0000
vn -0.9906 0.1368 -0.0000
vn -0.9954 -0.0958 -0.0000
vn -0.1986 -0.9801 -0.0000
vn 0.9309 -0.3652 -0.0000
vn 0.9286 0.3710 -0.0000
vn -0.0294 0.9996 -0.0000
vn -0.3560 0.9345 -0.0000
vn 0.8593 0.5115 -0.0000
vn -0.9952 -0.0979 -0.0000
vn 0.9693 -0.2458 -0.0000
vn 0.3851 -0.9229 -0.0000
vn 0.0308 -0.9995 -0.0000
vn -0.8039 0.5948 -0.0000
vn 0.5416 0.8406 -0.0000
vn 0.9999 -0.0127 -0.0000
vn 0.9804 -0.1968 -0.0000
vn 0.4842 -0.8750 -0.0000
vn 0.0483 -0.9988 -0.0000
vn 0.9942 0.1079 -0.0000
vn 0.8098 0.5866 -0.0000
vn -0.9687 -0.2482 -0.0000
vn -0.7769 -0.6297 -0.0000
vn 0.9724 -0.2331 -0.0000
vn 0.0150 0.9999 -0.0000
vn 0.6129 -0.7902 -0.0000
vn -0.0802 -0.9968 -0.0000
vn -0.9938 0.1111 -0.0000
vn -0.9910 0.1336 -0.0000
vn -0.9411 0.3382 -0.0000
vn -0.9398 0.3418 -0.0000
vn 0.8560 0.5169 -0.0000
vn 0.9953 -0.0971 -0.0000
vn -0.5076 -0.8616 -0.0000
vn -0.0671 0.9977 -0.0000
vn -0.9843 0.1763 -0.0000
vn -0.9576 -0.2882 -0.0000
vn 0.1814 -0.9834 -0.0000
vn 0.9824 -0.1867 -0.0000
vn 0.7460 0.6659 -0.0000
vn -0.0984 0.9951 -0.0000
vn -0.3109 0.9504 -0.0000
vn 0.9918 0.1279 -0.0000
vn 0.8875 -0.4607 -0.0000
vn -0.9944 0.1060 -0.0000
vn -0.5452 0.8383 -0.0000
vn 0.9992 -0.0410 -0.0000
vn 0.9526 -0.3043 -0.0000
vn 0.3042 -0.9526 -0.0000
vn 0.0277 -0.9996 -0.0000
vn -0.9732 0.2298 -0.0000
vn -0.9942 -0.1074 -0.0000
vn -0.9986 0.0522 -0.0000
vn 0.8539 -0.5205 -0.0000
vn 0.8560 0.5170 -0.0000
vn -0.9843 0.1764 -0.0000
vn 0.8876 -0.4607 -0.0000
vn -0.9732 0.2299 -0.0000
vn -0.9942 -0.1073 -0.0000
vt 0.835165 0.000000
vt 0.846154 0.000000
vt 0.840659 0.000000
vt 0.851648 0.000000
vt 0.829670 0.000000
vt 0.857143 0.000000
vt 0.824176 0.000000
vt 0.565934 0.000000
vt 0.571429 0.000000
vt 0.560440 0.000000
vt 0.862637 0.000000
vt 0.576923 0.000000
vt 0.554945 0.000000
vt 0.818681 0.000000
vt 0.582418 0.000000
vt 0.549451 0.000000
vt 0.587912 0.000000
vt 0.543956 0.000000
vt 0.868132 0.000000
vt 0.538462 0.000000
vt 0.593407 0.000000
vt 0.813187 0.000000
vt 0.532967 0.000000
vt 0.527473 0.000000
vt 0.521978 0.000000
vt 0.516484 0.000000
vt 0.510989 0.000000
vt 0.505495 0.000000
vt 0.500000 0.000000
vt 0.494505 0.000000
vt 0.489011 0.000000
vt 0.483516 0.000000
vt 0.598901 0.000000
vt 0.604396 0.000000
vt 0.609890 0.000000
vt 0.615385 0.000000
vt 0.873626 0.000000
vt 0.879121 0.000000
vt 0.884615 0.000000
vt 0.890110 0.000000
vt 0.895604 0.000000
vt 0.807692 0.000000
vt 0.620879 0.000000
vt 0.901099 0.000000
vt 0.906593 0.000000
vt 0.912088 0.000000
vt 0.917582 0.000000
vt 0.923077 0.000000
vt 0.928571 0.000000
vt 0.934066 0.000000
vt 0.939560 0.000000
vt 0.978022 0.000000
vt 0.626374 0.000000
vt 1.000000 0.000000
vt 0.994505 0.000000
vt 0.945055 0.000000
vt 0.989011 0.000000
vt 0.983516 0.000000
vt 0.972527 0.000000
vt 0.950549 0.000000
vt 0.967033 0.000000
vt 0.961538 0.000000
vt 0.956044 0.000000
vt 0.631868 0.000000
vt 0.802198 0.000000
vt 0.637363 0.000000
vt 0.642857 0.000000
vt 0.681319 0.000000
vt 0.692308 0.000000
vt 0.686813 0.000000
vt 0.675824 0.000000
vt 0.697802 0.000000
vt 0.670330 0.000000
vt 0.703297 0.000000
vt 0.708791 0.000000
vt 0.664835 0.000000
vt 0.796703 0.000000
vt 0.714286 0.000000
vt 0.648352 0.000000
vt 0.659341 0.000000
vt 0.653846 0.000000
vt 0.719780 0.000000
vt 0.725275 0.000000
vt 0.791209 0.000000
vt 0.730769 0.000000
vt 0.736264 0.000000
vt 0.741758 0.000000
vt 0.747253 0.000000
vt 0.752747 0.000000
vt 0.758242 0.000000
vt 0.763736 0.000000
vt 0.769231 0.000000
vt 0.785714 0.000000
vt 0.774725 0.000000
vt 0.780220 0.000000
vt 0.274725 0.000000
vt 0.285714 0.000000
vt 0.280220 0.000000
vt 0.291209 0.000000
vt 0.296703 0.000000
vt 0.302198 0.000000
vt 0.307692 0.000000
vt 0.313187 0.000000
vt 0.318681 0.000000
vt 0.269231 0.000000
vt 0.324176 0.000000
vt 0.263736 0.000000
vt 0.329670 0.000000
vt 0.258242 0.000000
vt 0.335165 0.000000
vt 0.252747 0.000000
vt 0.247253 0.000000
vt 0.340659 0.000000
vt 0.241758 0.000000
vt 0.236264 0.000000
vt 0.230769 0.000000
vt 0.225275 0.000000
vt 0.219780 0.000000
vt 0.054945 0.000000
vt 0.049451 0.000000
vt 0.043956 0.000000
vt 0.038462 0.000000
vt 0.032967 0.000000
vt 0.027473 0.000000
vt 0.346154 0.000000
vt 0.060440 0.000000
vt 0.021978 0.000000
vt 0.214286 0.000000
vt 0.065934 0.000000
vt 0.016484 0.000000
vt 0.071429 0.000000
vt 0.010989 0.000000
vt 0.351648 0.000000
vt 0.076923 0.000000
vt 0.208791 0.000000
vt 0.005495 0.000000
vt 0.082418 0.000000
vt 0.000000 0.000000
vt 0.087912 0.000000
vt 0.093407 0.000000
vt 0.098901 0.000000
vt 0.104396 0.000000
vt 0.472527 0.000000
vt 0.357143 0.000000
vt 0.203297 0.000000
vt 0.109890 0.000000
vt 0.115385 0.000000
vt 0.467033 0.000000
vt 0.461538 0.000000
vt 0.456044 0.000000
vt 0.362637 0.000000
vt 0.197802 0.000000
vt 0.450549 0.000000
vt 0.445055 0.000000
vt 0.192308 0.000000
vt 0.368132 0.000000
vt 0.120879 0.000000
vt 0.439560 0.000000
vt 0.186813 0.000000
vt 0.373626 0.000000
vt 0.126374 0.000000
vt 0.434066 0.000000
vt 0.379121 0.000000
vt 0.181319 0.000000
vt 0.131868 0.000000
vt 0.428571 0.000000
vt 0.384615 0.000000
vt 0.175824 0.000000
vt 0.137363 0.000000
vt 0.423077 0.000000
vt 0.390110 0.000000
vt 0.170330 0.000000
vt 0.142857 0.000000
vt 0.417582 0.000000
vt 0.164835 0.000000
vt 0.159341 0.000000
vt 0.153846 0.000000
vt 0.148352 0.000000
vt 0.412088 0.000000
vt 0.406593 0.000000
vt 0.401099 0.000000
vt 0.395604 0.000000
vt 0.478022 0.000000
s 0
g After_Effects_Text_AfterEffectsText
usemtl AfterEffectsText
f 174/13/13 176/14/13 175/15/13
f 174/13/13 177/16/13 176/14/13
f 173/17/13 177/16/13 174/13/13
f 173/17/13 178/18/13 177/16/13
f 172/19/13 125/20/13 173/17/13
f 125/20/13 178/18/13 173/17/13
f 172/19/13 126/21/13 125/20/13
f 124/22/13 178/18/13 125/20/13
f 124/22/13 179/23/13 178/18/13
f 172/19/13 127/24/13 126/21/13
f 123/25/13 179/23/13 124/22/13
f 171/26/13 127/24/13 172/19/13
f 171/26/13 128/27/13 127/24/13
f 122/28/13 179/23/13 123/25/13
f 171/26/13 129/29/13 128/27/13
f 121/30/13 179/23/13 122/28/13
f 121/30/13 180/31/13 179/23/13
f 120/32/13 180/31/13 121/30/13
f 171/26/13 130/33/13 129/29/13
f 170/34/13 130/33/13 171/26/13
f 119/35/13 180/31/13 120/32/13
f 118/36/13 180/31/13 119/35/13
f 117/37/13 180/31/13 118/36/13
f 116/38/13 180/31/13 117/37/13
f 115/39/13 180/31/13 116/38/13
f 114/40/13 180/31/13 115/39/13
f 113/41/13 180/31/13 114/40/13
f 112/42/13 180/31/13 113/41/13
f 111/43/13 180/31/13 112/42/13
f 110/44/13 180/31/13 111/43/13
f 170/34/13 131/45/13 130/33/13
f 170/34/13 132/46/13 131/45/13
f 170/34/13 133/47/13 132/46/13
f 170/34/13 134/48/13 133/47/13
f 170/34/13 110/44/13 134/48/13
f 170/34/13 180/31/13 110/44/13
f 170/34/13 181/49/13 180/31/13
f 170/34/13 182/50/13 181/49/13
f 170/34/13 183/51/13 182/50/13
f 170/34/13 184/52/13 183/51/13
f 170/34/13 185/53/13 184/52/13
f 169/54/13 135/55/13 170/34/13
f 135/55/13 185/53/13 170/34/13
f 135/55/13 186/56/13 185/53/13
f 135/55/13 187/57/13 186/56/13
f 135/55/13 188/58/13 187/57/13
f 135/55/13 189/59/13 188/58/13
f 135/55/13 190/60/13 189/59/13
f 135/55/13 191/61/13 190/60/13
f 135/55/13 192/62/13 191/61/13
f 135/55/13 193/63/13 192/62/13
f 169/54/13 199/64/13 135/55/13
f 199/64/14 136/65/14 135/55/14
f 203/66/13 193/63/13 135/55/13
f 202/67/13 193/63/13 203/66/13
f 202/67/13 194/68/13 193/63/13
f 201/69/13 194/68/13 202/67/13
f 200/70/13 194/68/13 201/69/13
f 200/70/13 198/71/13 194/68/13
f 198/71/13 195/72/13 194/68/13
f 169/54/13 136/65/13 199/64/13
f 136/65/13 200/70/13 199/64/13
f 200/70/13 197/73/13 198/71/13
f 200/70/13 196/74/13 197/73/13
f 200/70/15 375/75/15 196/74/15
f 169/54/13 137/76/13 136/65/13
f 168/77/13 137/76/13 169/54/13
f 168/77/13 138/78/13 137/76/13
f 168/77/13 139/79/13 138/78/13
f 146/80/13 148/81/13 147/82/13
f 145/83/13 148/81/13 146/80/13
f 145/83/13 149/84/13 148/81/13
f 144/85/13 149/84/13 145/83/13
f 144/85/13 150/86/13 149/84/13
f 144/85/13 151/87/13 150/86/13
f 143/88/13 151/87/13 144/85/13
f 167/89/13 139/79/13 168/77/13
f 143/88/13 152/90/13 151/87/13
f 167/89/13 140/91/13 139/79/13
f 142/92/13 152/90/13 143/88/13
f 141/93/13 152/90/13 142/92/13
f 140/91/13 152/90/13 141/93/13
f 167/89/13 152/90/13 140/91/13
f 167/89/13 153/94/13 152/90/13
f 167/89/13 154/95/13 153/94/13
f 166/96/13 154/95/13 167/89/13
f 166/96/13 155/97/13 154/95/13
f 166/96/13 156/98/13 155/97/13
f 166/96/13 157/99/13 156/98/13
f 166/96/13 158/100/13 157/99/13
f 166/96/13 159/101/13 158/100/13
f 166/96/13 160/102/13 159/101/13
f 166/96/13 161/103/13 160/102/13
f 166/96/13 162/104/13 161/103/13
f 165/105/13 162/104/13 166/96/13
f 165/105/13 163/106/13 162/104/13
f 165/105/13 164/107/13 163/106/13
f 72/108/13 74/109/13 73/110/13
f 72/108/13 75/111/13 74/109/13
f 72/108/13 76/112/13 75/111/13
f 72/108/13 77/113/13 76/112/13
f 72/108/13 78/114/13 77/113/13
f 72/108/13 79/115/13 78/114/13
f 72/108/13 80/116/13 79/115/13
f 71/117/13 80/116/13 72/108/13
f 71/117/13 81/118/13 80/116/13
f 70/119/13 81/118/13 71/117/13
f 70/119/13 82/120/13 81/118/13
f 69/121/13 82/120/13 70/119/13
f 69/121/13 83/122/13 82/120/13
f 68/123/13 83/122/13 69/121/13
f 67/124/13 83/122/13 68/123/13
f 67/124/13 84/125/13 83/122/13
f 66/126/13 84/125/13 67/124/13
f 65/127/13 84/125/13 66/126/13
f 64/128/13 84/125/13 65/127/13
f 63/129/13 84/125/13 64/128/13
f 62/130/13 84/125/13 63/129/13
f 62/130/13 33/131/13 84/125/13
f 33/132/13 32/133/13 84/125/13
f 32/133/13 31/134/13 84/125/13
f 31/134/13 30/135/13 84/125/13
f 30/136/13 85/137/13 84/125/13
f 62/130/13 34/138/13 33/131/13
f 29/139/13 85/137/13 30/136/13
f 61/140/13 34/138/13 62/130/13
f 61/140/13 35/141/13 34/138/13
f 28/142/13 85/137/13 29/139/13
f 61/140/13 36/143/13 35/141/13
f 27/144/13 85/137/13 28/142/13
f 27/144/13 86/145/13 85/137/13
f 61/140/13 37/146/13 36/143/13
f 60/147/13 37/146/13 61/140/13
f 26/148/13 86/145/13 27/144/13
f 60/147/13 38/149/13 37/146/13
f 25/150/13 86/145/13 26/148/13
f 60/147/13 39/151/13 38/149/13
f 60/147/13 40/152/13 39/151/13
f 60/147/13 41/153/13 40/152/13
f 60/147/13 42/154/13 41/153/13
f 60/147/13 25/150/13 42/154/13
f 60/147/13 86/145/13 25/150/13
f 60/147/13 108/155/13 86/145/13
f 108/155/13 87/156/13 86/145/13
f 59/157/13 109/158/13 60/147/13
f 109/158/13 108/155/13 60/147/13
f 59/157/13 43/159/13 109/158/13
f 107/160/13 87/156/13 108/155/13
f 106/161/13 87/156/13 107/160/13
f 105/162/13 87/156/13 106/161/13
f 105/162/13 88/163/13 87/156/13
f 58/164/13 43/159/13 59/157/13
f 104/165/13 88/163/13 105/162/13
f 103/166/13 88/163/13 104/165/13
f 57/167/13 43/159/13 58/164/13
f 103/166/13 89/168/13 88/163/13
f 57/167/13 44/169/13 43/159/13
f 102/170/13 89/168/13 103/166/13
f 56/171/13 44/169/13 57/167/13
f 102/170/13 90/172/13 89/168/13
f 56/171/13 45/173/13 44/169/13
f 101/174/13 90/172/13 102/170/13
f 101/174/13 91/175/13 90/172/13
f 55/176/13 45/173/13 56/171/13
f 55/176/13 46/177/13 45/173/13
f 100/178/13 91/175/13 101/174/13
f 100/178/13 92/179/13 91/175/13
f 54/180/13 46/177/13 55/176/13
f 54/180/13 47/181/13 46/177/13
f 99/182/13 92/179/13 100/178/13
f 99/182/13 93/183/13 92/179/13
f 53/184/13 47/181/13 54/180/13
f 53/184/13 48/185/13 47/181/13
f 98/186/13 93/183/13 99/182/13
f 52/187/13 48/185/13 53/184/13
f 51/188/13 48/185/13 52/187/13
f 50/189/13 48/185/13 51/188/13
f 49/190/13 48/185/13 50/189/13
f 97/191/13 93/183/13 98/186/13
f 96/192/13 93/183/13 97/191/13
f 95/193/13 93/183/13 96/192/13
f 94/194/13 93/183/13 95/193/13
f 353/13/16 354/15/16 355/14/16
f 353/13/16 355/14/16 356/16/16
f 352/17/16 353/13/16 356/16/16
f 352/17/16 356/16/16 357/18/16
f 351/19/16 352/17/16 304/20/16
f 304/20/16 352/17/16 357/18/16
f 351/19/16 304/20/16 305/21/16
f 303/22/16 304/20/16 357/18/16
f 303/22/16 357/18/16 358/23/16
f 351/19/16 305/21/16 306/24/16
f 302/25/16 303/22/16 358/23/16
f 350/26/16 351/19/16 306/24/16
f 350/26/16 306/24/16 307/27/16
f 301/28/16 302/25/16 358/23/16
f 350/26/16 307/27/16 308/29/16
f 300/30/16 301/28/16 358/23/16
f 300/30/16 358/23/16 359/31/16
f 299/32/16 300/30/16 359/31/16
f 350/26/16 308/29/16 309/33/16
f 349/34/16 350/26/16 309/33/16
f 298/35/16 299/32/16 359/31/16
f 297/36/16 298/35/16 359/31/16
f 296/37/16 297/36/16 359/31/16
f 295/38/16 296/37/16 359/31/16
f 294/39/16 295/38/16 359/31/16
f 293/40/16 294/39/16 359/31/16
f 292/41/16 293/40/16 359/31/16
f 291/42/16 292/41/16 359/31/16
f 290/43/16 291/42/16 359/31/16
f 289/44/16 290/43/16 359/31/16
f 349/34/16 309/33/16 310/45/16
f 349/34/16 310/45/16 311/46/16
f 349/34/16 311/46/16 312/47/16
f 349/34/16 312/47/16 313/48/16
f 349/34/16 313/48/16 289/44/16
f 349/34/16 289/44/16 359/31/16
f 349/34/16 359/31/16 360/49/16
f 349/34/16 360/49/16 361/50/16
f 349/34/16 361/50/16 362/51/16
f 349/34/16 362/51/16 363/52/16
f 349/34/16 363/52/16 364/53/16
f 348/54/16 349/34/16 314/55/16
f 314/55/16 349/34/16 364/53/16
f 314/55/16 364/53/16 365/56/16
f 314/55/16 365/56/16 366/57/16
f 314/55/16 366/57/16 367/58/16
f 314/55/16 367/58/16 368/59/16
f 314/55/16 368/59/16 369/60/16
f 314/55/16 369/60/16 370/61/16
f 314/55/16 370/61/16 371/62/16
f 314/55/16 371/62/16 372/63/16
f 348/54/16 314/55/16 379/64/16
f 379/64/17 314/55/17 315/65/17
f 383/66/16 314/55/16 372/63/16
f 382/67/16 383/66/16 372/63/16
f 382/67/16 372/63/16 373/68/16
f 381/69/16 382/67/16 373/68/16
f 380/70/16 381/69/16 373/68/16
f 380/70/16 373/68/16 378/71/16
f 378/71/16 373/68/16 374/72/16
f 348/54/16 379/64/16 315/65/16
f 315/65/16 379/64/16 380/70/16
f 380/70/16 378/71/16 377/73/16
f 380/70/16 377/73/16 376/74/16
f 380/70/15 376/74/15 375/75/15
f 348/54/16 315/65/16 316/76/16
f 347/77/16 348/54/16 316/76/16
f 347/77/16 316/76/16 317/78/16
f 347/77/16 317/78/16 318/79/16
f 325/80/16 326/82/16 327/81/16
f 324/83/16 325/80/16 327/81/16
f 324/83/16 327/81/16 328/84/16
f 323/85/16 324/83/16 328/84/16
f 323/85/16 328/84/16 329/86/16
f 323/85/16 329/86/16 330/87/16
f 322/88/16 323/85/16 330/87/16
f 346/89/16 347/77/16 318/79/16
f 322/88/16 330/87/16 331/90/16
f 346/89/16 318/79/16 319/91/16
f 321/92/16 322/88/16 331/90/16
f 320/93/16 321/92/16 331/90/16
f 319/91/16 320/93/16 331/90/16
f 346/89/16 319/91/16 331/90/16
f 346/89/16 331/90/16 332/94/16
f 346/89/16 332/94/16 333/95/16
f 345/96/16 346/89/16 333/95/16
f 345/96/16 333/95/16 334/97/16
f 345/96/16 334/97/16 335/98/16
f 345/96/16 335/98/16 336/99/16
f 345/96/16 336/99/16 337/100/16
f 345/96/16 337/100/16 338/101/16
f 345/96/16 338/101/16 339/102/16
f 345/96/16 339/102/16 340/103/16
f 345/96/16 340/103/16 341/104/16
f 344/105/16 345/96/16 341/104/16
f 344/105/16 341/104/16 342/106/16
f 344/105/16 342/106/16 343/107/16
f 252/108/16 253/110/16 254/109/16
f 252/108/16 254/109/16 255/111/16
f 252/108/16 255/111/16 256/112/16
f 252/108/16 256/112/16 257/113/16
f 252/108/16 257/113/16 258/114/16
f 252/108/16 258/114/16 259/115/16
f 252/108/16 259/115/16 260/116/16
f 251/117/16 252/108/16 260/116/16
f 251/117/16 260/116/16 261/118/16
f 250/119/16 251/117/16 261/118/16
f 250/119/16 261/118/16 262/120/16
f 249/121/16 250/119/16 262/120/16
f 249/121/16 262/120/16 263/122/16
f 248/123/16 249/121/16 263/122/16
f 247/124/16 248/123/16 263/122/16
f 247/124/16 263/122/16 264/125/16
f 246/126/16 247/124/16 264/125/16
f 245/127/16 246/126/16 264/125/16
f 244/128/16 245/127/16 264/125/16
f 243/129/16 244/128/16 264/125/16
f 242/130/16 243/129/16 264/125/16
f 242/130/16 264/125/16 212/131/16
f 212/132/16 264/125/16 211/133/16
f 211/133/16 264/125/16 210/134/16
f 210/134/16 264/125/16 209/135/16
f 209/136/16 264/125/16 265/137/16
f 242/130/16 212/131/16 213/138/16
f 208/139/16 209/136/16 265/137/16
f 241/140/16 242/130/16 213/138/16
f 241/140/16 213/138/16 214/141/16
f 207/142/16 208/139/16 265/137/16
f 241/140/16 214/141/16 215/143/16
f 206/144/16 207/142/16 265/137/16
f 206/144/16 265/137/16 266/145/16
f 241/140/16 215/143/16 216/146/16
f 240/147/16 241/140/16 216/146/16
f 205/148/16 206/144/16 266/145/16
f 240/147/16 216/146/16 217/149/16
f 204/150/16 205/148/16 266/145/16
f 240/147/16 217/149/16 218/151/16
f 240/147/16 218/151/16 219/152/16
f 240/147/16 219/152/16 220/153/16
f 240/147/16 220/153/16 221/154/16
f 240/147/16 221/154/16 204/150/16
f 240/147/16 204/150/16 266/145/16
f 240/147/16 266/145/16 288/155/16
f 288/155/16 266/145/16 267/156/16
f 239/157/16 240/147/16 222/158/16
f 222/158/16 240/147/16 288/155/16
f 239/157/16 222/158/16 223/159/16
f 287/160/16 288/155/16 267/156/16
f 286/161/16 287/160/16 267/156/16
f 285/162/16 286/161/16 267/156/16
f 285/162/16 267/156/16 268/163/16
f 238/164/16 239/157/16 223/159/16
f 284/165/16 285/162/16 268/163/16
f 283/166/16 284/165/16 268/163/16
f 237/167/16 238/164/16 223/159/16
f 283/166/16 268/163/16 269/168/16
f 237/167/16 223/159/16 224/169/16
f 282/170/16 283/166/16 269/168/16
f 236/171/16 237/167/16 224/169/16
f 282/170/16 269/168/16 270/172/16
f 236/171/16 224/169/16 225/173/16
f 281/174/16 282/170/16 270/172/16
f 281/174/16 270/172/16 271/175/16
f 235/176/16 236/171/16 225/173/16
f 235/176/16 225/173/16 226/177/16
f 280/178/16 281/174/16 271/175/16
f 280/178/16 271/175/16 272/179/16
f 234/180/16 235/176/16 226/177/16
f 234/180/16 226/177/16 227/181/16
f 279/182/16 280/178/16 272/179/16
f 279/182/16 272/179/16 273/183/16
f 233/184/16 234/180/16 227/181/16
f 233/184/16 227/181/16 228/185/16
f 278/186/16 279/182/16 273/183/16
f 232/187/13 233/184/13 228/185/13
f 231/188/13 232/187/13 228/185/13
f 230/189/13 231/188/13 228/185/13
f 229/190/13 230/189/13 228/185/13
f 277/191/13 278/186/13 273/183/13
f 276/192/13 277/191/13 273/183/13
f 275/193/13 276/192/13 273/183/13
f 274/194/13 275/193/13 273/183/13
f 26/148/18 204/150/18 25/150/18
f 30/136/19 208/139/19 29/139/19
f 33/132/20 211/133/20 32/133/20
f 36/143/21 214/141/21 35/141/21
f 40/152/22 218/151/22 39/151/22
f 25/150/22 221/154/22 42/154/22
f 109/158/23 223/159/23 222/158/23
f 47/181/24 226/177/24 46/177/24
f 84/125/25 263/122/25 83/122/25
f 63/129/26 242/130/26 62/130/26
f 183/51/27 361/50/27 182/50/27
f 67/124/28 246/126/28 66/126/28
f 71/117/29 250/119/29 70/119/29
f 75/111/22 254/109/22 74/109/22
f 79/115/30 258/114/30 78/114/30
f 83/122/31 262/120/31 82/120/31
f 87/156/25 266/145/25 86/145/25
f 91/175/32 270/172/32 90/172/32
f 95/193/20 274/194/20 94/194/20
f 55/176/33 234/180/33 54/180/33
f 99/182/34 278/186/34 98/186/34
f 103/166/35 282/170/35 102/170/35
f 107/160/36 286/161/36 106/161/36
f 111/43/37 289/44/37 110/44/37
f 115/39/38 293/40/38 114/40/38
f 119/35/39 297/36/39 118/36/39
f 123/25/40 301/28/40 122/28/40
f 168/77/41 346/89/41 167/89/41
f 127/24/42 305/21/42 126/21/42
f 131/45/22 309/33/22 130/33/22
f 110/44/22 313/48/22 134/48/22
f 139/79/43 317/78/43 138/78/43
f 143/88/44 321/92/44 142/92/44
f 147/82/45 325/80/45 146/80/45
f 151/87/46 329/86/46 150/86/46
f 155/97/46 333/95/46 154/95/46
f 159/101/47 337/100/47 158/100/47
f 163/106/48 341/104/48 162/104/48
f 175/15/49 353/13/49 174/13/49
f 179/23/50 357/18/50 178/18/50
f 187/57/51 365/56/51 186/56/51
f 191/61/52 369/60/52 190/60/52
f 195/72/53 373/68/53 194/68/53
f 77/113/22 256/112/22 76/112/22
f 100/178/54 279/182/54 99/182/54
f 197/73/22 378/71/22 198/71/22
f 62/130/26 241/140/26 61/140/26
f 37/146/55 215/143/55 36/143/55
f 41/153/22 219/152/22 40/152/22
f 44/169/56 223/159/56 43/159/56
f 48/185/57 227/181/57 47/181/57
f 52/187/20 231/188/20 51/188/20
f 56/171/58 235/176/58 55/176/58
f 64/128/59 243/129/59 63/129/59
f 68/123/60 247/124/60 67/124/60
f 202/67/61 381/69/61 201/69/61
f 72/108/62 251/117/62 71/117/62
f 76/112/22 255/111/22 75/111/22
f 80/116/63 259/115/63 79/115/63
f 88/163/25 267/156/25 87/156/25
f 92/179/64 271/175/64 91/175/64
f 96/192/20 275/193/20 95/193/20
f 59/157/26 238/164/26 58/164/26
f 104/165/36 283/166/36 103/166/36
f 108/155/36 287/160/36 107/160/36
f 112/42/65 290/43/65 111/43/65
f 116/38/66 294/39/66 115/39/66
f 27/144/67 205/148/67 26/148/67
f 120/32/68 298/35/68 119/35/68
f 124/22/69 302/25/69 123/25/69
f 128/27/70 306/24/70 127/24/70
f 188/58/71 366/57/71 187/57/71
f 132/46/22 310/45/22 131/45/22
f 136/65/72 314/55/72 135/55/72
f 169/54/73 347/77/73 168/77/73
f 140/91/74 318/79/74 139/79/74
f 144/85/75 322/88/75 143/88/75
f 148/81/76 326/82/76 147/82/76
f 156/98/77 334/97/77 155/97/77
f 160/102/78 338/101/78 159/101/78
f 164/107/79 342/106/79 163/106/79
f 176/14/80 354/15/80 175/15/80
f 180/31/81 358/23/81 179/23/81
f 192/62/82 370/61/82 191/61/82
f 184/52/83 362/51/83 183/51/83
f 198/71/20 374/72/20 195/72/20
f 135/55/84 383/66/84 203/66/84
f 53/184/20 232/187/20 52/187/20
f 28/142/85 206/144/85 27/144/85
f 31/134/20 209/135/20 30/135/20
f 34/138/86 212/131/86 33/131/86
f 38/149/87 216/146/87 37/146/87
f 42/154/22 220/153/22 41/153/22
f 152/90/46 330/87/46 151/87/46
f 45/173/88 224/169/88 44/169/88
f 162/104/89 340/103/89 161/103/89
f 49/190/20 228/185/20 48/185/20
f 65/127/90 244/128/90 64/128/90
f 69/121/91 248/123/91 68/123/91
f 73/110/92 252/108/92 72/108/92
f 81/118/93 260/116/93 80/116/93
f 203/66/94 382/67/94 202/67/94
f 85/137/25 264/125/25 84/125/25
f 89/168/95 268/163/95 88/163/95
f 93/183/96 272/179/96 92/179/96
f 97/191/20 276/192/20 96/192/20
f 166/96/97 344/105/97 165/105/97
f 101/174/98 280/178/98 100/178/98
f 109/195/20 288/155/20 108/155/20
f 113/41/99 291/42/99 112/42/99
f 117/37/100 295/38/100 116/38/100
f 121/30/101 299/32/101 120/32/101
f 125/20/102 303/22/102 124/22/102
f 129/29/103 307/27/103 128/27/103
f 133/47/22 311/46/22 132/46/22
f 137/76/104 315/65/104 136/65/104
f 141/93/105 319/91/105 140/91/105
f 145/83/106 323/85/106 144/85/106
f 149/84/107 327/81/107 148/81/107
f 170/34/108 348/54/108 169/54/108
f 153/94/46 331/90/46 152/90/46
f 157/99/109 335/98/109 156/98/109
f 161/103/110 339/102/110 160/102/110
f 165/105/111 343/107/111 164/107/111
f 173/17/112 351/19/112 172/19/112
f 177/16/113 355/14/113 176/14/113
f 181/49/114 359/31/114 180/31/114
f 185/53/115 363/52/115 184/52/115
f 189/59/116 367/58/116 188/58/116
f 193/63/117 371/62/117 192/62/117
f 196/74/22 375/75/22 376/74/22
f 136/65/118 380/70/118 200/70/118
f 98/186/20 277/191/20 97/191/20
f 60/147/26 239/157/26 59/157/26
f 178/18/119 356/16/119 177/16/119
f 375/75/15 200/70/15 380/70/15
f 29/139/120 207/142/120 28/142/120
f 32/133/20 210/134/20 31/134/20
f 102/170/121 281/174/121 101/174/121
f 35/141/122 213/138/122 34/138/122
f 105/162/36 284/165/36 104/165/36
f 39/151/22 217/149/22 38/149/22
f 200/70/123 379/64/123 199/64/123
f 46/177/124 225/173/124 45/173/124
f 50/189/20 229/190/20 49/190/20
f 54/180/125 233/184/125 53/184/125
f 58/164/126 237/167/126 57/167/126
f 66/126/127 245/127/127 65/127/127
f 172/19/128 350/26/128 171/26/128
f 70/119/129 249/121/129 69/121/129
f 74/109/22 253/110/22 73/110/22
f 78/114/22 257/113/22 77/113/22
f 82/120/130 261/118/130 81/118/130
f 86/145/25 265/137/25 85/137/25
f 51/188/20 230/189/20 50/189/20
f 90/172/131 269/168/131 89/168/131
f 94/194/20 273/183/20 93/183/20
f 106/161/36 285/162/36 105/162/36
f 167/89/132 345/96/132 166/96/132
f 114/40/133 292/41/133 113/41/133
f 118/36/134 296/37/134 117/37/134
f 122/28/135 300/30/135 121/30/135
f 126/21/136 304/20/136 125/20/136
f 130/33/137 308/29/137 129/29/137
f 134/48/22 312/47/22 133/47/22
f 138/78/138 316/76/138 137/76/138
f 142/92/139 320/93/139 141/93/139
f 146/80/140 324/83/140 145/83/140
f 150/86/141 328/84/141 149/84/141
f 154/95/46 332/94/46 153/94/46
f 158/100/142 336/99/142 157/99/142
f 171/26/143 349/34/143 170/34/143
f 174/13/144 352/17/144 173/17/144
f 182/50/145 360/49/145 181/49/145
f 186/56/146 364/53/146 185/53/146
f 190/60/147 368/59/147 189/59/147
f 194/68/148 372/63/148 193/63/148
f 196/74/22 377/73/22 197/73/22
f 201/69/149 380/70/149 200/70/149
f 57/167/150 236/171/150 56/171/150
f 61/140/26 240/147/26 60/147/26
f 26/148/18 205/148/18 204/150/18
f 30/136/19 209/136/19 208/139/19
f 33/132/20 212/132/20 211/133/20
f 36/143/21 215/143/21 214/141/21
f 40/152/22 219/152/22 218/151/22
f 25/150/22 204/150/22 221/154/22
f 109/158/23 43/159/23 223/159/23
f 47/181/24 227/181/24 226/177/24
f 84/125/25 264/125/25 263/122/25
f 63/129/26 243/129/26 242/130/26
f 183/51/27 362/51/27 361/50/27
f 67/124/28 247/124/28 246/126/28
f 71/117/29 251/117/29 250/119/29
f 75/111/22 255/111/22 254/109/22
f 79/115/30 259/115/30 258/114/30
f 83/122/31 263/122/31 262/120/31
f 87/156/25 267/156/25 266/145/25
f 91/175/32 271/175/32 270/172/32
f 95/193/20 275/193/20 274/194/20
f 55/176/33 235/176/33 234/180/33
f 99/182/34 279/182/34 278/186/34
f 103/166/35 283/166/35 282/170/35
f 107/160/36 287/160/36 286/161/36
f 111/43/37 290/43/37 289/44/37
f 115/39/38 294/39/38 293/40/38
f 119/35/39 298/35/39 297/36/39
f 123/25/40 302/25/40 301/28/40
f 168/77/41 347/77/41 346/89/41
f 127/24/42 306/24/42 305/21/42
f 131/45/22 310/45/22 309/33/22
f 110/44/22 289/44/22 313/48/22
f 139/79/43 318/79/43 317/78/43
f 143/88/44 322/88/44 321/92/44
f 147/82/45 326/82/45 325/80/45
f 151/87/46 330/87/46 329/86/46
f 155/97/46 334/97/46 333/95/46
f 159/101/47 338/101/47 337/100/47
f 163/106/48 342/106/48 341/104/48
f 175/15/49 354/15/49 353/13/49
f 179/23/50 358/23/50 357/18/50
f 187/57/51 366/57/51 365/56/51
f 191/61/52 370/61/52 369/60/52
f 195/72/53 374/72/53 373/68/53
f 77/113/22 257/113/22 256/112/22
f 100/178/54 280/178/54 279/182/54
f 197/73/22 377/73/22 378/71/22
f 62/130/26 242/130/26 241/140/26
f 37/146/55 216/146/55 215/143/55
f 41/153/22 220/153/22 219/152/22
f 44/169/56 224/169/56 223/159/56
f 48/185/57 228/185/57 227/181/57
f 52/187/20 232/187/20 231/188/20
f 56/171/58 236/171/58 235/176/58
f 64/128/59 244/128/59 243/129/59
f 68/123/60 248/123/60 247/124/60
f 202/67/61 382/67/61 381/69/61
f 72/108/62 252/108/62 251/117/62
f 76/112/22 256/112/22 255/111/22
f 80/116/63 260/116/63 259/115/63
f 88/163/25 268/163/25 267/156/25
f 92/179/64 272/179/64 271/175/64
f 96/192/20 276/192/20 275/193/20
f 59/157/26 239/157/26 238/164/26
f 104/165/36 284/165/36 283/166/36
f 108/155/36 288/155/36 287/160/36
f 112/42/65 291/42/65 290/43/65
f 116/38/151 295/38/151 294/39/151
f 27/144/67 206/144/67 205/148/67
f 120/32/68 299/32/68 298/35/68
f 124/22/69 303/22/69 302/25/69
f 128/27/70 307/27/70 306/24/70
f 188/58/71 367/58/71 366/57/71
f 132/46/22 311/46/22 310/45/22
f 136/65/72 315/65/72 314/55/72
f 169/54/73 348/54/73 347/77/73
f 140/91/74 319/91/74 318/79/74
f 144/85/75 323/85/75 322/88/75
f 148/81/76 327/81/76 326/82/76
f 156/98/77 335/98/77 334/97/77
f 160/102/78 339/102/78 338/101/78
f 164/107/79 343/107/79 342/106/79
f 176/14/80 355/14/80 354/15/80
f 180/31/81 359/31/81 358/23/81
f 192/62/82 371/62/82 370/61/82
f 184/52/83 363/52/83 362/51/83
f 198/71/20 378/71/20 374/72/20
f 135/55/84 314/55/84 383/66/84
f 53/184/20 233/184/20 232/187/20
f 28/142/85 207/142/85 206/144/85
f 31/134/20 210/134/20 209/135/20
f 34/138/86 213/138/86 212/131/86
f 38/149/87 217/149/87 216/146/87
f 42/154/22 221/154/22 220/153/22
f 152/90/46 331/90/46 330/87/46
f 45/173/152 225/173/152 224/169/152
f 162/104/89 341/104/89 340/103/89
f 49/190/20 229/190/20 228/185/20
f 65/127/90 245/127/90 244/128/90
f 69/121/91 249/121/91 248/123/91
f 73/110/92 253/110/92 252/108/92
f 81/118/93 261/118/93 260/116/93
f 203/66/94 383/66/94 382/67/94
f 85/137/25 265/137/25 264/125/25
f 89/168/95 269/168/95 268/163/95
f 93/183/96 273/183/96 272/179/96
f 97/191/20 277/191/20 276/192/20
f 166/96/97 345/96/97 344/105/97
f 101/174/98 281/174/98 280/178/98
f 109/195/20 222/195/20 288/155/20
f 113/41/99 292/41/99 291/42/99
f 117/37/100 296/37/100 295/38/100
f 121/30/101 300/30/101 299/32/101
f 125/20/102 304/20/102 303/22/102
f 129/29/103 308/29/103 307/27/103
f 133/47/22 312/47/22 311/46/22
f 137/76/104 316/76/104 315/65/104
f 141/93/105 320/93/105 319/91/105
f 145/83/106 324/83/106 323/85/106
f 149/84/107 328/84/107 327/81/107
f 170/34/108 349/34/108 348/54/108
f 153/94/46 332/94/46 331/90/46
f 157/99/109 336/99/109 335/98/109
f 161/103/110 340/103/110 339/102/110
f 165/105/111 344/105/111 343/107/111
f 173/17/112 352/17/112 351/19/112
f 177/16/113 356/16/113 355/14/113
f 181/49/114 360/49/114 359/31/114
f 185/53/115 364/53/115 363/52/115
f 189/59/116 368/59/116 367/58/116
f 193/63/117 372/63/117 371/62/117
f 136/65/118 315/65/118 380/70/118
f 98/186/20 278/186/20 277/191/20
f 60/147/26 240/147/26 239/157/26
f 178/18/119 357/18/119 356/16/119
f 29/139/120 208/139/120 207/142/120
f 32/133/20 211/133/20 210/134/20
f 102/170/121 282/170/121 281/174/121
f 35/141/122 214/141/122 213/138/122
f 105/162/36 285/162/36 284/165/36
f 39/151/22 218/151/22 217/149/22
f 200/70/123 380/70/123 379/64/123
f 46/177/124 226/177/124 225/173/124
f 50/189/20 230/189/20 229/190/20
f 54/180/125 234/180/125 233/184/125
f 58/164/126 238/164/126 237/167/126
f 66/126/127 246/126/127 245/127/127
f 172/19/128 351/19/128 350/26/128
f 70/119/129 250/119/129 249/121/129
f 74/109/22 254/109/22 253/110/22
f 78/114/22 258/114/22 257/113/22
f 82/120/153 262/120/153 261/118/153
f 86/145/25 266/145/25 265/137/25
f 51/188/20 231/188/20 230/189/20
f 90/172/131 270/172/131 269/168/131
f 94/194/20 274/194/20 273/183/20
f 106/161/36 286/161/36 285/162/36
f 167/89/132 346/89/132 345/96/132
f 114/40/133 293/40/133 292/41/133
f 118/36/154 297/36/154 296/37/154
f 122/28/135 301/28/135 300/30/135
f 126/21/136 305/21/136 304/20/136
f 130/33/137 309/33/137 308/29/137
f 134/48/22 313/48/22 312/47/22
f 138/78/138 317/78/138 316/76/138
f 142/92/139 321/92/139 320/93/139
f 146/80/140 325/80/140 324/83/140
f 150/86/141 329/86/141 328/84/141
f 154/95/46 333/95/46 332/94/46
f 158/100/155 337/100/155 336/99/155
f 171/26/143 350/26/143 349/34/143
f 174/13/144 353/13/144 352/17/144
f 182/50/145 361/50/145 360/49/145
f 186/56/146 365/56/146 364/53/146
f 190/60/147 369/60/147 368/59/147
f 194/68/148 373/68/148 372/63/148
f 196/74/22 376/74/22 377/73/22
f 201/69/156 381/69/156 380/70/156
f 57/167/157 237/167/157 236/171/157
f 61/140/26 241/140/26 240/147/26
