# Blender 4.1.1 Goo Engine
# www.blender.org
mtllib animate.mtl
o Animate_Base
v 0.244439 0.758039 0.534849
v 0.755561 0.758039 0.534849
v 0.755561 0.246918 0.534849
v 0.244439 0.246918 0.534849
v 0.244439 0.758039 0.465151
v 0.755561 0.758039 0.465151
v 0.755561 0.246918 0.465151
v 0.244439 0.246918 0.465151
vn -0.0000 -0.0000 1.0000
vn -0.0000 -0.0000 -1.0000
vn -1.0000 -0.0000 -0.0000
vn -0.0000 1.0000 -0.0000
vn 1.0000 -0.0000 -0.0000
vn -0.0000 -1.0000 -0.0000
vt 1.000000 0.000000
vt 0.333333 0.000000
vt 0.000000 0.000000
vt 0.666667 0.000000
s 0
g Animate_Base_AnimateBase
usemtl AnimateBase
f 4/1/1 2/2/1 1/3/1
f 4/1/1 3/4/1 2/2/1
f 8/1/2 5/3/2 6/2/2
f 8/1/2 6/2/2 7/4/2
f 1/3/3 8/1/3 4/1/3
f 2/2/4 5/3/4 1/3/4
f 3/4/5 6/2/5 2/2/5
f 4/1/6 7/4/6 3/4/6
f 1/3/3 5/3/3 8/1/3
f 2/2/4 6/2/4 5/3/4
f 3/4/5 7/4/5 6/2/5
f 4/1/6 8/1/6 7/4/6
o Animate_Border
v 0.221205 0.780622 0.527880
v 0.778793 0.780622 0.527880
v 0.778793 0.223034 0.527880
v 0.221205 0.223034 0.527880
v 0.221205 0.780622 0.472122
v 0.778793 0.780622 0.472122
v 0.778793 0.223034 0.472122
v 0.221205 0.223034 0.472122
vn -0.0000 -0.0000 1.0000
vn -0.0000 -0.0000 -1.0000
vn -1.0000 -0.0000 -0.0000
vn -0.0000 1.0000 -0.0000
vn 1.0000 -0.0000 -0.0000
vn -0.0000 -1.0000 -0.0000
vt 1.000000 0.000000
vt 0.333333 0.000000
vt 0.000000 0.000000
vt 0.666667 0.000000
s 0
g Animate_Border_AnimateBorder
usemtl AnimateBorder
f 12/5/7 10/6/7 9/7/7
f 12/5/7 11/8/7 10/6/7
f 16/5/8 13/7/8 14/6/8
f 16/5/8 14/6/8 15/8/8
f 9/7/9 16/5/9 12/5/9
f 10/6/10 13/7/10 9/7/10
f 11/8/11 14/6/11 10/6/11
f 12/5/12 15/8/12 11/8/12
f 9/7/9 13/7/9 16/5/9
f 10/6/10 14/6/10 13/7/10
f 11/8/11 15/8/11 14/6/11
f 12/5/12 16/5/12 15/8/12
o Animate_Text
v 0.535987 0.537746 0.539497
v 0.535841 0.545521 0.539497
v 0.534826 0.561651 0.539497
v 0.535261 0.563305 0.539497
v 0.536915 0.564436 0.539497
v 0.570053 0.574793 0.539497
v 0.608414 0.579754 0.539497
v 0.654928 0.566380 0.539497
v 0.676894 0.511056 0.539497
v 0.676894 0.450713 0.539497
v 0.676894 0.390370 0.539497
v 0.676285 0.387991 0.539497
v 0.674109 0.387352 0.539497
v 0.656698 0.387352 0.539497
v 0.639288 0.387352 0.539497
v 0.636908 0.388165 0.539497
v 0.636270 0.390370 0.539497
v 0.636270 0.449088 0.539497
v 0.636270 0.507806 0.539497
v 0.629451 0.533452 0.539497
v 0.605396 0.542388 0.539497
v 0.591061 0.541169 0.539497
v 0.579164 0.538210 0.539497
v 0.579164 0.464058 0.539497
v 0.579164 0.389905 0.539497
v 0.578613 0.387904 0.539497
v 0.576843 0.387120 0.539497
v 0.557924 0.387120 0.539497
v 0.539004 0.387120 0.539497
v 0.536915 0.387730 0.539497
v 0.536219 0.389905 0.539497
v 0.536219 0.463826 0.539497
v 0.536219 0.537746 0.539497
v 0.536103 0.537746 0.539497
v 0.376740 0.458836 0.539497
v 0.358169 0.389441 0.539497
v 0.357124 0.387701 0.539497
v 0.354687 0.387352 0.539497
v 0.337625 0.387352 0.539497
v 0.320563 0.387352 0.539497
v 0.318357 0.388049 0.539497
v 0.318241 0.390834 0.539497
v 0.351321 0.506414 0.539497
v 0.384401 0.621994 0.539497
v 0.385822 0.628377 0.539497
v 0.386722 0.640329 0.539497
v 0.387215 0.642099 0.539497
v 0.388579 0.642650 0.539497
v 0.412954 0.642650 0.539497
v 0.437328 0.642650 0.539497
v 0.439156 0.642186 0.539497
v 0.440114 0.640329 0.539497
v 0.477140 0.515349 0.539497
v 0.514166 0.390370 0.539497
v 0.514108 0.388165 0.539497
v 0.512309 0.387352 0.539497
v 0.493157 0.387352 0.539497
v 0.474006 0.387352 0.539497
v 0.471742 0.387643 0.539497
v 0.470524 0.388977 0.539497
v 0.460890 0.423906 0.539497
v 0.451256 0.458836 0.539497
v 0.441507 0.497130 0.539497
v 0.427433 0.551062 0.539497
v 0.413882 0.606212 0.539497
v 0.413650 0.606212 0.539497
v 0.413418 0.606212 0.539497
v 0.401782 0.555066 0.539497
v 0.386490 0.497130 0.539497
v 0.413998 0.497130 0.539497
v 0.535987 0.537746 0.460505
v 0.535841 0.545521 0.460505
v 0.534826 0.561651 0.460505
v 0.535261 0.563305 0.460505
v 0.536915 0.564436 0.460505
v 0.570053 0.574793 0.460505
v 0.608414 0.579754 0.460505
v 0.654928 0.566380 0.460505
v 0.676894 0.511056 0.460505
v 0.676894 0.450713 0.460505
v 0.676894 0.390370 0.460505
v 0.676285 0.387991 0.460505
v 0.674109 0.387352 0.460505
v 0.656698 0.387352 0.460505
v 0.639288 0.387352 0.460505
v 0.636908 0.388165 0.460505
v 0.636270 0.390370 0.460505
v 0.636270 0.449088 0.460505
v 0.636270 0.507806 0.460505
v 0.629451 0.533452 0.460505
v 0.605396 0.542388 0.460505
v 0.591061 0.541169 0.460505
v 0.579164 0.538210 0.460505
v 0.579164 0.464058 0.460505
v 0.579164 0.389905 0.460505
v 0.578613 0.387904 0.460505
v 0.576843 0.387120 0.460505
v 0.557924 0.387120 0.460505
v 0.539004 0.387120 0.460505
v 0.536915 0.387730 0.460505
v 0.536219 0.389905 0.460505
v 0.536219 0.463826 0.460505
v 0.536219 0.537746 0.460505
v 0.536103 0.537746 0.460505
v 0.376740 0.458836 0.460505
v 0.358169 0.389441 0.460505
v 0.357124 0.387701 0.460505
v 0.354687 0.387352 0.460505
v 0.337625 0.387352 0.460505
v 0.320563 0.387352 0.460505
v 0.318357 0.388049 0.460505
v 0.318241 0.390834 0.460505
v 0.351321 0.506414 0.460505
v 0.384401 0.621994 0.460505
v 0.385822 0.628377 0.460505
v 0.386722 0.640329 0.460505
v 0.387215 0.642099 0.460505
v 0.388579 0.642650 0.460505
v 0.412954 0.642650 0.460505
v 0.437328 0.642650 0.460505
v 0.439156 0.642186 0.460505
v 0.440114 0.640329 0.460505
v 0.477140 0.515349 0.460505
v 0.514166 0.390370 0.460505
v 0.514108 0.388165 0.460505
v 0.512309 0.387352 0.460505
v 0.493157 0.387352 0.460505
v 0.474006 0.387352 0.460505
v 0.471742 0.387643 0.460505
v 0.470524 0.388977 0.460505
v 0.460890 0.423906 0.460505
v 0.451256 0.458836 0.460505
v 0.441507 0.497130 0.460505
v 0.427433 0.551062 0.460505
v 0.413882 0.606212 0.460505
v 0.413650 0.606212 0.460505
v 0.413418 0.606212 0.460505
v 0.401782 0.555066 0.460505
v 0.386490 0.497130 0.460505
v 0.413998 0.497130 0.460505
vn -0.0000 -0.0000 1.0000
vn -0.0000 -0.0000 -1.0000
vn -0.9998 -0.0187 -0.0000
vn -0.9671 0.2545 -0.0000
vn -0.2983 0.9545 -0.0000
vn -0.9640 -0.2659 -0.0000
vn 0.2763 0.9611 -0.0000
vn 1.0000 -0.0000 -0.0000
vn 0.9687 -0.2481 -0.0000
vn -0.0000 -1.0000 -0.0000
vn -0.9991 -0.0416 -0.0000
vn 0.9641 -0.2655 -0.0000
vn 0.9660 -0.2585 -0.0000
vn 0.1414 -0.9900 -0.0000
vn -0.9614 0.2752 -0.0000
vn -0.9972 0.0750 -0.0000
vn -0.3747 0.9271 -0.0000
vn 0.9588 0.2841 -0.0000
vn 0.4115 -0.9114 -0.0000
vn -0.9711 -0.2386 -0.0000
vn -0.0000 1.0000 -0.0000
vn 0.8888 0.4584 -0.0000
vn -1.0000 -0.0000 -0.0000
vn -0.3231 -0.9464 -0.0000
vn -0.9664 -0.2570 -0.0000
vn -0.7384 -0.6743 -0.0000
vn -0.3011 -0.9536 -0.0000
vn -0.5646 0.8254 -0.0000
vn -0.1283 0.9917 -0.0000
vn 0.9294 0.3690 -0.0000
vn 0.0847 -0.9964 -0.0000
vn 0.2814 -0.9596 -0.0000
vn -0.9606 -0.2781 -0.0000
vn 0.2414 -0.9704 -0.0000
vn 0.4047 -0.9145 -0.0000
vn -0.9524 -0.3048 -0.0000
vn 0.8574 -0.5146 -0.0000
vn -0.9761 0.2174 -0.0000
vn -0.9676 -0.2525 -0.0000
vn -0.9633 0.2685 -0.0000
vn 0.2461 0.9692 -0.0000
vn 0.9997 -0.0263 -0.0000
vn 0.9669 -0.2552 -0.0000
vn -0.9980 -0.0628 -0.0000
vn 0.9751 -0.2218 -0.0000
vn -0.2799 -0.9600 -0.0000
vn -0.1271 -0.9919 -0.0000
vn -0.3482 -0.9374 -0.0000
vn -0.9605 -0.2781 -0.0000
vt 0.666667 0.000000
vt 0.695652 0.000000
vt 0.681159 0.000000
vt 0.710145 0.000000
vt 0.724638 0.000000
vt 0.739130 0.000000
vt 0.652174 0.000000
vt 0.637681 0.000000
vt 0.927536 0.000000
vt 0.753623 0.000000
vt 0.623188 0.000000
vt 0.608696 0.000000
vt 0.956522 0.000000
vt 0.971014 0.000000
vt 0.942029 0.000000
vt 0.913043 0.000000
vt 0.985507 0.000000
vt 0.898551 0.000000
vt 0.768116 0.000000
vt 0.594203 0.000000
vt 0.492754 0.000000
vt 1.000000 0.000000
vt 0.884058 0.000000
vt 0.507246 0.000000
vt 0.869565 0.000000
vt 0.855072 0.000000
vt 0.579710 0.000000
vt 0.782609 0.000000
vt 0.521739 0.000000
vt 0.840580 0.000000
vt 0.797101 0.000000
vt 0.565217 0.000000
vt 0.536232 0.000000
vt 0.826087 0.000000
vt 0.550725 0.000000
vt 0.811594 0.000000
vt 0.072464 0.000000
vt 0.101449 0.000000
vt 0.086957 0.000000
vt 0.057971 0.000000
vt 0.289855 0.000000
vt 0.275362 0.000000
vt 0.115942 0.000000
vt 0.043478 0.000000
vt 0.028986 0.000000
vt 0.014493 0.000000
vt 0.000000 0.000000
vt 0.304348 0.000000
vt 0.318841 0.000000
vt 0.478261 0.000000
vt 0.463768 0.000000
vt 0.333333 0.000000
vt 0.449275 0.000000
vt 0.260870 0.000000
vt 0.130435 0.000000
vt 0.246377 0.000000
vt 0.347826 0.000000
vt 0.434783 0.000000
vt 0.144928 0.000000
vt 0.231884 0.000000
vt 0.217391 0.000000
vt 0.159420 0.000000
vt 0.420290 0.000000
vt 0.362319 0.000000
vt 0.202899 0.000000
vt 0.173913 0.000000
vt 0.376812 0.000000
vt 0.405797 0.000000
vt 0.188406 0.000000
vt 0.391304 0.000000
s 0
g Animate_Text_AnimateBorder
usemtl AnimateBorder
f 63/9/13 65/10/13 64/11/13
f 63/9/13 66/12/13 65/10/13
f 63/9/13 67/13/13 66/12/13
f 63/9/13 68/14/13 67/13/13
f 62/15/13 68/14/13 63/9/13
f 61/16/13 68/14/13 62/15/13
f 61/16/13 81/17/13 68/14/13
f 81/17/13 69/18/13 68/14/13
f 60/19/13 81/17/13 61/16/13
f 59/20/13 83/21/13 60/19/13
f 83/21/13 81/17/13 60/19/13
f 59/20/13 84/22/13 83/21/13
f 82/23/13 81/17/13 83/21/13
f 80/24/13 69/18/13 81/17/13
f 59/20/13 85/25/13 84/22/13
f 79/26/13 69/18/13 80/24/13
f 79/26/13 70/27/13 69/18/13
f 58/28/13 85/25/13 59/20/13
f 58/28/13 51/29/13 85/25/13
f 51/29/13 86/30/13 85/25/13
f 51/29/13 79/26/13 86/30/13
f 51/29/13 78/31/13 79/26/13
f 78/31/13 70/27/13 79/26/13
f 58/28/13 52/32/13 51/29/13
f 77/33/13 70/27/13 78/31/13
f 76/34/13 70/27/13 77/33/13
f 57/35/13 52/32/13 58/28/13
f 76/34/13 71/36/13 70/27/13
f 57/35/13 53/37/13 52/32/13
f 75/38/13 71/36/13 76/34/13
f 75/38/13 72/39/13 71/36/13
f 56/40/13 53/37/13 57/35/13
f 56/40/13 54/41/13 53/37/13
f 74/42/13 72/39/13 75/38/13
f 55/43/13 54/41/13 56/40/13
f 73/44/13 72/39/13 74/42/13
f 22/45/13 24/46/13 23/47/13
f 21/48/13 24/46/13 22/45/13
f 21/48/13 37/49/13 24/46/13
f 37/49/13 36/50/13 24/46/13
f 36/50/13 25/51/13 24/46/13
f 20/52/13 37/49/13 21/48/13
f 19/53/13 37/49/13 20/52/13
f 18/54/13 37/49/13 19/53/13
f 17/55/13 37/49/13 18/54/13
f 17/55/13 38/56/13 37/49/13
f 17/55/13 39/57/13 38/56/13
f 17/55/13 50/58/13 39/57/13
f 50/58/13 49/59/13 39/57/13
f 49/59/13 40/60/13 39/57/13
f 48/61/13 40/60/13 49/59/13
f 35/62/13 25/51/13 36/50/13
f 35/62/13 26/63/13 25/51/13
f 34/64/13 26/63/13 35/62/13
f 48/61/13 41/65/13 40/60/13
f 47/66/13 41/65/13 48/61/13
f 34/64/13 27/67/13 26/63/13
f 33/68/13 27/67/13 34/64/13
f 32/69/13 27/67/13 33/68/13
f 32/69/13 28/70/13 27/67/13
f 46/71/13 41/65/13 47/66/13
f 46/71/13 42/72/13 41/65/13
f 31/73/13 28/70/13 32/69/13
f 31/73/13 29/74/13 28/70/13
f 46/71/13 43/75/13 42/72/13
f 45/76/13 43/75/13 46/71/13
f 30/77/13 29/74/13 31/73/13
f 44/78/13 43/75/13 45/76/13
f 133/9/14 134/11/14 135/10/14
f 133/9/14 135/10/14 136/12/14
f 133/9/14 136/12/14 137/13/14
f 133/9/14 137/13/14 138/14/14
f 132/15/14 133/9/14 138/14/14
f 131/16/14 132/15/14 138/14/14
f 131/16/14 138/14/14 151/17/14
f 151/17/14 138/14/14 139/18/14
f 130/19/14 131/16/14 151/17/14
f 129/20/14 130/19/14 153/21/14
f 153/21/14 130/19/14 151/17/14
f 129/20/14 153/21/14 154/22/14
f 152/23/13 153/21/13 151/17/13
f 150/24/14 151/17/14 139/18/14
f 129/20/14 154/22/14 155/25/14
f 149/26/14 150/24/14 139/18/14
f 149/26/14 139/18/14 140/27/14
f 128/28/14 129/20/14 155/25/14
f 128/28/14 155/25/14 121/29/14
f 121/29/14 155/25/14 156/30/14
f 121/29/14 156/30/14 149/26/14
f 121/29/14 149/26/14 148/31/14
f 148/31/14 149/26/14 140/27/14
f 128/28/14 121/29/14 122/32/14
f 147/33/14 148/31/14 140/27/14
f 146/34/14 147/33/14 140/27/14
f 127/35/14 128/28/14 122/32/14
f 146/34/14 140/27/14 141/36/14
f 127/35/14 122/32/14 123/37/14
f 145/38/14 146/34/14 141/36/14
f 145/38/14 141/36/14 142/39/14
f 126/40/14 127/35/14 123/37/14
f 126/40/14 123/37/14 124/41/14
f 144/42/14 145/38/14 142/39/14
f 125/43/13 126/40/13 124/41/13
f 143/44/13 144/42/13 142/39/13
f 92/45/14 93/47/14 94/46/14
f 91/48/14 92/45/14 94/46/14
f 91/48/14 94/46/14 107/49/14
f 107/49/14 94/46/14 106/50/14
f 106/50/14 94/46/14 95/51/14
f 90/52/14 91/48/14 107/49/14
f 89/53/14 90/52/14 107/49/14
f 88/54/14 89/53/14 107/49/14
f 87/55/14 88/54/14 107/49/14
f 87/55/14 107/49/14 108/56/14
f 87/55/14 108/56/14 109/57/14
f 87/55/14 109/57/14 120/58/14
f 120/58/14 109/57/14 119/59/14
f 119/59/14 109/57/14 110/60/14
f 118/61/14 119/59/14 110/60/14
f 105/62/14 106/50/14 95/51/14
f 105/62/14 95/51/14 96/63/14
f 104/64/14 105/62/14 96/63/14
f 118/61/14 110/60/14 111/65/14
f 117/66/14 118/61/14 111/65/14
f 104/64/14 96/63/14 97/67/14
f 103/68/14 104/64/14 97/67/14
f 102/69/14 103/68/14 97/67/14
f 102/69/14 97/67/14 98/70/14
f 116/71/14 117/66/14 111/65/14
f 116/71/14 111/65/14 112/72/14
f 101/73/14 102/69/14 98/70/14
f 101/73/14 98/70/14 99/74/14
f 116/71/14 112/72/14 113/75/14
f 115/76/14 116/71/14 113/75/14
f 100/77/13 101/73/13 99/74/13
f 114/78/13 115/76/13 113/75/13
f 18/54/15 87/55/15 17/55/15
f 20/52/16 89/53/16 19/53/16
f 22/45/17 91/48/17 21/48/17
f 77/33/18 146/34/18 76/34/18
f 24/46/19 93/47/19 23/47/19
f 26/63/20 95/51/20 25/51/20
f 28/70/21 97/67/21 27/67/21
f 30/77/22 99/74/22 29/74/22
f 58/28/23 127/35/23 57/35/23
f 40/60/20 109/57/20 39/57/20
f 42/72/24 111/65/24 41/65/24
f 44/78/22 113/75/22 43/75/22
f 17/55/22 120/58/22 50/58/22
f 52/32/25 121/29/25 51/29/25
f 54/41/26 123/37/26 53/37/26
f 60/19/27 129/20/27 59/20/27
f 62/15/28 131/16/28 61/16/28
f 64/11/29 133/9/29 63/9/29
f 70/27/30 139/18/30 69/18/30
f 72/39/31 141/36/31 71/36/31
f 74/42/22 143/44/22 73/44/22
f 81/17/32 150/24/32 80/24/32
f 51/29/22 148/31/22 78/31/22
f 82/23/22 151/17/22 81/17/22
f 83/21/22 152/23/22 82/23/22
f 66/12/33 135/10/33 65/10/33
f 68/14/34 137/13/34 67/13/34
f 49/59/35 118/61/35 48/61/35
f 32/69/36 101/73/36 31/73/36
f 34/64/35 103/68/35 33/68/35
f 36/50/37 105/62/37 35/62/37
f 76/34/38 145/38/38 75/38/38
f 57/35/39 126/40/39 56/40/39
f 21/48/40 90/52/40 20/52/40
f 23/47/41 92/45/41 22/45/41
f 25/51/42 94/46/42 24/46/42
f 38/56/43 107/49/43 37/49/43
f 29/74/44 98/70/44 28/70/44
f 33/68/45 102/69/45 32/69/45
f 78/31/18 147/33/18 77/33/18
f 39/57/46 108/56/46 38/56/46
f 41/65/20 110/60/20 40/60/20
f 43/75/47 112/72/47 42/72/47
f 45/76/22 114/78/22 44/78/22
f 47/66/48 116/71/48 46/71/48
f 53/37/49 122/32/49 52/32/49
f 55/43/22 124/41/22 54/41/22
f 59/20/27 128/28/27 58/28/27
f 61/16/50 130/19/50 60/19/50
f 80/24/51 149/26/51 79/26/51
f 63/9/52 132/15/52 62/15/52
f 65/10/33 134/11/33 64/11/33
f 67/13/53 136/12/53 66/12/53
f 69/18/30 138/14/30 68/14/30
f 71/36/54 140/27/54 70/27/54
f 73/44/22 142/39/22 72/39/22
f 85/25/55 154/22/55 84/22/55
f 79/26/33 156/30/33 86/30/33
f 19/53/56 88/54/56 18/54/56
f 84/22/57 153/21/57 83/21/57
f 46/71/58 115/76/58 45/76/58
f 27/67/20 96/63/20 26/63/20
f 86/30/33 155/25/33 85/25/33
f 48/61/35 117/66/35 47/66/35
f 50/58/22 119/59/22 49/59/22
f 31/73/22 100/77/22 30/77/22
f 35/62/35 104/64/35 34/64/35
f 75/38/59 144/42/59 74/42/59
f 56/40/22 125/43/22 55/43/22
f 37/49/60 106/50/60 36/50/60
f 18/54/15 88/54/15 87/55/15
f 20/52/16 90/52/16 89/53/16
f 22/45/17 92/45/17 91/48/17
f 77/33/18 147/33/18 146/34/18
f 24/46/19 94/46/19 93/47/19
f 26/63/20 96/63/20 95/51/20
f 28/70/21 98/70/21 97/67/21
f 30/77/22 100/77/22 99/74/22
f 58/28/23 128/28/23 127/35/23
f 40/60/20 110/60/20 109/57/20
f 42/72/24 112/72/24 111/65/24
f 44/78/22 114/78/22 113/75/22
f 17/55/22 87/55/22 120/58/22
f 52/32/25 122/32/25 121/29/25
f 54/41/26 124/41/26 123/37/26
f 60/19/27 130/19/27 129/20/27
f 62/15/28 132/15/28 131/16/28
f 64/11/29 134/11/29 133/9/29
f 70/27/30 140/27/30 139/18/30
f 72/39/31 142/39/31 141/36/31
f 74/42/22 144/42/22 143/44/22
f 81/17/32 151/17/32 150/24/32
f 51/29/22 121/29/22 148/31/22
f 82/23/22 152/23/22 151/17/22
f 83/21/22 153/21/22 152/23/22
f 66/12/33 136/12/33 135/10/33
f 68/14/34 138/14/34 137/13/34
f 49/59/35 119/59/35 118/61/35
f 32/69/36 102/69/36 101/73/36
f 34/64/35 104/64/35 103/68/35
f 36/50/37 106/50/37 105/62/37
f 76/34/38 146/34/38 145/38/38
f 57/35/39 127/35/39 126/40/39
f 21/48/40 91/48/40 90/52/40
f 23/47/41 93/47/41 92/45/41
f 25/51/42 95/51/42 94/46/42
f 38/56/43 108/56/43 107/49/43
f 29/74/44 99/74/44 98/70/44
f 33/68/61 103/68/61 102/69/61
f 78/31/18 148/31/18 147/33/18
f 39/57/46 109/57/46 108/56/46
f 41/65/20 111/65/20 110/60/20
f 43/75/47 113/75/47 112/72/47
f 45/76/22 115/76/22 114/78/22
f 47/66/48 117/66/48 116/71/48
f 53/37/49 123/37/49 122/32/49
f 55/43/22 125/43/22 124/41/22
f 59/20/27 129/20/27 128/28/27
f 61/16/50 131/16/50 130/19/50
f 80/24/51 150/24/51 149/26/51
f 63/9/52 133/9/52 132/15/52
f 65/10/33 135/10/33 134/11/33
f 67/13/53 137/13/53 136/12/53
f 69/18/30 139/18/30 138/14/30
f 71/36/54 141/36/54 140/27/54
f 73/44/22 143/44/22 142/39/22
f 85/25/55 155/25/55 154/22/55
f 79/26/33 149/26/33 156/30/33
f 19/53/56 89/53/56 88/54/56
f 84/22/57 154/22/57 153/21/57
f 46/71/58 116/71/58 115/76/58
f 27/67/20 97/67/20 96/63/20
f 86/30/33 156/30/33 155/25/33
f 48/61/35 118/61/35 117/66/35
f 50/58/22 120/58/22 119/59/22
f 31/73/22 101/73/22 100/77/22
f 35/62/35 105/62/35 104/64/35
f 75/38/59 145/38/59 144/42/59
f 56/40/22 126/40/22 125/43/22
f 37/49/60 107/49/60 106/50/60
