# Blender 4.1.1 Goo Engine
# www.blender.org
mtllib chrome.mtl
o Chrome_Logo.002
v 0.500000 0.669759 0.755700
v 0.500000 0.754062 0.670853
v 0.500000 0.799687 0.559996
v 0.500000 0.805558 0.500000
v 0.512062 0.560638 0.801398
v 0.522812 0.614685 0.784118
v 0.533118 0.666497 0.755700
v 0.542152 0.711910 0.717455
v 0.549565 0.749180 0.670853
v 0.555074 0.776874 0.617686
v 0.558466 0.793928 0.559996
v 0.559611 0.799687 0.500000
v 0.523660 0.557120 0.801398
v 0.544748 0.608031 0.784118
v 0.564964 0.656837 0.755700
v 0.582683 0.699615 0.717455
v 0.597225 0.734723 0.670853
v 0.608031 0.760810 0.617686
v 0.614685 0.776874 0.559996
v 0.616932 0.782299 0.500000
v 0.534349 0.551407 0.801398
v 0.564964 0.597225 0.784118
v 0.594313 0.641149 0.755700
v 0.620038 0.679649 0.717455
v 0.641149 0.711245 0.670853
v 0.656837 0.734723 0.617686
v 0.666497 0.749180 0.559996
v 0.543718 0.543718 0.801398
v 0.582683 0.582683 0.784118
v 0.620038 0.620038 0.755700
v 0.652779 0.652779 0.717455
v 0.679649 0.679649 0.670853
v 0.699615 0.699615 0.617686
v 0.711910 0.711910 0.559996
v 0.551407 0.534349 0.801398
v 0.597225 0.564964 0.784118
v 0.641149 0.594313 0.755700
v 0.679649 0.620038 0.717455
v 0.711245 0.641149 0.670853
v 0.734723 0.656837 0.617686
v 0.749180 0.666497 0.559996
v 0.500000 0.500000 0.808760
v 0.557120 0.523660 0.801398
v 0.608031 0.544748 0.784118
v 0.656837 0.564964 0.755700
v 0.699615 0.582683 0.717455
v 0.734723 0.597225 0.670853
v 0.760810 0.608031 0.617686
v 0.776874 0.614685 0.559996
v 0.560638 0.512062 0.801398
v 0.614685 0.522812 0.784118
v 0.666497 0.533118 0.755700
v 0.711910 0.542152 0.717455
v 0.749180 0.549565 0.670853
v 0.776874 0.555074 0.617686
v 0.793928 0.558466 0.559996
v 0.561826 0.500000 0.801398
v 0.616932 0.500000 0.784118
v 0.669759 0.500000 0.755700
v 0.716062 0.500000 0.717455
v 0.754062 0.500000 0.670853
v 0.782299 0.500000 0.617686
v 0.799687 0.500000 0.559996
v 0.560638 0.487938 0.801398
v 0.614685 0.477188 0.784118
v 0.666497 0.466882 0.755700
v 0.711910 0.457848 0.717455
v 0.749180 0.450435 0.670853
v 0.776874 0.444926 0.617686
v 0.793928 0.441534 0.559996
v 0.557120 0.476340 0.801398
v 0.608031 0.455252 0.784118
v 0.656837 0.435036 0.755700
v 0.699615 0.417317 0.717455
v 0.734723 0.402775 0.670853
v 0.760810 0.391969 0.617686
v 0.776874 0.385315 0.559996
v 0.782299 0.383068 0.500000
v 0.551407 0.465651 0.801398
v 0.597225 0.435036 0.784118
v 0.641149 0.405687 0.755700
v 0.679649 0.379962 0.717455
v 0.711245 0.358851 0.670853
v 0.734723 0.343163 0.617686
v 0.749180 0.333503 0.559996
v 0.754062 0.330241 0.500000
v 0.543718 0.456282 0.801398
v 0.582683 0.417317 0.784118
v 0.620037 0.379962 0.755700
v 0.652779 0.347221 0.717455
v 0.679649 0.320351 0.670853
v 0.699615 0.300385 0.617686
v 0.711910 0.288090 0.559996
v 0.534349 0.448593 0.801398
v 0.564964 0.402775 0.784118
v 0.594313 0.358851 0.755700
v 0.620038 0.320351 0.717455
v 0.641149 0.288755 0.670853
v 0.656837 0.265277 0.617686
v 0.666497 0.250820 0.559996
v 0.523660 0.442880 0.801398
v 0.544748 0.391969 0.784118
v 0.564964 0.343163 0.755700
v 0.582683 0.300385 0.717455
v 0.597225 0.265277 0.670853
v 0.608031 0.239190 0.617686
v 0.614685 0.223126 0.559996
v 0.512062 0.439362 0.801398
v 0.522812 0.385315 0.784118
v 0.533118 0.333503 0.755700
v 0.542152 0.288090 0.717455
v 0.549565 0.250820 0.670853
v 0.555074 0.223126 0.617686
v 0.558466 0.206072 0.559996
v 0.500000 0.438174 0.801398
v 0.500000 0.383068 0.784118
v 0.500000 0.330241 0.755700
v 0.500000 0.283938 0.717455
v 0.500000 0.245938 0.670853
v 0.500000 0.217701 0.617686
v 0.500000 0.200313 0.559996
v 0.500000 0.194442 0.500000
v 0.487938 0.439362 0.801398
v 0.477188 0.385315 0.784118
v 0.466882 0.333503 0.755700
v 0.457848 0.288090 0.717455
v 0.450435 0.250820 0.670853
v 0.444926 0.223126 0.617686
v 0.441534 0.206072 0.559996
v 0.440389 0.200314 0.500000
v 0.476340 0.442880 0.801398
v 0.455252 0.391969 0.784118
v 0.435036 0.343163 0.755700
v 0.417317 0.300385 0.717455
v 0.402775 0.265277 0.670853
v 0.391969 0.239190 0.617686
v 0.385315 0.223126 0.559996
v 0.383068 0.217702 0.500000
v 0.465651 0.448593 0.801398
v 0.435036 0.402775 0.784118
v 0.405687 0.358851 0.755700
v 0.379962 0.320351 0.717455
v 0.358851 0.288755 0.670853
v 0.343163 0.265277 0.617686
v 0.333503 0.250820 0.559996
v 0.330241 0.245938 0.500000
v 0.456282 0.456282 0.801398
v 0.417317 0.417317 0.784118
v 0.379962 0.379962 0.755700
v 0.347221 0.347221 0.717455
v 0.320351 0.320351 0.670853
v 0.300385 0.300385 0.617686
v 0.288090 0.288090 0.559996
v 0.283938 0.283938 0.500000
v 0.448593 0.465651 0.801398
v 0.402775 0.435036 0.784118
v 0.358851 0.405687 0.755700
v 0.320351 0.379962 0.717455
v 0.288755 0.358851 0.670853
v 0.265277 0.343163 0.617686
v 0.250820 0.333503 0.559996
v 0.245938 0.330241 0.500000
v 0.442880 0.476340 0.801398
v 0.391969 0.455252 0.784118
v 0.343163 0.435036 0.755700
v 0.300385 0.417317 0.717455
v 0.265277 0.402775 0.670853
v 0.239190 0.391969 0.617686
v 0.223126 0.385315 0.559996
v 0.217701 0.383068 0.500000
v 0.439362 0.487938 0.801398
v 0.385315 0.477188 0.784118
v 0.333503 0.466882 0.755700
v 0.288090 0.457848 0.717455
v 0.250820 0.450435 0.670853
v 0.223126 0.444926 0.617686
v 0.206072 0.441534 0.559996
v 0.200314 0.440389 0.500000
v 0.438174 0.500000 0.801398
v 0.383068 0.500000 0.784118
v 0.330241 0.500000 0.755700
v 0.283938 0.500000 0.717455
v 0.245938 0.500000 0.670853
v 0.217701 0.500000 0.617686
v 0.200313 0.500000 0.559996
v 0.439362 0.512062 0.801398
v 0.385315 0.522812 0.784118
v 0.333503 0.533118 0.755700
v 0.288090 0.542152 0.717455
v 0.250820 0.549565 0.670853
v 0.223126 0.555074 0.617686
v 0.206072 0.558466 0.559996
v 0.200314 0.559611 0.500000
v 0.442880 0.523660 0.801398
v 0.391969 0.544748 0.784118
v 0.343163 0.564964 0.755700
v 0.300385 0.582683 0.717455
v 0.265277 0.597225 0.670853
v 0.239190 0.608031 0.617686
v 0.223126 0.614685 0.559996
v 0.217702 0.616932 0.500000
v 0.448593 0.534349 0.801398
v 0.402775 0.564964 0.784118
v 0.358851 0.594313 0.755700
v 0.320351 0.620038 0.717455
v 0.288755 0.641149 0.670853
v 0.265277 0.656837 0.617686
v 0.250820 0.666497 0.559996
v 0.456282 0.543718 0.801398
v 0.417317 0.582683 0.784118
v 0.379962 0.620038 0.755700
v 0.347221 0.652779 0.717455
v 0.320351 0.679649 0.670853
v 0.300385 0.699615 0.617686
v 0.288090 0.711910 0.559996
v 0.283938 0.716062 0.500000
v 0.465651 0.551407 0.801398
v 0.435036 0.597225 0.784118
v 0.405687 0.641149 0.755700
v 0.379962 0.679649 0.717455
v 0.358851 0.711245 0.670853
v 0.343163 0.734723 0.617686
v 0.333503 0.749180 0.559996
v 0.476340 0.557120 0.801398
v 0.455252 0.608031 0.784118
v 0.435036 0.656837 0.755700
v 0.417317 0.699615 0.717455
v 0.402775 0.734723 0.670853
v 0.391969 0.760810 0.617686
v 0.385315 0.776874 0.559996
v 0.487938 0.560638 0.801398
v 0.477188 0.614685 0.784118
v 0.466882 0.666497 0.755700
v 0.457848 0.711910 0.717455
v 0.450435 0.749180 0.670853
v 0.444926 0.776874 0.617686
v 0.441534 0.793928 0.559996
v 0.440389 0.799686 0.500000
v 0.500000 0.561826 0.801398
v 0.500000 0.616932 0.784118
v 0.500000 0.716062 0.717455
v 0.500000 0.782299 0.617686
v 0.500000 0.669759 0.244300
v 0.500000 0.754062 0.329147
v 0.500000 0.799687 0.440004
v 0.512062 0.560638 0.198602
v 0.522812 0.614685 0.215882
v 0.533118 0.666497 0.244300
v 0.542152 0.711910 0.282545
v 0.549565 0.749180 0.329147
v 0.555074 0.776874 0.382314
v 0.558466 0.793928 0.440004
v 0.523660 0.557120 0.198602
v 0.544748 0.608031 0.215882
v 0.564964 0.656837 0.244300
v 0.582683 0.699615 0.282545
v 0.597225 0.734723 0.329147
v 0.608031 0.760810 0.382314
v 0.614685 0.776874 0.440004
v 0.534349 0.551407 0.198602
v 0.564964 0.597225 0.215882
v 0.594313 0.641149 0.244300
v 0.620038 0.679649 0.282545
v 0.641149 0.711245 0.329147
v 0.656837 0.734723 0.382314
v 0.666497 0.749180 0.440004
v 0.669759 0.754062 0.500000
v 0.543718 0.543718 0.198602
v 0.582683 0.582683 0.215882
v 0.620038 0.620038 0.244300
v 0.652779 0.652779 0.282545
v 0.679649 0.679649 0.329147
v 0.699615 0.699615 0.382314
v 0.711910 0.711910 0.440004
v 0.716062 0.716062 0.500000
v 0.551407 0.534349 0.198602
v 0.597225 0.564964 0.215882
v 0.641149 0.594313 0.244300
v 0.679649 0.620038 0.282545
v 0.711245 0.641149 0.329147
v 0.734723 0.656837 0.382314
v 0.749180 0.666497 0.440004
v 0.754062 0.669759 0.500000
v 0.500000 0.500000 0.191240
v 0.557120 0.523660 0.198602
v 0.608031 0.544748 0.215882
v 0.656837 0.564964 0.244300
v 0.699615 0.582683 0.282545
v 0.734723 0.597225 0.329147
v 0.760810 0.608031 0.382314
v 0.776874 0.614685 0.440004
v 0.782299 0.616932 0.500000
v 0.560638 0.512062 0.198602
v 0.614685 0.522812 0.215882
v 0.666497 0.533118 0.244300
v 0.711910 0.542152 0.282545
v 0.749180 0.549565 0.329147
v 0.776874 0.555074 0.382314
v 0.793928 0.558466 0.440004
v 0.799687 0.559611 0.500000
v 0.561826 0.500000 0.198602
v 0.616932 0.500000 0.215882
v 0.669759 0.500000 0.244300
v 0.716062 0.500000 0.282545
v 0.754062 0.500000 0.329147
v 0.782299 0.500000 0.382314
v 0.799687 0.500000 0.440004
v 0.805558 0.500000 0.500000
v 0.560638 0.487938 0.198602
v 0.614685 0.477188 0.215882
v 0.666497 0.466882 0.244300
v 0.711910 0.457848 0.282545
v 0.749180 0.450435 0.329147
v 0.776874 0.444926 0.382314
v 0.793928 0.441534 0.440004
v 0.799687 0.440389 0.500000
v 0.557120 0.476340 0.198602
v 0.608031 0.455252 0.215882
v 0.656837 0.435036 0.244300
v 0.699615 0.417317 0.282545
v 0.734723 0.402775 0.329147
v 0.760810 0.391969 0.382314
v 0.776874 0.385315 0.440004
v 0.551407 0.465651 0.198602
v 0.597225 0.435036 0.215882
v 0.641149 0.405687 0.244300
v 0.679649 0.379962 0.282545
v 0.711245 0.358851 0.329147
v 0.734723 0.343163 0.382314
v 0.749180 0.333503 0.440004
v 0.543718 0.456282 0.198602
v 0.582683 0.417317 0.215882
v 0.620038 0.379962 0.244300
v 0.652779 0.347221 0.282545
v 0.679649 0.320351 0.329147
v 0.699615 0.300385 0.382314
v 0.711910 0.288090 0.440004
v 0.716062 0.283938 0.500000
v 0.534349 0.448593 0.198602
v 0.564964 0.402775 0.215882
v 0.594313 0.358851 0.244300
v 0.620038 0.320351 0.282545
v 0.641149 0.288755 0.329147
v 0.656837 0.265277 0.382314
v 0.666497 0.250820 0.440004
v 0.669759 0.245938 0.500000
v 0.523660 0.442880 0.198602
v 0.544748 0.391969 0.215882
v 0.564964 0.343163 0.244300
v 0.582683 0.300385 0.282545
v 0.597225 0.265277 0.329147
v 0.608031 0.239190 0.382314
v 0.614685 0.223126 0.440004
v 0.616932 0.217701 0.500000
v 0.512062 0.439362 0.198602
v 0.522812 0.385315 0.215882
v 0.533118 0.333503 0.244300
v 0.542152 0.288090 0.282545
v 0.549565 0.250820 0.329147
v 0.555074 0.223126 0.382314
v 0.558466 0.206072 0.440004
v 0.559611 0.200313 0.500000
v 0.500000 0.438174 0.198602
v 0.500000 0.383068 0.215882
v 0.500000 0.330241 0.244300
v 0.500000 0.283938 0.282545
v 0.500000 0.245938 0.329147
v 0.500000 0.217701 0.382314
v 0.500000 0.200313 0.440004
v 0.487938 0.439362 0.198602
v 0.477188 0.385315 0.215882
v 0.466882 0.333503 0.244300
v 0.457848 0.288090 0.282545
v 0.450435 0.250820 0.329147
v 0.444926 0.223126 0.382314
v 0.441534 0.206072 0.440004
v 0.476340 0.442880 0.198602
v 0.455252 0.391969 0.215882
v 0.435036 0.343163 0.244300
v 0.417317 0.300385 0.282545
v 0.402775 0.265277 0.329147
v 0.391969 0.239190 0.382314
v 0.385315 0.223126 0.440004
v 0.465651 0.448593 0.198602
v 0.435036 0.402775 0.215882
v 0.405687 0.358851 0.244300
v 0.379962 0.320351 0.282545
v 0.358851 0.288755 0.329147
v 0.343163 0.265277 0.382314
v 0.333503 0.250820 0.440004
v 0.456282 0.456282 0.198602
v 0.417317 0.417317 0.215882
v 0.379962 0.379962 0.244300
v 0.347221 0.347221 0.282545
v 0.320351 0.320351 0.329147
v 0.300385 0.300385 0.382314
v 0.288090 0.288090 0.440004
v 0.448593 0.465651 0.198602
v 0.402775 0.435036 0.215882
v 0.358851 0.405687 0.244300
v 0.320351 0.379962 0.282545
v 0.288755 0.358851 0.329147
v 0.265277 0.343163 0.382314
v 0.250820 0.333503 0.440004
v 0.442880 0.476340 0.198602
v 0.391969 0.455252 0.215882
v 0.343163 0.435036 0.244300
v 0.300385 0.417317 0.282545
v 0.265277 0.402775 0.329147
v 0.239190 0.391969 0.382314
v 0.223126 0.385315 0.440004
v 0.439362 0.487938 0.198602
v 0.385315 0.477188 0.215882
v 0.333503 0.466882 0.244300
v 0.288090 0.457848 0.282545
v 0.250820 0.450435 0.329147
v 0.223126 0.444926 0.382314
v 0.206072 0.441534 0.440004
v 0.438174 0.500000 0.198602
v 0.383068 0.500000 0.215882
v 0.330241 0.500000 0.244300
v 0.283938 0.500000 0.282545
v 0.245938 0.500000 0.329147
v 0.217701 0.500000 0.382314
v 0.200313 0.500000 0.440004
v 0.194442 0.500000 0.500000
v 0.439362 0.512062 0.198602
v 0.385315 0.522812 0.215882
v 0.333503 0.533118 0.244300
v 0.288090 0.542152 0.282545
v 0.250820 0.549565 0.329147
v 0.223126 0.555074 0.382314
v 0.206072 0.558466 0.440004
v 0.442880 0.523660 0.198602
v 0.391969 0.544748 0.215882
v 0.343163 0.564964 0.244300
v 0.300385 0.582683 0.282545
v 0.265277 0.597225 0.329147
v 0.239190 0.608031 0.382314
v 0.223126 0.614685 0.440004
v 0.448593 0.534349 0.198602
v 0.402775 0.564964 0.215882
v 0.358851 0.594313 0.244300
v 0.320351 0.620038 0.282545
v 0.288755 0.641149 0.329147
v 0.265277 0.656837 0.382314
v 0.250820 0.666497 0.440004
v 0.245938 0.669759 0.500000
v 0.456282 0.543718 0.198602
v 0.417317 0.582683 0.215882
v 0.379962 0.620038 0.244300
v 0.347221 0.652779 0.282545
v 0.320351 0.679649 0.329147
v 0.300385 0.699615 0.382314
v 0.288090 0.711910 0.440004
v 0.465651 0.551407 0.198602
v 0.435036 0.597225 0.215882
v 0.405687 0.641149 0.244300
v 0.379962 0.679649 0.282545
v 0.358851 0.711245 0.329147
v 0.343163 0.734723 0.382314
v 0.333503 0.749180 0.440004
v 0.330241 0.754062 0.500000
v 0.476340 0.557120 0.198602
v 0.455252 0.608031 0.215882
v 0.435036 0.656837 0.244300
v 0.417317 0.699615 0.282545
v 0.402775 0.734723 0.329147
v 0.391969 0.760810 0.382314
v 0.385315 0.776874 0.440004
v 0.383068 0.782298 0.500000
v 0.487938 0.560638 0.198602
v 0.477188 0.614685 0.215882
v 0.466882 0.666497 0.244300
v 0.457848 0.711910 0.282545
v 0.450435 0.749180 0.329147
v 0.444926 0.776874 0.382314
v 0.441534 0.793928 0.440004
v 0.500000 0.561826 0.198602
v 0.500000 0.616932 0.215882
v 0.500000 0.716062 0.282545
v 0.500000 0.782299 0.382314
vn -0.0000 0.5622 0.8270
vn -0.0000 0.8349 0.5504
vn -0.0000 0.9812 0.1928
vn -0.0000 1.0000 -0.0000
vn 0.0420 0.2110 0.9766
vn 0.0767 0.3857 0.9194
vn 0.1097 0.5514 0.8270
vn 0.1390 0.6987 0.7018
vn 0.1629 0.8189 0.5504
vn 0.1806 0.9078 0.3785
vn 0.1914 0.9624 0.1928
vn 0.1951 0.9808 -0.0000
vn 0.0823 0.1988 0.9766
vn 0.1505 0.3633 0.9194
vn 0.2151 0.5194 0.8270
vn 0.2726 0.6581 0.7018
vn 0.3195 0.7714 0.5504
vn 0.3542 0.8551 0.3785
vn 0.3755 0.9066 0.1928
vn 0.3827 0.9239 -0.0000
vn 0.1195 0.1789 0.9766
vn 0.2185 0.3270 0.9194
vn 0.3123 0.4674 0.8270
vn 0.3958 0.5923 0.7018
vn 0.4639 0.6942 0.5504
vn 0.5142 0.7696 0.3785
vn 0.5452 0.8159 0.1928
vn 0.1521 0.1521 0.9766
vn 0.2781 0.2781 0.9194
vn 0.3975 0.3975 0.8270
vn 0.5037 0.5037 0.7018
vn 0.5904 0.5904 0.5504
vn 0.6545 0.6545 0.3785
vn 0.6938 0.6938 0.1928
vn 0.1789 0.1195 0.9766
vn 0.3270 0.2185 0.9194
vn 0.4674 0.3123 0.8270
vn 0.5923 0.3958 0.7018
vn 0.6942 0.4639 0.5504
vn 0.7696 0.5142 0.3785
vn 0.8159 0.5452 0.1928
vn -0.0000 -0.0000 1.0000
vn 0.1988 0.0823 0.9766
vn 0.3633 0.1505 0.9194
vn 0.5194 0.2151 0.8270
vn 0.6581 0.2726 0.7018
vn 0.7714 0.3195 0.5504
vn 0.8551 0.3542 0.3785
vn 0.9066 0.3755 0.1928
vn 0.2110 0.0420 0.9766
vn 0.3857 0.0767 0.9194
vn 0.5514 0.1097 0.8270
vn 0.6987 0.1390 0.7018
vn 0.8189 0.1629 0.5504
vn 0.9078 0.1806 0.3785
vn 0.9624 0.1914 0.1928
vn 0.2151 -0.0000 0.9766
vn 0.3932 -0.0000 0.9194
vn 0.5622 -0.0000 0.8270
vn 0.7123 -0.0000 0.7018
vn 0.8349 -0.0000 0.5504
vn 0.9256 -0.0000 0.3785
vn 0.9812 -0.0000 0.1928
vn 0.2110 -0.0420 0.9766
vn 0.3857 -0.0767 0.9194
vn 0.5514 -0.1097 0.8270
vn 0.6987 -0.1390 0.7018
vn 0.8189 -0.1629 0.5504
vn 0.9078 -0.1806 0.3785
vn 0.9624 -0.1914 0.1928
vn 0.1988 -0.0823 0.9766
vn 0.3633 -0.1505 0.9194
vn 0.5194 -0.2151 0.8270
vn 0.6581 -0.2726 0.7018
vn 0.7714 -0.3195 0.5504
vn 0.8551 -0.3542 0.3785
vn 0.9066 -0.3755 0.1928
vn 0.9239 -0.3827 -0.0000
vn 0.1789 -0.1195 0.9766
vn 0.3270 -0.2185 0.9194
vn 0.4674 -0.3123 0.8270
vn 0.5923 -0.3958 0.7018
vn 0.6942 -0.4639 0.5504
vn 0.7696 -0.5142 0.3785
vn 0.8159 -0.5452 0.1928
vn 0.8315 -0.5556 -0.0000
vn 0.1521 -0.1521 0.9766
vn 0.2781 -0.2781 0.9194
vn 0.3975 -0.3975 0.8270
vn 0.5037 -0.5037 0.7018
vn 0.5904 -0.5904 0.5504
vn 0.6545 -0.6545 0.3785
vn 0.6938 -0.6938 0.1928
vn 0.1195 -0.1789 0.9766
vn 0.2185 -0.3270 0.9194
vn 0.3123 -0.4674 0.8270
vn 0.3958 -0.5923 0.7018
vn 0.4639 -0.6942 0.5504
vn 0.5142 -0.7696 0.3785
vn 0.5452 -0.8159 0.1928
vn 0.0823 -0.1988 0.9766
vn 0.1505 -0.3633 0.9194
vn 0.2151 -0.5194 0.8270
vn 0.2726 -0.6581 0.7018
vn 0.3195 -0.7714 0.5504
vn 0.3542 -0.8551 0.3785
vn 0.3755 -0.9066 0.1928
vn 0.0420 -0.2110 0.9766
vn 0.0767 -0.3857 0.9194
vn 0.1097 -0.5514 0.8270
vn 0.1390 -0.6987 0.7018
vn 0.1629 -0.8189 0.5504
vn 0.1806 -0.9078 0.3785
vn 0.1914 -0.9624 0.1928
vn -0.0000 -0.2151 0.9766
vn -0.0000 -0.3932 0.9194
vn -0.0000 -0.5622 0.8270
vn -0.0000 -0.7123 0.7018
vn -0.0000 -0.8349 0.5504
vn -0.0000 -0.9256 0.3785
vn -0.0000 -0.9812 0.1928
vn -0.0000 -1.0000 -0.0000
vn -0.0420 -0.2110 0.9766
vn -0.0767 -0.3857 0.9194
vn -0.1097 -0.5514 0.8270
vn -0.1390 -0.6987 0.7018
vn -0.1629 -0.8189 0.5504
vn -0.1806 -0.9078 0.3785
vn -0.1914 -0.9624 0.1928
vn -0.1951 -0.9808 -0.0000
vn -0.0823 -0.1988 0.9766
vn -0.1505 -0.3633 0.9194
vn -0.2151 -0.5194 0.8270
vn -0.2726 -0.6581 0.7018
vn -0.3195 -0.7714 0.5504
vn -0.3542 -0.8551 0.3785
vn -0.3755 -0.9066 0.1928
vn -0.3827 -0.9239 -0.0000
vn -0.1195 -0.1789 0.9766
vn -0.2185 -0.3270 0.9194
vn -0.3123 -0.4674 0.8270
vn -0.3958 -0.5923 0.7018
vn -0.4639 -0.6942 0.5504
vn -0.5142 -0.7696 0.3785
vn -0.5452 -0.8159 0.1928
vn -0.5556 -0.8315 -0.0000
vn -0.1521 -0.1521 0.9766
vn -0.2781 -0.2781 0.9194
vn -0.3975 -0.3975 0.8270
vn -0.5037 -0.5037 0.7018
vn -0.5904 -0.5904 0.5504
vn -0.6545 -0.6545 0.3785
vn -0.6938 -0.6938 0.1928
vn -0.7071 -0.7071 -0.0000
vn -0.1789 -0.1195 0.9766
vn -0.3270 -0.2185 0.9194
vn -0.4674 -0.3123 0.8270
vn -0.5923 -0.3958 0.7018
vn -0.6942 -0.4639 0.5504
vn -0.7696 -0.5142 0.3785
vn -0.8159 -0.5452 0.1928
vn -0.8315 -0.5556 -0.0000
vn -0.1988 -0.0823 0.9766
vn -0.3633 -0.1505 0.9194
vn -0.5194 -0.2151 0.8270
vn -0.6581 -0.2726 0.7018
vn -0.7714 -0.3195 0.5504
vn -0.8551 -0.3542 0.3785
vn -0.9066 -0.3755 0.1928
vn -0.9239 -0.3827 -0.0000
vn -0.2110 -0.0420 0.9766
vn -0.3857 -0.0767 0.9194
vn -0.5514 -0.1097 0.8270
vn -0.6987 -0.1390 0.7018
vn -0.8189 -0.1629 0.5504
vn -0.9078 -0.1806 0.3785
vn -0.9624 -0.1914 0.1928
vn -0.9808 -0.1951 -0.0000
vn -0.2151 -0.0000 0.9766
vn -0.3932 -0.0000 0.9194
vn -0.5622 -0.0000 0.8270
vn -0.7123 -0.0000 0.7018
vn -0.8349 -0.0000 0.5504
vn -0.9256 -0.0000 0.3785
vn -0.9812 -0.0000 0.1928
vn -0.2110 0.0420 0.9766
vn -0.3857 0.0767 0.9194
vn -0.5514 0.1097 0.8270
vn -0.6987 0.1390 0.7018
vn -0.8189 0.1629 0.5504
vn -0.9078 0.1806 0.3785
vn -0.9624 0.1914 0.1928
vn -0.9808 0.1951 -0.0000
vn -0.1988 0.0823 0.9766
vn -0.3633 0.1505 0.9194
vn -0.5194 0.2151 0.8270
vn -0.6581 0.2726 0.7018
vn -0.7714 0.3195 0.5504
vn -0.8551 0.3542 0.3785
vn -0.9066 0.3755 0.1928
vn -0.9239 0.3827 -0.0000
vn -0.1789 0.1195 0.9766
vn -0.3270 0.2185 0.9194
vn -0.4674 0.3123 0.8270
vn -0.5923 0.3958 0.7018
vn -0.6942 0.4639 0.5504
vn -0.7696 0.5142 0.3785
vn -0.8159 0.5452 0.1928
vn -0.1521 0.1521 0.9766
vn -0.2781 0.2781 0.9194
vn -0.3975 0.3975 0.8270
vn -0.5037 0.5037 0.7018
vn -0.5904 0.5904 0.5504
vn -0.6545 0.6545 0.3785
vn -0.6938 0.6938 0.1928
vn -0.7071 0.7071 -0.0000
vn -0.1195 0.1789 0.9766
vn -0.2185 0.3270 0.9194
vn -0.3123 0.4674 0.8270
vn -0.3958 0.5923 0.7018
vn -0.4639 0.6942 0.5504
vn -0.5142 0.7696 0.3785
vn -0.5452 0.8159 0.1928
vn -0.0823 0.1988 0.9766
vn -0.1505 0.3633 0.9194
vn -0.2151 0.5194 0.8270
vn -0.2726 0.6581 0.7018
vn -0.3195 0.7714 0.5504
vn -0.3542 0.8551 0.3785
vn -0.3755 0.9066 0.1928
vn -0.0420 0.2110 0.9766
vn -0.0767 0.3857 0.9194
vn -0.1097 0.5514 0.8270
vn -0.1390 0.6987 0.7018
vn -0.1629 0.8189 0.5504
vn -0.1806 0.9078 0.3785
vn -0.1914 0.9624 0.1928
vn -0.1951 0.9808 -0.0000
vn -0.0000 0.2151 0.9766
vn -0.0000 0.3932 0.9194
vn -0.0000 0.7123 0.7018
vn -0.0000 0.9256 0.3785
vn -0.0000 0.5622 -0.8270
vn -0.0000 0.8349 -0.5504
vn -0.0000 0.9812 -0.1928
vn 0.0420 0.2110 -0.9766
vn 0.0767 0.3857 -0.9194
vn 0.1097 0.5514 -0.8270
vn 0.1390 0.6987 -0.7018
vn 0.1629 0.8189 -0.5504
vn 0.1806 0.9078 -0.3785
vn 0.1914 0.9624 -0.1928
vn 0.0823 0.1988 -0.9766
vn 0.1505 0.3633 -0.9194
vn 0.2151 0.5194 -0.8270
vn 0.2726 0.6581 -0.7018
vn 0.3195 0.7714 -0.5504
vn 0.3542 0.8551 -0.3785
vn 0.3755 0.9066 -0.1928
vn 0.1195 0.1789 -0.9766
vn 0.2185 0.3270 -0.9194
vn 0.3123 0.4674 -0.8270
vn 0.3958 0.5923 -0.7018
vn 0.4639 0.6942 -0.5504
vn 0.5142 0.7696 -0.3785
vn 0.5452 0.8159 -0.1928
vn 0.5556 0.8315 -0.0000
vn 0.1521 0.1521 -0.9766
vn 0.2781 0.2781 -0.9194
vn 0.3975 0.3975 -0.8270
vn 0.5037 0.5037 -0.7018
vn 0.5904 0.5904 -0.5504
vn 0.6545 0.6545 -0.3785
vn 0.6938 0.6938 -0.1928
vn 0.7071 0.7071 -0.0000
vn 0.1789 0.1195 -0.9766
vn 0.3270 0.2185 -0.9194
vn 0.4674 0.3123 -0.8270
vn 0.5923 0.3958 -0.7018
vn 0.6942 0.4639 -0.5504
vn 0.7696 0.5142 -0.3785
vn 0.8159 0.5452 -0.1928
vn 0.8315 0.5556 -0.0000
vn -0.0000 -0.0000 -1.0000
vn 0.1988 0.0823 -0.9766
vn 0.3633 0.1505 -0.9194
vn 0.5194 0.2151 -0.8270
vn 0.6581 0.2726 -0.7018
vn 0.7714 0.3195 -0.5504
vn 0.8551 0.3542 -0.3785
vn 0.9066 0.3755 -0.1928
vn 0.9239 0.3827 -0.0000
vn 0.2110 0.0420 -0.9766
vn 0.3857 0.0767 -0.9194
vn 0.5514 0.1097 -0.8270
vn 0.6987 0.1390 -0.7018
vn 0.8189 0.1629 -0.5504
vn 0.9078 0.1806 -0.3785
vn 0.9624 0.1914 -0.1928
vn 0.9808 0.1951 -0.0000
vn 0.2151 -0.0000 -0.9766
vn 0.3932 -0.0000 -0.9194
vn 0.5622 -0.0000 -0.8270
vn 0.7123 -0.0000 -0.7018
vn 0.8349 -0.0000 -0.5504
vn 0.9256 -0.0000 -0.3785
vn 0.9812 -0.0000 -0.1928
vn 1.0000 -0.0000 -0.0000
vn 0.2110 -0.0420 -0.9766
vn 0.3857 -0.0767 -0.9194
vn 0.5514 -0.1097 -0.8270
vn 0.6987 -0.1390 -0.7018
vn 0.8189 -0.1629 -0.5504
vn 0.9078 -0.1806 -0.3785
vn 0.9624 -0.1914 -0.1928
vn 0.9808 -0.1951 -0.0000
vn 0.1988 -0.0823 -0.9766
vn 0.3633 -0.1505 -0.9194
vn 0.5194 -0.2151 -0.8270
vn 0.6581 -0.2726 -0.7018
vn 0.7714 -0.3195 -0.5504
vn 0.8551 -0.3542 -0.3785
vn 0.9066 -0.3755 -0.1928
vn 0.1789 -0.1195 -0.9766
vn 0.3270 -0.2185 -0.9194
vn 0.4674 -0.3123 -0.8270
vn 0.5923 -0.3958 -0.7018
vn 0.6942 -0.4639 -0.5504
vn 0.7696 -0.5142 -0.3785
vn 0.8159 -0.5452 -0.1928
vn 0.1521 -0.1521 -0.9766
vn 0.2781 -0.2781 -0.9194
vn 0.3975 -0.3975 -0.8270
vn 0.5037 -0.5037 -0.7018
vn 0.5904 -0.5904 -0.5504
vn 0.6545 -0.6545 -0.3785
vn 0.6938 -0.6938 -0.1928
vn 0.7071 -0.7071 -0.0000
vn 0.1195 -0.1789 -0.9766
vn 0.2185 -0.3270 -0.9194
vn 0.3123 -0.4674 -0.8270
vn 0.3958 -0.5923 -0.7018
vn 0.4639 -0.6942 -0.5504
vn 0.5142 -0.7696 -0.3785
vn 0.5452 -0.8159 -0.1928
vn 0.5556 -0.8315 -0.0000
vn 0.0823 -0.1988 -0.9766
vn 0.1505 -0.3633 -0.9194
vn 0.2151 -0.5194 -0.8270
vn 0.2726 -0.6581 -0.7018
vn 0.3195 -0.7714 -0.5504
vn 0.3542 -0.8551 -0.3785
vn 0.3755 -0.9066 -0.1928
vn 0.3827 -0.9239 -0.0000
vn 0.0420 -0.2110 -0.9766
vn 0.0767 -0.3857 -0.9194
vn 0.1097 -0.5514 -0.8270
vn 0.1390 -0.6987 -0.7018
vn 0.1629 -0.8189 -0.5504
vn 0.1806 -0.9078 -0.3785
vn 0.1914 -0.9624 -0.1928
vn 0.1951 -0.9808 -0.0000
vn -0.0000 -0.2151 -0.9766
vn -0.0000 -0.3932 -0.9194
vn -0.0000 -0.5622 -0.8270
vn -0.0000 -0.7123 -0.7018
vn -0.0000 -0.8349 -0.5504
vn -0.0000 -0.9256 -0.3785
vn -0.0000 -0.9812 -0.1928
vn -0.0420 -0.2110 -0.9766
vn -0.0767 -0.3857 -0.9194
vn -0.1097 -0.5514 -0.8270
vn -0.1390 -0.6987 -0.7018
vn -0.1629 -0.8189 -0.5504
vn -0.1806 -0.9078 -0.3785
vn -0.1914 -0.9624 -0.1928
vn -0.0823 -0.1988 -0.9766
vn -0.1505 -0.3633 -0.9194
vn -0.2151 -0.5194 -0.8270
vn -0.2726 -0.6581 -0.7018
vn -0.3195 -0.7714 -0.5504
vn -0.3542 -0.8551 -0.3785
vn -0.3755 -0.9066 -0.1928
vn -0.1195 -0.1789 -0.9766
vn -0.2185 -0.3270 -0.9194
vn -0.3123 -0.4674 -0.8270
vn -0.3958 -0.5923 -0.7018
vn -0.4639 -0.6942 -0.5504
vn -0.5142 -0.7696 -0.3785
vn -0.5452 -0.8159 -0.1928
vn -0.1521 -0.1521 -0.9766
vn -0.2781 -0.2781 -0.9194
vn -0.3975 -0.3975 -0.8270
vn -0.5037 -0.5037 -0.7018
vn -0.5904 -0.5904 -0.5504
vn -0.6545 -0.6545 -0.3785
vn -0.6938 -0.6938 -0.1928
vn -0.1789 -0.1195 -0.9766
vn -0.3270 -0.2185 -0.9194
vn -0.4674 -0.3123 -0.8270
vn -0.5923 -0.3958 -0.7018
vn -0.6942 -0.4639 -0.5504
vn -0.7696 -0.5142 -0.3785
vn -0.8159 -0.5452 -0.1928
vn -0.1988 -0.0823 -0.9766
vn -0.3633 -0.1505 -0.9194
vn -0.5194 -0.2151 -0.8270
vn -0.6581 -0.2726 -0.7018
vn -0.7714 -0.3195 -0.5504
vn -0.8551 -0.3542 -0.3785
vn -0.9066 -0.3755 -0.1928
vn -0.2110 -0.0420 -0.9766
vn -0.3857 -0.0767 -0.9194
vn -0.5514 -0.1097 -0.8270
vn -0.6987 -0.1390 -0.7018
vn -0.8189 -0.1629 -0.5504
vn -0.9078 -0.1806 -0.3785
vn -0.9624 -0.1914 -0.1928
vn -0.2151 -0.0000 -0.9766
vn -0.3932 -0.0000 -0.9194
vn -0.5622 -0.0000 -0.8270
vn -0.7123 -0.0000 -0.7018
vn -0.8349 -0.0000 -0.5504
vn -0.9256 -0.0000 -0.3785
vn -0.9812 -0.0000 -0.1928
vn -1.0000 -0.0000 -0.0000
vn -0.2110 0.0420 -0.9766
vn -0.3857 0.0767 -0.9194
vn -0.5514 0.1097 -0.8270
vn -0.6987 0.1390 -0.7018
vn -0.8189 0.1629 -0.5504
vn -0.9078 0.1806 -0.3785
vn -0.9624 0.1914 -0.1928
vn -0.1988 0.0823 -0.9766
vn -0.3633 0.1505 -0.9194
vn -0.5194 0.2151 -0.8270
vn -0.6581 0.2726 -0.7018
vn -0.7714 0.3195 -0.5504
vn -0.8551 0.3542 -0.3785
vn -0.9066 0.3755 -0.1928
vn -0.1789 0.1195 -0.9766
vn -0.3270 0.2185 -0.9194
vn -0.4674 0.3123 -0.8270
vn -0.5923 0.3958 -0.7018
vn -0.6942 0.4639 -0.5504
vn -0.7696 0.5142 -0.3785
vn -0.8159 0.5452 -0.1928
vn -0.8315 0.5556 -0.0000
vn -0.1521 0.1521 -0.9766
vn -0.2781 0.2781 -0.9194
vn -0.3975 0.3975 -0.8270
vn -0.5037 0.5037 -0.7018
vn -0.5904 0.5904 -0.5504
vn -0.6545 0.6545 -0.3785
vn -0.6938 0.6938 -0.1928
vn -0.1195 0.1789 -0.9766
vn -0.2185 0.3270 -0.9194
vn -0.3123 0.4674 -0.8270
vn -0.3958 0.5923 -0.7018
vn -0.4639 0.6942 -0.5504
vn -0.5142 0.7696 -0.3785
vn -0.5452 0.8159 -0.1928
vn -0.5556 0.8315 -0.0000
vn -0.0823 0.1988 -0.9766
vn -0.1505 0.3633 -0.9194
vn -0.2151 0.5194 -0.8270
vn -0.2726 0.6581 -0.7018
vn -0.3195 0.7714 -0.5504
vn -0.3542 0.8551 -0.3785
vn -0.3755 0.9066 -0.1928
vn -0.3827 0.9239 -0.0000
vn -0.0420 0.2110 -0.9766
vn -0.0767 0.3857 -0.9194
vn -0.1097 0.5514 -0.8270
vn -0.1390 0.6987 -0.7018
vn -0.1629 0.8189 -0.5504
vn -0.1806 0.9078 -0.3785
vn -0.1914 0.9624 -0.1928
vn -0.0000 0.2151 -0.9766
vn -0.0000 0.3932 -0.9194
vn -0.0000 0.7123 -0.7018
vn -0.0000 0.9256 -0.3785
vt 0.561357 0.069571
vt 0.705448 0.057629
vt 0.656082 0.099352
vt 0.812059 0.182806
vt 0.757016 0.269440
vt 0.837440 0.247294
vt 0.605459 0.148778
vt 0.500000 0.064726
vt 0.500000 0.138323
vt 0.618724 0.247958
vt 0.541760 0.304509
vt 0.581423 0.316622
vt 0.500000 0.503897
vt 0.546924 0.392046
vt 0.523958 0.385068
vt 0.639324 0.143565
vt 0.500000 0.066789
vt 0.500000 0.129622
vt 0.219998 0.133234
vt 0.358626 0.052802
vt 0.368729 0.070248
vt 0.464744 0.013162
vt 0.557323 0.059172
vt 0.464831 0.050833
vt 0.371961 0.047683
vt 0.531634 0.033862
vt 0.373715 0.067767
vt 0.540095 0.312463
vt 0.539204 0.410449
vt 0.578175 0.324092
vt 0.556787 0.419890
vt 0.612491 0.342766
vt 0.617164 0.336072
vt 0.668620 0.275863
vt 0.673282 0.165709
vt 0.561426 0.230451
vt 0.618652 0.248112
vt 0.846580 0.143089
vt 0.795092 0.225421
vt 0.889910 0.200473
vt 0.823274 0.199239
vt 0.693442 0.180435
vt 0.738265 0.230626
vt 0.641720 0.367541
vt 0.584541 0.447911
vt 0.664997 0.397279
vt 0.520016 0.404619
vt 0.500000 0.308512
vt 0.500000 0.402647
vt 0.500000 0.224225
vt 0.500000 0.300394
vt 0.709442 0.312149
vt 0.671852 0.392849
vt 0.740687 0.354851
vt 0.889910 0.807321
vt 0.736393 0.828961
vt 0.846580 0.864704
vt 0.846257 0.177137
vt 0.693234 0.177604
vt 0.757895 0.219497
vt 0.500000 0.130872
vt 0.500000 0.224393
vt 0.750149 0.081497
vt 0.593626 0.130661
vt 0.675684 0.161020
vt 0.839674 0.186499
vt 0.718380 0.190516
vt 0.766411 0.255396
vt 0.500000 0.010579
vt 0.500000 0.112722
vt 0.841082 0.163363
vt 0.781605 0.240439
vt 0.863351 0.222922
vt 0.567970 0.403346
vt 0.762542 0.402124
vt 0.689387 0.427712
vt 0.823607 0.141582
vt 0.835248 0.241377
vt 0.781939 0.188166
vt 0.695385 0.503897
vt 0.599356 0.523520
vt 0.691991 0.541088
vt 0.586280 0.418498
vt 0.572085 0.432548
vt 0.740542 0.205276
vt 0.668518 0.276001
vt 0.829291 0.312015
vt 0.709316 0.312264
vt 0.740542 0.354941
vt 0.691991 0.466706
vt 0.593729 0.465376
vt 0.599356 0.484273
vt 0.681832 0.430751
vt 0.856641 0.236336
vt 0.796925 0.304803
vt 0.863926 0.297276
vt 0.775422 0.452305
vt 0.699968 0.465161
vt 0.706827 0.061375
vt 0.751778 0.159099
vt 0.679172 0.114979
vt 0.861398 0.174826
vt 0.801283 0.247302
vt 0.874010 0.235312
vt 0.867475 0.368758
vt 0.901955 0.293296
vt 0.810478 0.328537
vt 0.878149 0.232264
vt 0.810225 0.297325
vt 0.878149 0.294764
vt 0.601189 0.436886
vt 0.990031 0.421731
vt 0.896063 0.503897
vt 0.995672 0.503897
vt 0.935547 0.374991
vt 0.871455 0.438722
vt 0.935547 0.437491
vt 0.612186 0.457790
vt 0.889711 0.271906
vt 0.760925 0.254969
vt 0.798233 0.307147
vt 0.868399 0.438112
vt 0.762385 0.402185
vt 0.775256 0.452336
vt 0.935908 0.442628
vt 0.874275 0.503897
vt 0.937107 0.503897
vt 0.699968 0.542633
vt 0.779672 0.503897
vt 0.703503 0.503897
vt 0.932076 0.381458
vt 0.872067 0.446264
vt 0.936579 0.436272
vt 0.851687 0.383199
vt 0.862206 0.443164
vt 0.868399 0.569682
vt 0.779504 0.503897
vt 0.775256 0.555457
vt 0.947266 0.455069
vt 0.884373 0.517569
vt 0.947266 0.517569
vt 0.618922 0.480409
vt 0.873025 0.503897
vt 0.664997 0.610515
vt 0.593729 0.542418
vt 0.584541 0.559882
vt 0.968764 0.343019
vt 0.888118 0.434591
vt 0.888118 0.573203
vt 0.990031 0.586063
vt 0.964844 0.632803
vt 0.900752 0.569072
vt 0.896919 0.630242
vt 0.398811 0.570907
vt 0.413720 0.589296
vt 0.740687 0.652942
vt 0.689387 0.580081
vt 0.671852 0.614944
vt 0.318168 0.577042
vt 0.415459 0.559882
vt 0.406271 0.542418
vt 0.939453 0.492178
vt 0.875361 0.553447
vt 0.939453 0.554678
vt 0.872067 0.561529
vt 0.935908 0.565165
vt 0.572085 0.575245
vt 0.641720 0.640252
vt 0.968764 0.664775
vt 0.867474 0.639036
vt 0.601250 0.503897
vt 0.618922 0.527385
vt 0.621189 0.503897
vt 0.887726 0.769492
vt 0.832684 0.682858
vt 0.802718 0.738105
vt 0.865075 0.618810
vt 0.836360 0.699898
vt 0.935007 0.737901
vt 0.900391 0.705069
vt 0.790301 0.758493
vt 0.900391 0.767569
vt 0.854170 0.634143
vt 0.762384 0.605608
vt 0.740542 0.652852
vt 0.829290 0.695778
vt 0.936579 0.571522
vt 0.865574 0.503897
vt 0.862206 0.564630
vt 0.913109 0.705003
vt 0.851686 0.624594
vt 0.500000 0.876921
vt 0.438574 0.777342
vt 0.408690 0.867901
vt 0.792080 0.752716
vt 0.709315 0.695529
vt 0.601189 0.570907
vt 0.612186 0.550003
vt 0.556787 0.587904
vt 0.612491 0.665027
vt 0.668619 0.731930
vt 0.647608 0.645918
vt 0.617164 0.671722
vt 0.927734 0.611319
vt 0.852526 0.669698
vt 0.927734 0.673819
vt 0.917969 0.679678
vt 0.830148 0.736044
vt 0.917969 0.742178
vt 0.762542 0.605670
vt 0.578175 0.683702
vt 0.539204 0.597345
vt 0.777381 0.885324
vt 0.757895 0.788296
vt 0.693233 0.830189
vt 0.581422 0.691172
vt 0.618724 0.759835
vt 0.891881 0.807089
vt 0.796129 0.756166
vt 0.586280 0.589296
vt 0.740542 0.802518
vt 0.668518 0.731793
vt 0.932076 0.626336
vt 0.852065 0.675287
vt 0.924791 0.687276
vt 0.846257 0.830657
vt 0.567970 0.604447
vt 0.561463 0.777507
vt 0.541760 0.703284
vt 0.735252 0.796345
vt 0.888672 0.748037
vt 0.778582 0.738961
vt 0.709441 0.695645
vt 0.326718 0.842085
vt 0.331482 0.731793
vt 0.259458 0.802517
vt 0.540094 0.695331
vt 0.500000 0.605147
vt 0.500000 0.699282
vt 0.421825 0.683701
vt 0.479984 0.603175
vt 0.460796 0.597345
vt 0.546924 0.615747
vt 0.750148 0.926296
vt 0.593626 0.877132
vt 0.639145 0.972447
vt 0.663481 0.926706
vt 0.605459 0.859015
vt 0.500000 0.707399
vt 0.500000 0.783569
vt 0.591310 0.867901
vt 0.618652 0.759681
vt 0.561426 0.777342
vt 0.833856 0.872064
vt 0.675684 0.846774
vt 0.912179 0.747762
vt 0.795092 0.782372
vt 0.639324 0.864229
vt 0.745889 0.915519
vt 0.432030 0.604447
vt 0.453076 0.615747
vt 0.638433 0.945366
vt 0.509400 0.873613
vt 0.509400 0.968333
vt 0.458240 0.703284
vt 0.438537 0.777507
vt 0.715978 0.709999
vt 0.826281 0.670354
vt 0.715978 0.681786
vt 0.336519 0.926706
vt 0.306766 0.830189
vt 0.222619 0.885324
vt 0.520016 0.603175
vt 0.523958 0.622725
vt 0.673282 0.842085
vt 0.476042 0.622725
vt 0.383219 0.940802
vt 0.512252 0.869049
vt 0.425430 0.852414
vt 0.410475 0.917821
vt 0.573956 0.860586
vt 0.468497 0.850130
vt 0.418577 0.691172
vt 0.381276 0.759835
vt 0.565485 0.947964
vt 0.670945 0.863912
vt 0.565485 0.874368
vt 0.906250 0.716788
vt 0.652139 0.753410
vt 0.906250 0.779288
vt 0.549409 0.993318
vt 0.435360 0.897190
vt 0.412266 0.949090
vt 0.500000 0.625085
vt 0.132813 0.792959
vt 0.286232 0.716267
vt 0.132813 0.730459
vt 0.459905 0.695331
vt 0.500000 0.783400
vt 0.381348 0.759681
vt 0.358280 0.640252
vt 0.443213 0.587904
vt 0.427915 0.575245
vt 0.153420 0.864704
vt 0.204908 0.782372
vt 0.110090 0.807320
vt 0.331380 0.731930
vt 0.352392 0.645918
vt 0.290558 0.695645
vt 0.075209 0.687276
vt 0.134925 0.618810
vt 0.067924 0.626336
vt 0.648007 0.887446
vt 0.450180 0.768623
vt 0.434494 0.821205
vt 0.254110 0.915519
vt 0.263607 0.828961
vt 0.166144 0.872063
vt 0.324316 0.846774
vt 0.256123 0.806658
vt 0.132813 0.761709
vt 0.242902 0.690133
vt 0.132813 0.699209
vt 0.382836 0.671722
vt 0.249851 0.926296
vt 0.406374 0.877132
vt 0.203871 0.756166
vt 0.108119 0.807089
vt 0.259313 0.652942
vt 0.328148 0.614944
vt 0.091797 0.689443
vt 0.167005 0.622823
vt 0.091797 0.626943
vt 0.252357 0.637684
vt 0.343499 0.635736
vt 0.321811 0.603294
vt 0.083984 0.753897
vt 0.171805 0.685262
vt 0.083984 0.691397
vt 0.290684 0.695529
vt 0.207920 0.752716
vt 0.169567 0.730245
vt 0.087821 0.747762
vt 0.163640 0.699898
vt 0.064993 0.737900
vt 0.387509 0.665027
vt 0.145829 0.634143
vt 0.259458 0.652852
vt 0.237615 0.605608
vt 0.147935 0.675286
vt 0.170710 0.695778
vt 0.400644 0.523520
vt 0.308008 0.541088
vt 0.112273 0.769491
vt 0.242105 0.788296
vt 0.197282 0.738105
vt 0.132526 0.639035
vt 0.031236 0.664775
vt 0.071625 0.638734
vt 0.137794 0.564630
vt 0.063421 0.571522
vt 0.037109 0.601553
vt 0.101201 0.537821
vt 0.037109 0.539053
vt 0.063421 0.436272
vt 0.134426 0.503897
vt 0.137794 0.443164
vt 0.226627 0.543606
vt 0.301827 0.570001
vt 0.293355 0.534743
vt 0.046875 0.640615
vt 0.114799 0.575554
vt 0.046875 0.578115
vt 0.304615 0.503897
vt 0.400644 0.484273
vt 0.308008 0.466706
vt 0.398750 0.503897
vt 0.335003 0.610515
vt 0.387813 0.550003
vt 0.127933 0.561529
vt 0.009969 0.586063
vt 0.103937 0.503897
vt 0.004328 0.503897
vt 0.048828 0.451162
vt 0.116752 0.391223
vt 0.048828 0.388662
vt 0.131601 0.569682
vt 0.224744 0.555457
vt 0.121103 0.566630
vt 0.209998 0.500845
vt 0.116477 0.500845
vt 0.086891 0.705003
vt 0.148313 0.624594
vt 0.060830 0.503897
vt 0.326718 0.165709
vt 0.331482 0.276001
vt 0.381348 0.248112
vt 0.093188 0.483117
vt 0.191671 0.432936
vt 0.098738 0.417404
vt 0.378811 0.503897
vt 0.381079 0.527385
vt 0.318168 0.430751
vt 0.406271 0.465376
vt 0.224578 0.452305
vt 0.310613 0.427712
vt 0.237458 0.402124
vt 0.021484 0.513662
vt 0.085576 0.574931
vt 0.084377 0.513662
vt 0.023438 0.515615
vt 0.087529 0.454347
vt 0.023438 0.453115
vt 0.251471 0.636125
vt 0.306160 0.566137
vt 0.232753 0.587816
vt 0.415459 0.447912
vt 0.335003 0.397279
vt 0.048929 0.385158
vt 0.154291 0.383573
vt 0.089728 0.330751
vt 0.259313 0.354851
vt 0.328148 0.392849
vt 0.111882 0.434590
vt 0.009969 0.421731
vt 0.381079 0.480409
vt 0.134903 0.375306
vt 0.206368 0.460814
vt 0.223728 0.412034
vt 0.064092 0.565165
vt 0.125725 0.503897
vt 0.062893 0.503897
vt 0.057953 0.394450
vt 0.124122 0.468554
vt 0.134642 0.408590
vt 0.387814 0.457790
vt 0.352392 0.361876
vt 0.290559 0.312149
vt 0.056641 0.394522
vt 0.124565 0.459583
vt 0.131849 0.398642
vt 0.237849 0.560905
vt 0.276665 0.502128
vt 0.233317 0.524342
vt 0.233466 0.289453
vt 0.104681 0.306390
vt 0.196159 0.341631
vt 0.141512 0.282415
vt 0.153711 0.384328
vt 0.204609 0.347456
vt 0.331381 0.275864
vt 0.382836 0.336072
vt 0.479984 0.404619
vt 0.421825 0.324092
vt 0.460796 0.410449
vt 0.207920 0.255078
vt 0.259458 0.354941
vt 0.290685 0.312264
vt 0.107192 0.298105
vt 0.149244 0.400861
vt 0.189269 0.351709
vt 0.064092 0.442628
vt 0.134924 0.388984
vt 0.067924 0.381458
vt 0.089641 0.354390
vt 0.190249 0.379447
vt 0.137144 0.314879
vt 0.398811 0.436887
vt 0.104578 0.225651
vt 0.214833 0.189718
vt 0.145675 0.268302
vt 0.132530 0.227197
vt 0.167619 0.323271
vt 0.216750 0.277288
vt 0.418577 0.316622
vt 0.381276 0.247958
vt 0.358280 0.367541
vt 0.427915 0.432548
vt 0.413720 0.418498
vt 0.136505 0.269019
vt 0.198239 0.362806
vt 0.222701 0.316864
vt 0.443213 0.419890
vt 0.387510 0.342766
vt 0.324316 0.161020
vt 0.166144 0.135730
vt 0.256123 0.201135
vt 0.259458 0.205276
vt 0.226446 0.157390
vt 0.177589 0.304526
vt 0.258587 0.221712
vt 0.458240 0.304509
vt 0.438537 0.230287
vt 0.086319 0.359721
vt 0.184201 0.395898
vt 0.136219 0.322088
vt 0.196608 0.142650
vt 0.280156 0.122012
vt 0.214007 0.171208
vt 0.432030 0.403346
vt 0.246058 0.099414
vt 0.326675 0.082883
vt 0.252841 0.118265
vt 0.453076 0.392046
vt 0.108119 0.200705
vt 0.408690 0.139893
vt 0.438574 0.230451
vt 0.254110 0.092274
vt 0.153420 0.143089
vt 0.360676 0.143565
vt 0.336519 0.081087
vt 0.306767 0.177604
vt 0.394541 0.148778
vt 0.360855 0.035346
vt 0.476042 0.385068
vt 0.500000 0.382708
vt 0.249851 0.081497
vt 0.406374 0.130661
vt 0.833856 0.135730
vt 0.743877 0.201135
vt 0.111882 0.573203
vt 0.663481 0.081087
vt 0.777381 0.122470
vt 0.139399 0.215489
vt 0.138744 0.337582
vt 0.189996 0.253999
vt 0.647608 0.361876
vt 0.222619 0.122470
vt 0.242105 0.219497
vt 0.681832 0.577042
vt 0.854171 0.373651
vt 0.127933 0.446264
vt 0.745890 0.092274
vt 0.736393 0.178832
vt 0.031236 0.343019
vt 0.132526 0.368758
vt 0.459906 0.312463
vt 0.167316 0.682858
vt 0.743877 0.806658
vt 0.830433 0.730245
vt 0.928375 0.638734
vt 0.886514 0.806144
vt 0.640625 0.768797
vt 0.640624 0.831629
vt 0.939170 0.503897
vt 0.032475 0.385079
vt 0.112487 0.336128
vt 0.039760 0.324138
vt 0.875108 0.313572
vt 0.779416 0.269449
vt 0.798419 0.327713
vt 0.792080 0.255078
vt 0.153743 0.830656
vt 0.595468 0.182405
vt 0.644646 0.197890
vt 0.609358 0.200799
vt 0.561463 0.230287
vt 0.133759 0.297955
vt 0.212238 0.437697
vt 0.166470 0.373011
vt 0.644646 0.157822
vt 0.644646 0.177856
vt 0.484375 0.137788
vt 0.563193 0.166117
vt 0.484375 0.157948
vt 0.781804 0.138074
vt 0.591310 0.139893
vt 0.639145 0.035346
vt 0.788008 0.103763
vt 0.639635 0.213095
vt 0.714844 0.146475
vt 0.714844 0.208975
vt 0.616496 0.219890
vt 0.644646 0.217923
vt 0.849719 0.207746
vt 0.775422 0.555488
vt 0.928376 0.369059
vt 0.883174 0.456300
vt 0.964844 0.570303
vt 0.842760 0.675558
vt 0.888672 0.810537
vt 0.940272 0.681963
vt 0.394541 0.859015
vt 0.512252 0.963769
vt 0.573956 0.934182
vt 0.728967 0.931603
vt 0.360855 0.972447
vt 0.021484 0.576162
vt 0.086330 0.515615
vt 0.113319 0.429147
vt 0.049749 0.461662
vt 0.056641 0.457022
vt 0.280637 0.534726
vt 0.144673 0.242230
vt 0.090754 0.329602
vt 0.170710 0.312015
vt 0.062390 0.357865
vt 0.261540 0.406478
vt 0.146913 0.388928
vt 0.180538 0.340169
vt 0.085758 0.284409
vt 0.108201 0.329159
vt 0.239685 0.351925
vt 0.094706 0.296997
vt 0.160308 0.267556
vt 0.228428 0.360558
vt 0.146075 0.335574
vt 0.164946 0.307967
vt 0.182894 0.407333
vt 0.126200 0.347683
vt 0.142541 0.336093
vt 0.271099 0.392110
vt 0.149138 0.386383
vt 0.189717 0.337429
vt 0.153743 0.177137
vt 0.859841 0.247303
vt 0.573746 0.014772
vt 0.727050 0.214193
vt 0.286326 0.085234
vt 0.617942 0.028403
vt 0.449769 0.032687
vt 0.746264 0.188312
vt 0.884974 0.204703
vt 0.783915 0.248326
vt 0.797230 0.117871
vt 0.779652 0.192343
vt 0.802940 0.236384
vt 0.867623 0.377551
vt 0.865076 0.388984
vt 0.876561 0.492178
vt 0.812570 0.698934
vt 0.859810 0.608758
vt 0.596222 0.856977
vt 0.752830 0.702595
vt 0.570024 0.935545
vt 0.386923 0.767081
vt 0.668216 0.829891
vt 0.360676 0.864228
vt 0.286232 0.747517
vt 0.179618 0.683309
vt 0.279859 0.681910
vt 0.194074 0.744820
vt 0.105034 0.598992
vt 0.237488 0.590627
vt 0.122084 0.636495
vt 0.112920 0.452394
vt 0.214246 0.552405
vt 0.186699 0.484432
vt 0.300032 0.465161
vt 0.321091 0.602073
vt 0.114896 0.438213
vt 0.139123 0.409020
vt 0.160474 0.163718
vt 0.161949 0.231235
vt 0.128314 0.422249
vt 0.244383 0.107855
vt 0.290791 0.078484
vt 0.203871 0.251628
vt 0.263607 0.178832
vt 0.099035 0.288701
vt 0.779949 0.754854
vt 0.099476 0.392605
vt 0.229807 0.427812
vt 0.627023 0.152609
vt 0.212125 0.440961
vt 0.165808 0.364507
vt 0.191963 0.372823
vt 0.150937 0.390428
vt 0.220610 0.429754
s 1
g Chrome_Logo.002_Chrome
usemtl Chrome
f 267/1/267 19/2/19 27/3/27
f 33/4/33 39/5/39 40/6/40
f 9/7/9 242/8/242 2/9/2
f 15/10/15 6/11/6 14/12/14
f 42/13/42 13/14/13 5/15/5
f 10/16/10 3/17/3 242/18/242
f 238/19/238 3/20/3 4/21/4
f 12/22/12 19/23/19 20/24/20
f 3/25/3 12/26/12 4/27/4
f 6/28/6 13/29/13 14/30/14
f 14/30/14 21/31/21 22/32/22
f 15/10/15 22/33/22 23/34/23
f 16/35/16 7/36/7 15/37/15
f 19/38/19 26/39/26 27/40/27
f 33/41/33 25/42/25 32/43/32
f 29/44/29 35/45/35 36/46/36
f 5/47/5 240/48/240 239/49/239
f 6/11/6 1/50/1 240/51/240
f 30/52/30 36/53/36 37/54/37
f 100/55/100 106/56/106 107/57/107
f 26/58/26 17/59/17 25/60/25
f 7/36/7 241/61/241 1/62/1
f 17/63/17 8/64/8 16/65/16
f 32/66/32 24/67/24 31/68/31
f 8/64/8 2/69/2 241/70/241
f 27/71/27 33/72/33 34/73/34
f 42/13/42 21/74/21 13/14/13
f 45/75/45 36/53/36 44/76/44
f 275/77/275 41/78/41 283/79/283
f 58/80/58 64/81/64 65/82/65
f 42/13/42 28/83/28 21/74/21
f 29/44/29 21/31/21 28/84/28
f 24/85/24 15/37/15 23/86/23
f 38/87/38 30/88/30 37/89/37
f 51/90/51 43/91/43 50/92/50
f 36/46/36 43/91/43 44/93/44
f 41/94/41 48/95/48 49/96/49
f 52/97/52 44/76/44 51/98/51
f 267/99/267 34/100/34 275/101/275
f 34/102/34 40/103/40 41/104/41
f 46/105/46 39/106/39 38/107/38
f 283/108/283 49/109/49 292/110/292
f 42/13/42 35/111/35 28/83/28
f 54/112/54 60/113/60 61/114/61
f 292/115/292 56/116/56 300/117/300
f 43/118/43 35/111/35 42/13/42
f 39/119/39 31/120/31 38/121/38
f 53/122/53 45/123/45 52/124/52
f 56/125/56 62/126/62 63/127/63
f 65/128/65 59/129/59 58/130/58
f 49/131/49 55/132/55 56/125/56
f 55/133/55 47/134/47 54/135/54
f 67/136/67 59/137/59 66/138/66
f 300/139/300 63/140/63 308/141/308
f 42/13/42 50/142/50 43/118/43
f 53/122/53 59/137/59 60/143/60
f 52/97/52 58/130/58 59/129/59
f 80/144/80 71/145/71 79/146/79
f 47/147/47 53/148/53 54/112/54
f 61/114/61 67/149/67 68/150/68
f 78/151/78 70/152/70 77/153/77
f 42/13/42 155/154/155 147/155/147
f 81/156/81 72/157/72 80/158/80
f 164/159/164 155/160/155 163/161/163
f 308/162/308 70/163/70 316/164/316
f 63/127/63 69/165/69 70/166/70
f 80/144/80 87/167/87 88/168/88
f 75/169/75 67/149/67 74/170/74
f 58/80/58 50/92/50 57/171/57
f 42/13/42 64/172/64 57/173/57
f 92/174/92 83/175/83 91/176/91
f 76/177/76 70/166/70 69/165/69
f 75/169/75 82/178/82 83/179/83
f 338/180/338 100/181/100 346/182/346
f 74/183/74 66/138/66 73/184/73
f 74/183/74 81/185/81 82/186/82
f 69/187/69 61/188/61 68/189/68
f 84/190/84 75/191/75 83/175/83
f 118/192/118 125/193/125 126/194/126
f 90/195/90 81/185/81 89/196/89
f 42/13/42 79/197/79 71/198/71
f 88/168/88 94/199/94 95/200/95
f 96/201/96 88/202/88 95/203/95
f 42/13/42 71/198/71 64/172/64
f 78/204/78 85/205/85 86/206/86
f 86/207/86 93/208/93 338/209/338
f 73/210/73 65/128/65 72/157/72
f 102/211/102 94/199/94 101/212/101
f 106/213/106 98/214/98 105/215/105
f 96/201/96 102/216/102 103/217/103
f 91/218/91 82/178/82 90/219/90
f 42/13/42 87/220/87 79/197/79
f 97/221/97 89/196/89 96/222/96
f 77/223/77 84/224/84 85/225/85
f 92/174/92 98/214/98 99/226/99
f 42/13/42 94/227/94 87/220/87
f 110/228/110 102/216/102 109/229/109
f 107/230/107 346/231/346 100/232/100
f 81/156/81 88/202/88 89/233/89
f 134/234/134 141/235/141 142/236/142
f 109/237/109 115/238/115 116/239/116
f 132/240/132 123/241/123 131/242/131
f 42/13/42 101/243/101 94/227/94
f 105/244/105 111/245/111 112/246/112
f 113/247/113 105/215/105 112/248/112
f 110/228/110 116/249/116 117/250/117
f 111/251/111 103/252/103 110/253/110
f 98/254/98 104/255/104 105/244/105
f 93/256/93 99/257/99 100/55/100
f 107/57/107 113/258/113 114/259/114
f 42/13/42 139/260/139 131/261/131
f 112/262/112 118/263/118 119/264/119
f 117/250/117 124/265/124 125/266/125
f 122/267/122 114/268/114 121/269/121
f 128/270/128 135/271/135 136/272/136
f 102/211/102 108/273/108 109/237/109
f 42/13/42 108/274/108 101/243/101
f 104/275/104 96/222/96 103/252/103
f 42/13/42 131/261/131 123/276/123
f 127/277/127 118/278/118 126/279/126
f 128/280/128 119/281/119 127/282/127
f 125/266/125 132/283/132 133/284/133
f 120/285/120 112/286/112 119/287/119
f 354/288/354 114/289/114 362/290/362
f 121/291/121 128/292/128 129/293/129
f 42/13/42 115/294/115 108/274/108
f 130/295/130 137/296/137 138/297/138
f 42/13/42 123/276/123 115/294/115
f 124/298/124 115/238/115 123/241/123
f 118/192/118 110/253/110 117/299/117
f 134/234/134 125/193/125 133/300/133
f 148/301/148 139/302/139 147/303/147
f 137/304/137 144/305/144 145/306/145
f 141/307/141 148/308/148 149/309/149
f 161/310/161 168/311/168 169/312/169
f 122/313/122 129/314/129 130/315/130
f 129/316/129 136/317/136 137/304/137
f 143/318/143 134/319/134 142/320/142
f 138/321/138 145/322/145 146/323/146
f 133/284/133 140/324/140 141/307/141
f 135/325/135 126/326/126 134/319/134
f 143/318/143 150/327/150 151/328/151
f 157/329/157 148/308/148 156/330/156
f 154/331/154 161/332/161 162/333/162
f 165/334/165 156/335/156 164/336/164
f 146/337/146 153/338/153 154/339/154
f 142/236/142 149/340/149 150/341/150
f 145/306/145 152/342/152 153/343/153
f 151/328/151 158/344/158 159/345/159
f 132/240/132 139/302/139 140/346/140
f 42/13/42 147/155/147 139/260/139
f 166/347/166 157/348/157 165/349/165
f 153/343/153 160/350/160 161/310/161
f 158/351/158 149/340/149 157/348/157
f 164/159/164 171/352/171 172/353/172
f 152/354/152 143/355/143 151/356/151
f 159/345/159 166/357/166 167/358/167
f 168/359/168 175/360/175 176/361/176
f 170/362/170 177/363/177 178/364/178
f 191/365/191 183/366/183 190/367/190
f 181/368/181 172/369/172 180/370/180
f 162/371/162 169/372/169 170/373/170
f 180/374/180 186/375/186 187/376/187
f 172/353/172 179/377/179 180/374/180
f 156/378/156 147/303/147 155/160/155
f 42/13/42 163/379/163 155/154/155
f 176/380/176 169/312/169 168/311/168
f 175/381/175 182/382/182 183/383/183
f 193/384/193 200/385/200 201/386/201
f 174/387/174 165/349/165 173/388/173
f 174/389/174 181/390/181 182/391/182
f 160/392/160 167/393/167 168/359/168
f 184/394/184 175/360/175 183/366/183
f 227/395/227 219/396/219 226/397/226
f 182/398/182 188/399/188 189/400/189
f 42/13/42 179/401/179 171/402/171
f 195/403/195 186/375/186 194/404/194
f 188/405/188 195/406/195 196/407/196
f 42/13/42 171/402/171 163/379/163
f 426/408/426 177/409/177 185/410/185
f 426/411/426 192/412/192 193/413/193
f 165/414/165 172/415/172 173/416/173
f 195/403/195 202/417/202 203/418/203
f 199/419/199 206/420/206 207/421/207
f 204/422/204 195/406/195 203/423/203
f 183/383/183 189/424/189 190/425/190
f 42/13/42 186/426/186 179/401/179
f 197/427/197 188/428/188 196/429/196
f 177/430/177 184/431/184 185/432/185
f 199/433/199 190/434/190 198/435/198
f 42/13/42 194/436/194 186/426/186
f 204/422/204 210/437/210 211/438/211
f 448/439/448 200/440/200 208/441/208
f 181/442/181 187/443/187 188/444/188
f 212/445/212 206/446/206 205/447/205
f 214/448/214 206/449/206 213/450/213
f 219/451/219 210/437/210 218/452/218
f 231/453/231 225/454/225 224/455/224
f 212/456/212 204/457/204 211/458/211
f 206/459/206 197/460/197 205/461/205
f 192/462/192 199/463/199 200/464/200
f 208/465/208 214/466/214 215/467/215
f 42/13/42 202/468/202 194/436/194
f 216/469/216 223/470/223 463/471/463
f 222/472/222 213/473/213 221/474/221
f 219/451/219 225/475/225 226/476/226
f 210/477/210 202/417/202 209/478/209
f 42/13/42 209/479/209 202/468/202
f 205/480/205 196/481/196 204/482/204
f 210/477/210 217/483/217 218/484/218
f 227/485/227 221/486/221 220/487/220
f 220/488/220 211/458/211 219/396/219
f 218/484/218 224/455/224 225/454/225
f 223/489/223 229/490/229 230/491/230
f 226/476/226 232/492/232 233/493/233
f 448/494/448 215/495/215 216/496/216
f 463/497/463 230/498/230 471/499/471
f 42/13/42 217/500/217 209/479/209
f 471/501/471 237/502/237 238/503/238
f 42/13/42 224/504/224 217/500/217
f 213/505/213 220/487/220 221/486/221
f 234/506/234 226/397/226 233/507/233
f 237/508/237 242/18/242 3/17/3
f 230/509/230 236/510/236 237/508/237
f 236/511/236 228/512/228 235/513/235
f 235/514/235 241/70/241 2/69/2
f 42/13/42 231/515/231 224/504/224
f 1/62/1 234/506/234 233/507/233
f 42/13/42 239/516/239 231/515/231
f 233/493/233 240/51/240 1/50/1
f 228/517/228 234/518/234 235/514/235
f 25/519/25 16/65/16 24/520/24
f 167/358/167 174/521/174 175/381/175
f 10/522/10 17/59/17 18/523/18
f 2/9/2 236/511/236 235/513/235
f 215/524/215 222/525/222 223/526/223
f 30/52/30 22/33/22 29/527/29
f 229/528/229 221/529/221 228/512/228
f 65/82/65 71/145/71 72/530/72
f 38/87/38 45/123/45 46/531/46
f 42/13/42 5/15/5 239/516/239
f 191/532/191 185/432/185 184/431/184
f 11/533/11 18/534/18 19/38/19
f 198/535/198 189/424/189 197/536/197
f 232/537/232 239/49/239 240/48/240
f 160/392/160 151/356/151 159/538/159
f 91/218/91 97/539/97 98/254/98
f 92/540/92 85/225/85 84/224/84
f 76/541/76 68/189/68 75/191/75
f 114/542/114 120/543/120 121/544/121
f 62/545/62 54/135/54 61/188/61
f 200/546/200 207/547/207 208/548/208
f 42/13/42 57/173/57 50/142/50
f 48/549/48 39/550/39 47/551/47
f 31/552/31 23/86/23 30/88/30
f 144/553/144 135/271/135 143/355/143
f 259/554/259 267/555/267 266/556/266
f 280/5/280 273/4/273 281/6/281
f 250/7/250 482/8/482 251/522/251
f 254/12/254 248/557/248 255/10/255
f 284/13/284 246/15/246 253/14/253
f 251/16/251 245/17/245 252/533/252
f 238/558/238 245/559/245 478/560/478
f 259/554/259 12/561/12 20/562/20
f 4/563/4 252/564/252 245/565/245
f 253/29/253 247/28/247 254/30/254
f 260/31/260 254/30/254 261/32/261
f 261/33/261 255/10/255 262/34/262
f 248/36/248 256/35/256 255/37/255
f 265/39/265 259/38/259 266/40/266
f 273/41/273 264/42/264 265/566/265
f 277/46/277 268/84/268 269/44/269
f 246/47/246 480/48/480 247/28/247
f 247/11/247 243/50/243 248/557/248
f 277/53/277 270/52/270 278/54/278
f 352/56/352 345/55/345 353/57/353
f 265/58/265 257/59/257 258/523/258
f 248/36/248 481/61/481 249/567/249
f 256/65/256 250/568/250 257/63/257
f 271/68/271 264/569/264 272/66/272
f 249/64/249 244/69/244 250/568/250
f 273/72/273 266/71/266 274/73/274
f 284/13/284 253/14/253 260/74/260
f 287/75/287 277/53/277 278/54/278
f 282/570/282 275/571/275 283/572/283
f 310/82/310 301/171/301 302/80/302
f 284/13/284 260/74/260 268/83/268
f 269/44/269 260/31/260 261/32/261
f 263/85/263 255/37/255 256/35/256
f 279/87/279 270/88/270 271/552/271
f 285/91/285 294/90/294 293/92/293
f 285/91/285 277/46/277 286/93/286
f 290/95/290 282/94/282 291/96/291
f 295/97/295 286/76/286 287/75/287
f 274/573/274 267/555/267 275/574/275
f 281/103/281 274/102/274 282/104/282
f 288/105/288 280/106/280 289/147/289
f 291/109/291 283/108/283 292/110/292
f 284/13/284 268/83/268 276/111/276
f 305/114/305 296/148/296 297/112/297
f 299/116/299 292/115/292 300/117/300
f 285/118/285 284/13/284 276/111/276
f 279/121/279 272/575/272 280/119/280
f 295/124/295 288/531/288 296/122/296
f 306/126/306 299/125/299 307/127/307
f 310/128/310 303/129/303 311/576/311
f 298/132/298 291/131/291 299/125/299
f 298/133/298 289/134/289 290/577/290
f 311/138/311 304/143/304 312/136/312
f 308/141/308 299/578/299 300/139/300
f 284/13/284 285/118/285 293/142/293
f 304/143/304 295/124/295 296/122/296
f 303/129/303 294/98/294 295/97/295
f 324/146/324 318/530/318 325/144/325
f 296/148/296 289/147/289 297/112/297
f 312/149/312 305/114/305 313/150/313
f 323/153/323 316/579/316 78/151/78
f 284/13/284 391/155/391 398/154/398
f 318/157/318 326/156/326 325/158/325
f 405/161/405 399/378/399 406/159/406
f 315/163/315 308/162/308 316/164/316
f 314/165/314 307/127/307 315/166/315
f 332/168/332 324/146/324 325/144/325
f 321/169/321 312/149/312 313/150/313
f 301/171/301 294/90/294 302/80/302
f 284/13/284 301/173/301 309/172/309
f 336/174/336 328/175/328 329/190/329
f 314/165/314 323/223/323 322/177/322
f 327/178/327 321/169/321 328/179/328
f 345/181/345 338/180/338 346/182/346
f 320/183/320 311/138/311 312/136/312
f 326/185/326 320/183/320 327/186/327
f 314/187/314 305/188/305 306/545/306
f 329/190/329 321/191/321 322/541/322
f 373/194/373 365/299/365 366/192/366
f 334/195/334 326/185/326 327/186/327
f 284/13/284 317/198/317 324/197/324
f 340/200/340 331/167/331 332/168/332
f 340/203/340 333/233/333 341/201/341
f 284/13/284 309/172/309 317/198/317
f 330/205/330 78/204/78 86/206/86
f 338/209/338 330/580/330 86/207/86
f 319/210/319 310/128/310 311/576/311
f 348/211/348 339/199/339 340/200/340
f 352/213/352 343/214/343 344/226/344
f 349/217/349 340/203/340 341/201/341
f 335/218/335 327/178/327 328/179/328
f 284/13/284 324/197/324 331/220/331
f 333/196/333 342/221/342 341/222/341
f 329/224/329 323/223/323 330/225/330
f 343/214/343 336/174/336 344/226/344
f 284/13/284 331/220/331 339/227/339
f 357/228/357 348/216/348 349/217/349
f 353/230/353 346/231/346 354/581/354
f 332/202/332 326/156/326 333/233/333
f 387/236/387 379/300/379 380/234/380
f 364/239/364 355/273/355 356/237/356
f 370/241/370 378/240/378 377/242/377
f 284/13/284 339/227/339 347/243/347
f 358/245/358 351/244/351 359/246/359
f 360/247/360 351/215/351 352/213/352
f 364/249/364 357/228/357 365/250/365
f 349/252/349 358/251/358 357/253/357
f 350/255/350 343/254/343 351/244/351
f 344/257/344 337/256/337 345/55/345
f 360/258/360 353/57/353 361/259/361
f 284/13/284 377/261/377 384/260/384
f 366/263/366 359/262/359 367/264/367
f 371/265/371 365/250/365 372/266/372
f 369/269/369 362/582/362 122/267/122
f 382/272/382 374/583/374 375/270/375
f 355/273/355 348/211/348 356/237/356
f 284/13/284 347/243/347 355/274/355
f 350/275/350 341/222/341 342/221/342
f 284/13/284 370/276/370 377/261/377
f 373/279/373 367/584/367 374/277/374
f 375/280/375 367/281/367 368/585/368
f 378/283/378 372/266/372 379/284/379
f 368/285/368 359/286/359 360/586/360
f 361/289/361 354/288/354 362/290/362
f 375/292/375 369/291/369 376/293/376
f 284/13/284 355/274/355 363/294/363
f 383/296/383 130/295/130 138/297/138
f 284/13/284 363/294/363 370/276/370
f 370/241/370 364/239/364 371/298/371
f 366/192/366 357/253/357 358/251/358
f 380/234/380 372/193/372 373/194/373
f 384/302/384 392/301/392 391/303/391
f 389/305/389 383/304/383 390/306/390
f 393/309/393 385/324/385 386/307/386
f 410/311/410 404/310/404 411/312/411
f 376/314/376 122/313/122 130/315/130
f 382/317/382 376/316/376 383/304/383
f 388/318/388 380/319/380 381/325/381
f 390/322/390 138/321/138 146/323/146
f 385/324/385 379/284/379 386/307/386
f 380/319/380 374/587/374 381/325/381
f 395/328/395 387/320/387 388/318/388
f 399/330/399 393/309/393 400/329/400
f 404/332/404 154/331/154 162/333/162
f 399/335/399 407/334/407 406/336/406
f 397/338/397 146/337/146 154/339/154
f 394/341/394 386/235/386 387/236/387
f 396/342/396 390/306/390 397/343/397
f 401/344/401 395/328/395 402/345/402
f 384/302/384 378/240/378 385/346/385
f 284/13/284 384/260/384 391/155/391
f 408/347/408 400/348/400 401/351/401
f 403/350/403 397/343/397 404/310/404
f 401/351/401 393/340/393 394/341/394
f 412/352/412 406/159/406 413/353/413
f 395/356/395 389/553/389 396/354/396
f 408/357/408 402/345/402 409/358/409
f 416/360/416 410/359/410 417/361/417
f 418/363/418 170/362/170 178/364/178
f 432/365/432 423/366/423 424/394/424
f 413/369/413 421/368/421 420/370/420
f 411/372/411 162/371/162 170/373/170
f 428/376/428 419/377/419 420/374/420
f 419/377/419 413/353/413 420/374/420
f 398/160/398 392/301/392 399/378/399
f 284/13/284 398/154/398 405/379/405
f 417/380/417 411/312/411 418/430/418
f 422/382/422 416/381/416 423/383/423
f 440/385/440 193/384/193 201/386/201
f 415/387/415 407/349/407 408/347/408
f 421/390/421 415/389/415 422/391/422
f 410/359/410 402/538/402 403/392/403
f 424/394/424 416/360/416 417/361/417
f 467/395/467 458/396/458 459/488/459
f 429/399/429 422/398/422 430/400/430
f 284/13/284 412/402/412 419/401/419
f 434/404/434 428/376/428 435/403/435
f 435/406/435 429/405/429 436/407/436
f 284/13/284 405/379/405 412/402/412
f 425/410/425 178/588/178 426/408/426
f 193/413/193 425/589/425 426/411/426
f 413/415/413 407/414/407 414/416/414
f 441/417/441 435/403/435 442/418/442
f 446/421/446 438/590/438 439/419/439
f 442/423/442 436/407/436 443/422/443
f 430/424/430 423/383/423 431/425/431
f 284/13/284 419/401/419 427/426/427
f 429/428/429 437/427/437 436/429/436
f 424/431/424 418/430/418 425/432/425
f 438/435/438 432/591/432 439/433/439
f 284/13/284 427/426/427 434/436/434
f 450/437/450 443/422/443 451/438/451
f 447/441/447 201/592/201 448/439/448
f 429/444/429 420/593/420 421/442/421
f 452/445/452 445/446/445 453/594/453
f 454/448/454 445/449/445 446/595/446
f 457/452/457 451/438/451 458/451/458
f 472/453/472 465/454/465 473/537/473
f 452/456/452 443/457/443 444/596/444
f 445/459/445 437/460/437 438/597/438
f 439/463/439 433/462/433 440/464/440
f 454/466/454 447/465/447 455/467/455
f 284/13/284 434/436/434 441/468/441
f 462/598/462 216/599/216 463/600/463
f 460/474/460 454/601/454 461/472/461
f 465/475/465 458/451/458 466/476/466
f 450/477/450 441/417/441 442/418/442
f 284/13/284 441/468/441 449/479/449
f 444/480/444 436/481/436 437/602/437
f 456/483/456 450/477/450 457/484/457
f 459/487/459 468/517/468 467/485/467
f 458/396/458 452/456/452 459/488/459
f 464/455/464 457/484/457 465/454/465
f 469/603/469 462/604/462 470/605/470
f 473/492/473 466/476/466 474/493/474
f 455/495/455 448/494/448 216/496/216
f 470/606/470 463/607/463 471/608/471
f 284/13/284 449/479/449 456/500/456
f 478/609/478 471/610/471 238/611/238
f 284/13/284 456/500/456 464/504/464
f 459/487/459 453/505/453 460/486/460
f 474/507/474 467/395/467 475/506/475
f 482/18/482 478/508/478 245/17/245
f 477/510/477 470/509/470 478/508/478
f 477/511/477 468/512/468 469/528/469
f 481/70/481 476/514/476 244/69/244
f 284/13/284 464/504/464 472/515/472
f 243/62/243 475/506/475 481/61/481
f 284/13/284 472/515/472 479/516/479
f 480/51/480 474/493/474 243/50/243
f 475/518/475 468/517/468 476/514/476
f 263/520/263 257/63/257 264/519/264
f 415/521/415 409/358/409 416/381/416
f 257/59/257 251/522/251 258/523/258
f 476/513/476 482/8/482 244/9/244
f 461/612/461 455/613/455 462/614/462
f 270/52/270 261/33/261 262/34/262
f 469/528/469 460/529/460 461/615/461
f 318/530/318 309/81/309 310/82/310
f 287/123/287 279/87/279 288/531/288
f 284/13/284 479/516/479 246/15/246
f 432/532/432 425/432/425 433/462/433
f 258/534/258 252/533/252 259/38/259
f 438/535/438 430/424/430 431/425/431
f 479/49/479 473/537/473 480/48/480
f 402/538/402 396/354/396 403/392/403
f 342/539/342 335/218/335 343/254/343
f 336/540/336 330/225/330 337/256/337
f 322/541/322 313/189/313 314/187/314
f 368/543/368 361/542/361 369/544/369
f 297/135/297 306/545/306 305/188/305
f 446/547/446 440/546/440 447/548/447
f 284/13/284 293/142/293 301/173/301
f 290/549/290 280/550/280 281/616/281
f 270/88/270 263/85/263 271/552/271
f 381/271/381 389/553/389 388/355/388
f 267/1/267 20/617/20 19/2/19
f 33/4/33 32/618/32 39/5/39
f 9/7/9 10/522/10 242/8/242
f 15/10/15 7/557/7 6/11/6
f 10/16/10 11/533/11 3/17/3
f 238/19/238 237/619/237 3/20/3
f 12/22/12 11/620/11 19/23/19
f 3/25/3 11/621/11 12/26/12
f 6/28/6 5/47/5 13/29/13
f 14/30/14 13/29/13 21/31/21
f 15/10/15 14/12/14 22/33/22
f 16/35/16 8/567/8 7/36/7
f 19/38/19 18/534/18 26/39/26
f 33/41/33 26/566/26 25/42/25
f 29/44/29 28/84/28 35/45/35
f 5/47/5 6/28/6 240/48/240
f 6/11/6 7/557/7 1/50/1
f 30/52/30 29/527/29 36/53/36
f 100/55/100 99/257/99 106/56/106
f 26/58/26 18/523/18 17/59/17
f 7/36/7 8/567/8 241/61/241
f 17/63/17 9/568/9 8/64/8
f 32/66/32 25/569/25 24/67/24
f 8/64/8 9/568/9 2/69/2
f 27/71/27 26/622/26 33/72/33
f 45/75/45 37/54/37 36/53/36
f 275/77/275 34/623/34 41/78/41
f 58/80/58 57/171/57 64/81/64
f 29/44/29 22/32/22 21/31/21
f 24/85/24 16/35/16 15/37/15
f 38/87/38 31/552/31 30/88/30
f 51/90/51 44/93/44 43/91/43
f 36/46/36 35/45/35 43/91/43
f 41/94/41 40/624/40 48/95/48
f 52/97/52 45/75/45 44/76/44
f 267/99/267 27/625/27 34/100/34
f 34/102/34 33/626/33 40/103/40
f 46/105/46 47/147/47 39/106/39
f 283/108/283 41/627/41 49/109/49
f 54/112/54 53/148/53 60/113/60
f 292/115/292 49/628/49 56/116/56
f 39/119/39 32/575/32 31/120/31
f 53/122/53 46/531/46 45/123/45
f 56/125/56 55/132/55 62/126/62
f 65/128/65 66/576/66 59/129/59
f 49/131/49 48/629/48 55/132/55
f 55/133/55 48/577/48 47/134/47
f 67/136/67 60/143/60 59/137/59
f 300/139/300 56/578/56 63/140/63
f 53/122/53 52/124/52 59/137/59
f 52/97/52 51/98/51 58/130/58
f 80/144/80 72/530/72 71/145/71
f 47/147/47 46/105/46 53/148/53
f 61/114/61 60/113/60 67/149/67
f 78/151/78 316/579/316 70/152/70
f 81/156/81 73/210/73 72/157/72
f 164/159/164 156/378/156 155/160/155
f 308/162/308 63/630/63 70/163/70
f 63/127/63 62/126/62 69/165/69
f 80/144/80 79/146/79 87/167/87
f 75/169/75 68/150/68 67/149/67
f 58/80/58 51/90/51 50/92/50
f 92/174/92 84/190/84 83/175/83
f 76/177/76 77/223/77 70/166/70
f 75/169/75 74/170/74 82/178/82
f 338/180/338 93/631/93 100/181/100
f 74/183/74 67/136/67 66/138/66
f 74/183/74 73/184/73 81/185/81
f 69/187/69 62/545/62 61/188/61
f 84/190/84 76/541/76 75/191/75
f 118/192/118 117/299/117 125/193/125
f 90/195/90 82/186/82 81/185/81
f 88/168/88 87/167/87 94/199/94
f 96/201/96 89/233/89 88/202/88
f 78/204/78 77/632/77 85/205/85
f 86/207/86 85/580/85 93/208/93
f 73/210/73 66/576/66 65/128/65
f 102/211/102 95/200/95 94/199/94
f 106/213/106 99/226/99 98/214/98
f 96/201/96 95/203/95 102/216/102
f 91/218/91 83/179/83 82/178/82
f 97/221/97 90/195/90 89/196/89
f 77/223/77 76/177/76 84/224/84
f 92/174/92 91/176/91 98/214/98
f 110/228/110 103/217/103 102/216/102
f 107/230/107 354/581/354 346/231/346
f 81/156/81 80/158/80 88/202/88
f 134/234/134 133/300/133 141/235/141
f 109/237/109 108/273/108 115/238/115
f 132/240/132 124/298/124 123/241/123
f 105/244/105 104/255/104 111/245/111
f 113/247/113 106/213/106 105/215/105
f 110/228/110 109/229/109 116/249/116
f 111/251/111 104/275/104 103/252/103
f 98/254/98 97/539/97 104/255/104
f 93/256/93 92/540/92 99/257/99
f 107/57/107 106/56/106 113/258/113
f 112/262/112 111/633/111 118/263/118
f 117/250/117 116/249/116 124/265/124
f 122/267/122 362/582/362 114/268/114
f 128/270/128 127/583/127 135/271/135
f 102/211/102 101/212/101 108/273/108
f 104/275/104 97/221/97 96/222/96
f 127/277/127 119/584/119 118/278/118
f 128/280/128 120/585/120 119/281/119
f 125/266/125 124/265/124 132/283/132
f 120/285/120 113/586/113 112/286/112
f 354/288/354 107/634/107 114/289/114
f 121/291/121 120/635/120 128/292/128
f 130/295/130 129/636/129 137/296/137
f 124/298/124 116/239/116 115/238/115
f 118/192/118 111/251/111 110/253/110
f 134/234/134 126/194/126 125/193/125
f 148/301/148 140/346/140 139/302/139
f 137/304/137 136/317/136 144/305/144
f 141/307/141 140/324/140 148/308/148
f 161/310/161 160/350/160 168/311/168
f 122/313/122 121/637/121 129/314/129
f 129/316/129 128/638/128 136/317/136
f 143/318/143 135/325/135 134/319/134
f 138/321/138 137/639/137 145/322/145
f 133/284/133 132/283/132 140/324/140
f 135/325/135 127/587/127 126/326/126
f 143/318/143 142/320/142 150/327/150
f 157/329/157 149/309/149 148/308/148
f 154/331/154 153/640/153 161/332/161
f 165/334/165 157/641/157 156/335/156
f 146/337/146 145/642/145 153/338/153
f 142/236/142 141/235/141 149/340/149
f 145/306/145 144/305/144 152/342/152
f 151/328/151 150/327/150 158/344/158
f 132/240/132 131/242/131 139/302/139
f 166/347/166 158/351/158 157/348/157
f 153/343/153 152/342/152 160/350/160
f 158/351/158 150/341/150 149/340/149
f 164/159/164 163/161/163 171/352/171
f 152/354/152 144/553/144 143/355/143
f 159/345/159 158/344/158 166/357/166
f 168/359/168 167/393/167 175/360/175
f 170/362/170 169/643/169 177/363/177
f 191/365/191 184/394/184 183/366/183
f 181/368/181 173/644/173 172/369/172
f 162/371/162 161/645/161 169/372/169
f 180/374/180 179/377/179 186/375/186
f 172/353/172 171/352/171 179/377/179
f 156/378/156 148/301/148 147/303/147
f 176/380/176 177/430/177 169/312/169
f 175/381/175 174/521/174 182/382/182
f 193/384/193 192/646/192 200/385/200
f 174/387/174 166/347/166 165/349/165
f 174/389/174 173/647/173 181/390/181
f 160/392/160 159/538/159 167/393/167
f 184/394/184 176/361/176 175/360/175
f 227/395/227 220/488/220 219/396/219
f 182/398/182 181/648/181 188/399/188
f 195/403/195 187/376/187 186/375/186
f 188/405/188 187/649/187 195/406/195
f 426/408/426 178/588/178 177/409/177
f 426/411/426 185/589/185 192/412/192
f 165/414/165 164/650/164 172/415/172
f 195/403/195 194/404/194 202/417/202
f 199/419/199 198/590/198 206/420/206
f 204/422/204 196/407/196 195/406/195
f 183/383/183 182/382/182 189/424/189
f 197/427/197 189/651/189 188/428/188
f 177/430/177 176/380/176 184/431/184
f 199/433/199 191/591/191 190/434/190
f 204/422/204 203/423/203 210/437/210
f 448/439/448 201/592/201 200/440/200
f 181/442/181 180/593/180 187/443/187
f 212/445/212 213/594/213 206/446/206
f 214/448/214 207/595/207 206/449/206
f 219/451/219 211/438/211 210/437/210
f 231/453/231 232/537/232 225/454/225
f 212/456/212 205/596/205 204/457/204
f 206/459/206 198/597/198 197/460/197
f 192/462/192 191/532/191 199/463/199
f 208/465/208 207/652/207 214/466/214
f 216/469/216 215/653/215 223/470/223
f 222/472/222 214/601/214 213/473/213
f 219/451/219 218/452/218 225/475/225
f 210/477/210 203/418/203 202/417/202
f 205/480/205 197/602/197 196/481/196
f 210/477/210 209/478/209 217/483/217
f 227/485/227 228/517/228 221/486/221
f 220/488/220 212/456/212 211/458/211
f 218/484/218 217/483/217 224/455/224
f 223/489/223 222/654/222 229/490/229
f 226/476/226 225/475/225 232/492/232
f 448/494/448 208/655/208 215/495/215
f 463/497/463 223/656/223 230/498/230
f 471/501/471 230/657/230 237/502/237
f 213/505/213 212/658/212 220/487/220
f 234/506/234 227/395/227 226/397/226
f 237/508/237 236/510/236 242/18/242
f 230/509/230 229/659/229 236/510/236
f 236/511/236 229/528/229 228/512/228
f 235/514/235 234/518/234 241/70/241
f 1/62/1 241/61/241 234/506/234
f 233/493/233 232/492/232 240/51/240
f 228/517/228 227/485/227 234/518/234
f 25/519/25 17/63/17 16/65/16
f 167/358/167 166/357/166 174/521/174
f 10/522/10 9/7/9 17/59/17
f 2/9/2 242/8/242 236/511/236
f 215/524/215 214/660/214 222/525/222
f 30/52/30 23/34/23 22/33/22
f 229/528/229 222/615/222 221/529/221
f 65/82/65 64/81/64 71/145/71
f 38/87/38 37/89/37 45/123/45
f 191/532/191 192/462/192 185/432/185
f 11/533/11 10/16/10 18/534/18
f 198/535/198 190/425/190 189/424/189
f 232/537/232 231/453/231 239/49/239
f 160/392/160 152/354/152 151/356/151
f 91/218/91 90/219/90 97/539/97
f 92/540/92 93/256/93 85/225/85
f 76/541/76 69/187/69 68/189/68
f 114/542/114 113/661/113 120/543/120
f 62/545/62 55/133/55 54/135/54
f 200/546/200 199/662/199 207/547/207
f 48/549/48 40/616/40 39/550/39
f 31/552/31 24/85/24 23/86/23
f 144/553/144 136/272/136 135/271/135
f 259/554/259 20/562/20 267/555/267
f 280/5/280 272/618/272 273/4/273
f 250/7/250 244/9/244 482/8/482
f 254/12/254 247/11/247 248/557/248
f 251/16/251 482/18/482 245/17/245
f 238/558/238 4/663/4 245/559/245
f 259/554/259 252/564/252 12/561/12
f 4/563/4 12/561/12 252/564/252
f 253/29/253 246/47/246 247/28/247
f 260/31/260 253/29/253 254/30/254
f 261/33/261 254/12/254 255/10/255
f 248/36/248 249/567/249 256/35/256
f 265/39/265 258/534/258 259/38/259
f 273/41/273 272/43/272 264/42/264
f 277/46/277 276/45/276 268/84/268
f 246/47/246 479/49/479 480/48/480
f 247/11/247 480/51/480 243/50/243
f 277/53/277 269/527/269 270/52/270
f 352/56/352 344/257/344 345/55/345
f 265/58/265 264/60/264 257/59/257
f 248/36/248 243/62/243 481/61/481
f 256/65/256 249/64/249 250/568/250
f 271/68/271 263/67/263 264/569/264
f 249/64/249 481/70/481 244/69/244
f 273/72/273 265/622/265 266/71/266
f 287/75/287 286/76/286 277/53/277
f 282/570/282 274/664/274 275/571/275
f 310/82/310 309/81/309 301/171/301
f 269/44/269 268/84/268 260/31/260
f 263/85/263 262/86/262 255/37/255
f 279/87/279 278/89/278 270/88/270
f 285/91/285 286/93/286 294/90/294
f 285/91/285 276/45/276 277/46/277
f 290/95/290 281/624/281 282/94/282
f 295/97/295 294/98/294 286/76/286
f 274/573/274 266/556/266 267/555/267
f 281/103/281 273/626/273 274/102/274
f 288/105/288 279/107/279 280/106/280
f 291/109/291 282/627/282 283/108/283
f 305/114/305 304/113/304 296/148/296
f 299/116/299 291/628/291 292/115/292
f 279/121/279 271/120/271 272/575/272
f 295/124/295 287/123/287 288/531/288
f 306/126/306 298/132/298 299/125/299
f 310/128/310 302/130/302 303/129/303
f 298/132/298 290/629/290 291/131/291
f 298/133/298 297/135/297 289/134/289
f 311/138/311 303/137/303 304/143/304
f 308/141/308 307/140/307 299/578/299
f 304/143/304 303/137/303 295/124/295
f 303/129/303 302/130/302 294/98/294
f 324/146/324 317/145/317 318/530/318
f 296/148/296 288/105/288 289/147/289
f 312/149/312 304/113/304 305/114/305
f 323/153/323 315/152/315 316/579/316
f 318/157/318 319/210/319 326/156/326
f 405/161/405 398/160/398 399/378/399
f 315/163/315 307/630/307 308/162/308
f 314/165/314 306/126/306 307/127/307
f 332/168/332 331/167/331 324/146/324
f 321/169/321 320/170/320 312/149/312
f 301/171/301 293/92/293 294/90/294
f 336/174/336 335/176/335 328/175/328
f 314/165/314 315/166/315 323/223/323
f 327/178/327 320/170/320 321/169/321
f 345/181/345 337/631/337 338/180/338
f 320/183/320 319/184/319 311/138/311
f 326/185/326 319/184/319 320/183/320
f 314/187/314 313/189/313 305/188/305
f 329/190/329 328/175/328 321/191/321
f 373/194/373 372/193/372 365/299/365
f 334/195/334 333/196/333 326/185/326
f 340/200/340 339/199/339 331/167/331
f 340/203/340 332/202/332 333/233/333
f 330/205/330 323/632/323 78/204/78
f 338/209/338 337/208/337 330/580/330
f 319/210/319 318/157/318 310/128/310
f 348/211/348 347/212/347 339/199/339
f 352/213/352 351/215/351 343/214/343
f 349/217/349 348/216/348 340/203/340
f 335/218/335 334/219/334 327/178/327
f 333/196/333 334/195/334 342/221/342
f 329/224/329 322/177/322 323/223/323
f 343/214/343 335/176/335 336/174/336
f 357/228/357 356/229/356 348/216/348
f 353/230/353 345/232/345 346/231/346
f 332/202/332 325/158/325 326/156/326
f 387/236/387 386/235/386 379/300/379
f 364/239/364 363/238/363 355/273/355
f 370/241/370 371/298/371 378/240/378
f 358/245/358 350/255/350 351/244/351
f 360/247/360 359/248/359 351/215/351
f 364/249/364 356/229/356 357/228/357
f 349/252/349 350/275/350 358/251/358
f 350/255/350 342/539/342 343/254/343
f 344/257/344 336/540/336 337/256/337
f 360/258/360 352/56/352 353/57/353
f 366/263/366 358/633/358 359/262/359
f 371/265/371 364/249/364 365/250/365
f 369/269/369 361/268/361 362/582/362
f 382/272/382 381/271/381 374/583/374
f 355/273/355 347/212/347 348/211/348
f 350/275/350 349/252/349 341/222/341
f 373/279/373 366/278/366 367/584/367
f 375/280/375 374/282/374 367/281/367
f 378/283/378 371/265/371 372/266/372
f 368/285/368 367/287/367 359/286/359
f 361/289/361 353/634/353 354/288/354
f 375/292/375 368/635/368 369/291/369
f 383/296/383 376/636/376 130/295/130
f 370/241/370 363/238/363 364/239/364
f 366/192/366 365/299/365 357/253/357
f 380/234/380 379/300/379 372/193/372
f 384/302/384 385/346/385 392/301/392
f 389/305/389 382/317/382 383/304/383
f 393/309/393 392/308/392 385/324/385
f 410/311/410 403/350/403 404/310/404
f 376/314/376 369/637/369 122/313/122
f 382/317/382 375/638/375 376/316/376
f 388/318/388 387/320/387 380/319/380
f 390/322/390 383/639/383 138/321/138
f 385/324/385 378/283/378 379/284/379
f 380/319/380 373/326/373 374/587/374
f 395/328/395 394/327/394 387/320/387
f 399/330/399 392/308/392 393/309/393
f 404/332/404 397/640/397 154/331/154
f 399/335/399 400/641/400 407/334/407
f 397/338/397 390/642/390 146/337/146
f 394/341/394 393/340/393 386/235/386
f 396/342/396 389/305/389 390/306/390
f 401/344/401 394/327/394 395/328/395
f 384/302/384 377/242/377 378/240/378
f 408/347/408 407/349/407 400/348/400
f 403/350/403 396/342/396 397/343/397
f 401/351/401 400/348/400 393/340/393
f 412/352/412 405/161/405 406/159/406
f 395/356/395 388/355/388 389/553/389
f 408/357/408 401/344/401 402/345/402
f 416/360/416 409/393/409 410/359/410
f 418/363/418 411/643/411 170/362/170
f 432/365/432 431/367/431 423/366/423
f 413/369/413 414/644/414 421/368/421
f 411/372/411 404/645/404 162/371/162
f 428/376/428 427/375/427 419/377/419
f 419/377/419 412/352/412 413/353/413
f 398/160/398 391/303/391 392/301/392
f 417/380/417 410/311/410 411/312/411
f 422/382/422 415/521/415 416/381/416
f 440/385/440 433/646/433 193/384/193
f 415/387/415 414/388/414 407/349/407
f 421/390/421 414/647/414 415/389/415
f 410/359/410 409/393/409 402/538/402
f 424/394/424 423/366/423 416/360/416
f 467/395/467 466/397/466 458/396/458
f 429/399/429 421/648/421 422/398/422
f 434/404/434 427/375/427 428/376/428
f 435/406/435 428/649/428 429/405/429
f 425/410/425 418/409/418 178/588/178
f 193/413/193 433/412/433 425/589/425
f 413/415/413 406/650/406 407/414/407
f 441/417/441 434/404/434 435/403/435
f 446/421/446 445/420/445 438/590/438
f 442/423/442 435/406/435 436/407/436
f 430/424/430 422/382/422 423/383/423
f 429/428/429 430/651/430 437/427/437
f 424/431/424 417/380/417 418/430/418
f 438/435/438 431/434/431 432/591/432
f 450/437/450 442/423/442 443/422/443
f 447/441/447 440/440/440 201/592/201
f 429/444/429 428/443/428 420/593/420
f 452/445/452 444/447/444 445/446/445
f 454/448/454 453/450/453 445/449/445
f 457/452/457 450/437/450 451/438/451
f 472/453/472 464/455/464 465/454/465
f 452/456/452 451/458/451 443/457/443
f 445/459/445 444/461/444 437/460/437
f 439/463/439 432/532/432 433/462/433
f 454/466/454 446/652/446 447/465/447
f 462/598/462 455/665/455 216/599/216
f 460/474/460 453/473/453 454/601/454
f 465/475/465 457/452/457 458/451/458
f 450/477/450 449/478/449 441/417/441
f 444/480/444 443/482/443 436/481/436
f 456/483/456 449/478/449 450/477/450
f 459/487/459 460/486/460 468/517/468
f 458/396/458 451/458/451 452/456/452
f 464/455/464 456/483/456 457/484/457
f 469/603/469 461/666/461 462/604/462
f 473/492/473 465/475/465 466/476/466
f 455/495/455 447/655/447 448/494/448
f 470/606/470 462/667/462 463/607/463
f 478/609/478 470/668/470 471/610/471
f 459/487/459 452/658/452 453/505/453
f 474/507/474 466/397/466 467/395/467
f 482/18/482 477/510/477 478/508/478
f 477/510/477 469/659/469 470/509/470
f 477/511/477 476/513/476 468/512/468
f 481/70/481 475/518/475 476/514/476
f 243/62/243 474/507/474 475/506/475
f 480/51/480 473/492/473 474/493/474
f 475/518/475 467/485/467 468/517/468
f 263/520/263 256/65/256 257/63/257
f 415/521/415 408/357/408 409/358/409
f 257/59/257 250/7/250 251/522/251
f 476/513/476 477/511/477 482/8/482
f 461/612/461 454/669/454 455/613/455
f 270/52/270 269/527/269 261/33/261
f 469/528/469 468/512/468 460/529/460
f 318/530/318 317/145/317 309/81/309
f 287/123/287 278/89/278 279/87/279
f 432/532/432 424/431/424 425/432/425
f 258/534/258 251/16/251 252/533/252
f 438/535/438 437/536/437 430/424/430
f 479/49/479 472/453/472 473/537/473
f 402/538/402 395/356/395 396/354/396
f 342/539/342 334/219/334 335/218/335
f 336/540/336 329/224/329 330/225/330
f 322/541/322 321/191/321 313/189/313
f 368/543/368 360/661/360 361/542/361
f 297/135/297 298/133/298 306/545/306
f 446/547/446 439/662/439 440/546/440
f 290/549/290 289/551/289 280/550/280
f 270/88/270 262/86/262 263/85/263
f 381/271/381 382/272/382 389/553/389
