# Blender 4.1.1 Goo Engine
# www.blender.org
mtllib explorer.mtl
o File_Explorer_Base.001
v 0.239644 0.742420 0.545798
v 0.337838 0.742388 0.545798
v 0.436031 0.742167 0.545798
v 0.469762 0.718224 0.545798
v 0.494594 0.694469 0.545798
v 0.618409 0.694658 0.545798
v 0.759641 0.694469 0.545798
v 0.774503 0.684595 0.545798
v 0.782359 0.669232 0.545798
v 0.782454 0.474526 0.545798
v 0.782359 0.318434 0.545798
v 0.772105 0.300043 0.545798
v 0.757117 0.293197 0.545798
v 0.499643 0.293008 0.545798
v 0.242168 0.293197 0.545798
v 0.226897 0.300705 0.545798
v 0.216926 0.318434 0.545798
v 0.216737 0.502004 0.545798
v 0.216926 0.717182 0.545798
v 0.226203 0.733397 0.545798
v 0.239644 0.742420 0.518418
v 0.337838 0.742388 0.518418
v 0.436031 0.742167 0.518418
v 0.469762 0.718224 0.518418
v 0.494594 0.694469 0.518418
v 0.618409 0.694658 0.518418
v 0.759641 0.694469 0.518418
v 0.774503 0.684595 0.518418
v 0.782359 0.669232 0.518418
v 0.782454 0.474526 0.518418
v 0.782359 0.318434 0.518418
v 0.772105 0.300043 0.518418
v 0.757117 0.293197 0.518418
v 0.499643 0.293008 0.518418
v 0.242168 0.293197 0.518418
v 0.226897 0.300705 0.518418
v 0.216926 0.318434 0.518418
v 0.216737 0.502003 0.518418
v 0.216926 0.717182 0.518418
v 0.226203 0.733397 0.518418
v 0.239644 0.742420 0.514038
v 0.337838 0.742388 0.514038
v 0.436031 0.742167 0.514038
v 0.469762 0.718224 0.514038
v 0.494594 0.694469 0.514038
v 0.618409 0.694658 0.514038
v 0.759641 0.694469 0.514038
v 0.774503 0.684595 0.514038
v 0.782359 0.669232 0.514038
v 0.782454 0.474526 0.514038
v 0.782359 0.318434 0.514038
v 0.772105 0.300043 0.514038
v 0.757117 0.293197 0.514038
v 0.499643 0.293008 0.514038
v 0.242168 0.293197 0.514038
v 0.226897 0.300705 0.514038
v 0.216926 0.318434 0.514038
v 0.216737 0.502003 0.514038
v 0.216926 0.717182 0.514038
v 0.226203 0.733397 0.514038
v 0.239644 0.742420 0.486658
v 0.337838 0.742388 0.486658
v 0.436031 0.742167 0.486658
v 0.469762 0.718224 0.486658
v 0.494594 0.694469 0.486658
v 0.618409 0.694658 0.486658
v 0.759641 0.694469 0.486658
v 0.774503 0.684595 0.486658
v 0.782359 0.669232 0.486658
v 0.782454 0.474526 0.486658
v 0.782359 0.318434 0.486658
v 0.772105 0.300043 0.486658
v 0.757117 0.293197 0.486658
v 0.499643 0.293008 0.486658
v 0.242168 0.293197 0.486658
v 0.226897 0.300705 0.486658
v 0.216926 0.318434 0.486658
v 0.216737 0.502003 0.486658
v 0.216926 0.717182 0.486658
v 0.226203 0.733397 0.486658
v 0.239644 0.742420 0.482278
v 0.337838 0.742388 0.482278
v 0.436031 0.742167 0.482278
v 0.469762 0.718224 0.482278
v 0.494594 0.694469 0.482278
v 0.618409 0.694658 0.482278
v 0.759641 0.694469 0.482278
v 0.774503 0.684595 0.482278
v 0.782359 0.669232 0.482278
v 0.782454 0.474526 0.482278
v 0.782359 0.318434 0.482278
v 0.772105 0.300043 0.482278
v 0.757117 0.293197 0.482278
v 0.499643 0.293008 0.482278
v 0.242168 0.293197 0.482278
v 0.226897 0.300705 0.482278
v 0.216926 0.318434 0.482278
v 0.216737 0.502003 0.482278
v 0.216926 0.717182 0.482278
v 0.226203 0.733397 0.482278
v 0.239644 0.742420 0.454898
v 0.337838 0.742388 0.454898
v 0.436031 0.742167 0.454898
v 0.469762 0.718224 0.454898
v 0.494594 0.694469 0.454898
v 0.618409 0.694658 0.454898
v 0.759641 0.694469 0.454898
v 0.774503 0.684595 0.454898
v 0.782359 0.669232 0.454898
v 0.782454 0.474526 0.454898
v 0.782359 0.318434 0.454898
v 0.772105 0.300043 0.454898
v 0.757117 0.293197 0.454898
v 0.499643 0.293008 0.454898
v 0.242168 0.293197 0.454898
v 0.226897 0.300705 0.454898
v 0.216926 0.318434 0.454898
v 0.216737 0.502003 0.454898
v 0.216926 0.717182 0.454898
v 0.226203 0.733397 0.454898
vn -0.0000 -0.0000 1.0000
vn -0.0000 -0.0000 -1.0000
vn 0.0003 1.0000 -0.0000
vn 0.0022 1.0000 -0.0000
vn 0.5788 0.8154 -0.0000
vn 0.6913 0.7226 -0.0000
vn -0.0015 1.0000 -0.0000
vn 0.5534 0.8329 -0.0000
vn 0.8903 0.4553 -0.0000
vn 1.0000 0.0005 -0.0000
vn 1.0000 -0.0006 -0.0000
vn 0.8734 -0.4870 -0.0000
vn 0.4155 -0.9096 -0.0000
vn 0.0007 -1.0000 -0.0000
vn -0.5573 0.8303 -0.0000
vn -0.0007 -1.0000 -0.0000
vn -0.8680 0.4966 -0.0000
vn -0.4412 -0.8974 -0.0000
vn 0.0013 1.0000 -0.0000
vn -0.8716 -0.4902 -0.0000
vn -1.0000 -0.0010 -0.0000
vn -1.0000 0.0009 -0.0000
vt 0.082023 0.151883
vt 0.252190 0.138052
vt 0.102503 0.138114
vt 0.401876 0.138279
vt 0.453321 0.174741
vt 0.067900 0.176612
vt 0.491203 0.210925
vt 0.067853 0.504630
vt 0.226621 0.834207
vt 0.226727 0.978843
vt 0.226774 0.901773
vt 0.895240 0.210627
vt 0.917906 0.225663
vt 0.929899 0.249074
vt 0.930262 0.545882
vt 0.068347 0.784463
vt 0.930293 0.783829
vt 0.083566 0.811478
vt 0.914681 0.811876
vt 0.106855 0.822906
vt 0.891841 0.822329
vt 0.007545 0.837123
vt 0.007751 0.977627
vt 0.007545 0.696619
vt 0.085671 0.153374
vt 0.105972 0.139726
vt 0.254349 0.139664
vt 0.402726 0.139889
vt 0.453722 0.176032
vt 0.071671 0.177886
vt 0.491271 0.211899
vt 0.071624 0.503035
vt 0.678363 0.211476
vt 0.891774 0.211605
vt 0.914242 0.226509
vt 0.926131 0.249715
vt 0.926490 0.543927
vt 0.072114 0.780420
vt 0.926521 0.779792
vt 0.087201 0.807199
vt 0.911046 0.807595
vt 0.110286 0.818527
vt 0.888406 0.817955
vt 0.499346 0.818527
vt 0.154249 0.156435
vt 0.187115 0.144146
vt 0.154249 0.144146
vt 0.154249 0.168698
vt 0.187115 0.156435
vt 0.298768 0.144868
vt 0.331634 0.137908
vt 0.298768 0.137908
vt 0.298768 0.150957
vt 0.331634 0.144868
vt 0.626968 0.223161
vt 0.733067 0.218272
vt 0.626968 0.218272
vt 0.787339 0.231252
vt 0.893438 0.230320
vt 0.787339 0.230320
vt 0.787339 0.232248
vt 0.893438 0.231252
vt 0.738761 0.363399
vt 0.800734 0.305528
vt 0.738761 0.305528
vt 0.738761 0.409763
vt 0.800734 0.363399
vt 0.832434 0.433022
vt 0.894407 0.428604
vt 0.832434 0.428604
vt 0.832434 0.438497
vt 0.894407 0.433022
vt 0.832434 0.526812
vt 0.894407 0.438497
vt 0.187115 0.141250
vt 0.154249 0.141250
vt 0.832434 0.615108
vt 0.894407 0.526812
vt 0.187115 0.137908
vt 0.154249 0.137908
vt 0.129907 0.627089
vt 0.131955 0.623670
vt 0.129907 0.623670
vt 0.626968 0.228720
vt 0.733067 0.223161
vt 0.113524 0.383855
vt 0.115572 0.379195
vt 0.113524 0.379195
vt 0.113524 0.427883
vt 0.115572 0.383855
vt 0.096282 0.200123
vt 0.089672 0.452243
vt 0.096282 0.452243
vt 0.083004 0.152798
vt 0.252696 0.139006
vt 0.103427 0.139068
vt 0.401966 0.139232
vt 0.453268 0.175593
vt 0.068920 0.177458
vt 0.491043 0.211675
vt 0.068873 0.504563
vt 0.893955 0.211379
vt 0.679260 0.211249
vt 0.916558 0.226373
vt 0.928518 0.249718
vt 0.928880 0.545700
vt 0.069366 0.783616
vt 0.928910 0.782984
vt 0.084543 0.810556
vt 0.913342 0.810953
vt 0.107767 0.821952
vt 0.890566 0.821376
vt 0.499167 0.821952
vt 0.080350 0.152238
vt 0.100818 0.138477
vt 0.250419 0.138415
vt 0.400019 0.138642
vt 0.451435 0.175083
vt 0.066235 0.176952
vt 0.489295 0.211246
vt 0.066187 0.504783
vt 0.677929 0.210819
vt 0.893100 0.210949
vt 0.915753 0.225976
vt 0.927740 0.249373
vt 0.928103 0.546012
vt 0.066681 0.784456
vt 0.928134 0.783822
vt 0.081892 0.811455
vt 0.912530 0.811854
vt 0.105167 0.822877
vt 0.889704 0.822300
vt 0.497436 0.822877
vt 0.222875 0.156435
vt 0.255741 0.144146
vt 0.222875 0.144146
vt 0.222875 0.168698
vt 0.255741 0.156435
vt 0.336714 0.144868
vt 0.369580 0.137908
vt 0.336714 0.137908
vt 0.336714 0.150957
vt 0.369580 0.144868
vt 0.749468 0.223161
vt 0.855568 0.218272
vt 0.749468 0.218272
vt 0.504468 0.231252
vt 0.610567 0.230320
vt 0.504468 0.230320
vt 0.504468 0.232248
vt 0.610567 0.231252
vt 0.573537 0.363399
vt 0.635509 0.305528
vt 0.573537 0.305529
vt 0.857854 0.342132
vt 0.930883 0.439747
vt 0.930883 0.342132
vt 0.832434 0.232067
vt 0.894406 0.227650
vt 0.832434 0.227650
vt 0.832434 0.237543
vt 0.894406 0.232067
vt 0.832434 0.325858
vt 0.894406 0.237543
vt 0.255741 0.141250
vt 0.222875 0.141250
vt 0.832434 0.414154
vt 0.894407 0.325858
vt 0.255741 0.137908
vt 0.222875 0.137908
vt 0.129907 0.485979
vt 0.131955 0.482560
vt 0.129907 0.482560
vt 0.749468 0.228720
vt 0.855568 0.223161
vt 0.116620 0.383855
vt 0.118668 0.379195
vt 0.116620 0.379195
vt 0.116620 0.427883
vt 0.118668 0.383855
vt 0.086291 0.200123
vt 0.079681 0.452243
vt 0.086291 0.452243
vt 0.084725 0.153100
vt 0.254348 0.139314
vt 0.105140 0.139376
vt 0.403556 0.139540
vt 0.454837 0.175885
vt 0.070648 0.177750
vt 0.492597 0.211953
vt 0.070600 0.504720
vt 0.895342 0.211657
vt 0.680736 0.211527
vt 0.917936 0.226644
vt 0.929891 0.249980
vt 0.930253 0.545840
vt 0.071093 0.783658
vt 0.930284 0.783026
vt 0.086264 0.810586
vt 0.914721 0.810984
vt 0.109478 0.821978
vt 0.891955 0.821403
vt 0.500717 0.821978
vt 0.086937 0.154818
vt 0.107234 0.141172
vt 0.255583 0.141111
vt 0.403932 0.141336
vt 0.454918 0.177472
vt 0.072940 0.179326
vt 0.492461 0.213333
vt 0.072893 0.504414
vt 0.679518 0.212909
vt 0.892889 0.213038
vt 0.915352 0.227939
vt 0.927239 0.251141
vt 0.927598 0.545298
vt 0.073382 0.781747
vt 0.927629 0.781119
vt 0.088466 0.808521
vt 0.912157 0.808916
vt 0.111547 0.819847
vt 0.889521 0.819275
vt 0.500534 0.819847
vt 0.116303 0.156435
vt 0.149169 0.144146
vt 0.116303 0.144146
vt 0.116303 0.168698
vt 0.149169 0.156435
vt 0.260821 0.144868
vt 0.293687 0.137908
vt 0.260821 0.137908
vt 0.260821 0.150957
vt 0.293687 0.144868
vt 0.504468 0.223161
vt 0.610567 0.218272
vt 0.504468 0.218272
vt 0.664838 0.231252
vt 0.770938 0.230320
vt 0.664838 0.230320
vt 0.664838 0.232248
vt 0.770938 0.231252
vt 0.667209 0.363399
vt 0.729182 0.305528
vt 0.667209 0.305528
vt 0.667209 0.409763
vt 0.729182 0.363399
vt 0.832434 0.633975
vt 0.894407 0.629558
vt 0.832434 0.629558
vt 0.832434 0.639451
vt 0.894407 0.633975
vt 0.832434 0.727766
vt 0.894407 0.639451
vt 0.149169 0.141250
vt 0.116303 0.141250
vt 0.832434 0.816062
vt 0.894407 0.727766
vt 0.149169 0.137908
vt 0.116303 0.137908
vt 0.129907 0.768199
vt 0.131955 0.764779
vt 0.129907 0.764779
vt 0.504468 0.228720
vt 0.610567 0.223161
vt 0.118985 0.383855
vt 0.121033 0.379195
vt 0.118985 0.379195
vt 0.118985 0.427883
vt 0.121033 0.383855
vt 0.078659 0.200123
vt 0.072049 0.452243
vt 0.078659 0.452243
vt 0.187115 0.168698
vt 0.331634 0.150957
vt 0.893438 0.232248
vt 0.800734 0.409763
vt 0.894407 0.615108
vt 0.131955 0.627089
vt 0.733067 0.228720
vt 0.115572 0.427883
vt 0.089672 0.200123
vt 0.255741 0.168698
vt 0.369580 0.150957
vt 0.610567 0.232248
vt 0.635509 0.363399
vt 0.857854 0.439747
vt 0.894407 0.414154
vt 0.131955 0.485979
vt 0.855568 0.228720
vt 0.118668 0.427883
vt 0.079681 0.200123
vt 0.149169 0.168698
vt 0.293687 0.150957
vt 0.770938 0.232248
vt 0.729182 0.409763
vt 0.894407 0.816062
vt 0.131955 0.768199
vt 0.610567 0.228720
vt 0.121033 0.427883
vt 0.072049 0.200123
s 0
g File_Explorer_Base.001_FileExplorerBase
usemtl FileExplorerBase
f 20/1/1 2/2/1 1/3/1
f 20/1/1 3/4/1 2/2/1
f 20/1/1 4/5/1 3/4/1
f 19/6/1 4/5/1 20/1/1
f 19/6/1 5/7/1 4/5/1
f 18/8/1 5/7/1 19/6/1
f 5/9/1 7/10/1 6/11/1
f 18/8/1 7/12/1 5/7/1
f 18/8/1 8/13/1 7/12/1
f 18/8/1 9/14/1 8/13/1
f 18/8/1 10/15/1 9/14/1
f 17/16/1 10/15/1 18/8/1
f 17/16/1 11/17/1 10/15/1
f 16/18/1 11/17/1 17/16/1
f 16/18/1 12/19/1 11/17/1
f 15/20/1 12/19/1 16/18/1
f 15/20/1 13/21/1 12/19/1
f 14/22/1 13/23/1 15/24/1
f 40/25/2 21/26/2 22/27/2
f 40/25/2 22/27/2 23/28/2
f 40/25/2 23/28/2 24/29/2
f 39/30/2 40/25/2 24/29/2
f 39/30/2 24/29/2 25/31/2
f 38/32/2 39/30/2 25/31/2
f 25/31/2 26/33/2 27/34/2
f 38/32/2 25/31/2 27/34/2
f 38/32/2 27/34/2 28/35/2
f 38/32/2 28/35/2 29/36/2
f 38/32/2 29/36/2 30/37/2
f 37/38/2 38/32/2 30/37/2
f 37/38/2 30/37/2 31/39/2
f 36/40/2 37/38/2 31/39/2
f 36/40/2 31/39/2 32/41/2
f 35/42/2 36/40/2 32/41/2
f 35/42/2 32/41/2 33/43/2
f 34/44/2 35/42/2 33/43/2
f 2/45/3 21/46/3 1/47/3
f 3/48/4 22/49/4 2/45/4
f 4/50/5 23/51/5 3/52/5
f 5/53/6 24/54/6 4/50/6
f 6/55/7 25/56/7 5/57/7
f 8/58/8 27/59/8 7/60/8
f 9/61/9 28/62/9 8/58/9
f 10/63/10 29/64/10 9/65/10
f 11/66/11 30/67/11 10/63/11
f 12/68/12 31/69/12 11/70/12
f 13/71/13 32/72/13 12/68/13
f 14/73/14 33/74/14 13/71/14
f 1/47/15 40/75/15 20/76/15
f 15/77/16 34/78/16 14/73/16
f 20/76/17 39/79/17 19/80/17
f 16/81/18 35/82/18 15/83/18
f 7/84/19 26/85/19 6/55/19
f 17/86/20 36/87/20 16/88/20
f 18/89/21 37/90/21 17/86/21
f 19/91/22 38/92/22 18/93/22
f 60/94/1 42/95/1 41/96/1
f 60/94/1 43/97/1 42/95/1
f 60/94/1 44/98/1 43/97/1
f 59/99/1 44/98/1 60/94/1
f 59/99/1 45/100/1 44/98/1
f 58/101/1 45/100/1 59/99/1
f 45/100/1 47/102/1 46/103/1
f 58/101/1 47/102/1 45/100/1
f 58/101/1 48/104/1 47/102/1
f 58/101/1 49/105/1 48/104/1
f 58/101/1 50/106/1 49/105/1
f 57/107/1 50/106/1 58/101/1
f 57/107/1 51/108/1 50/106/1
f 56/109/1 51/108/1 57/107/1
f 56/109/1 52/110/1 51/108/1
f 55/111/1 52/110/1 56/109/1
f 55/111/1 53/112/1 52/110/1
f 54/113/1 53/112/1 55/111/1
f 80/114/2 61/115/2 62/116/2
f 80/114/2 62/116/2 63/117/2
f 80/114/2 63/117/2 64/118/2
f 79/119/2 80/114/2 64/118/2
f 79/119/2 64/118/2 65/120/2
f 78/121/2 79/119/2 65/120/2
f 65/120/2 66/122/2 67/123/2
f 78/121/2 65/120/2 67/123/2
f 78/121/2 67/123/2 68/124/2
f 78/121/2 68/124/2 69/125/2
f 78/121/2 69/125/2 70/126/2
f 77/127/2 78/121/2 70/126/2
f 77/127/2 70/126/2 71/128/2
f 76/129/2 77/127/2 71/128/2
f 76/129/2 71/128/2 72/130/2
f 75/131/2 76/129/2 72/130/2
f 75/131/2 72/130/2 73/132/2
f 74/133/2 75/131/2 73/132/2
f 42/134/3 61/135/3 41/136/3
f 43/137/4 62/138/4 42/134/4
f 44/139/5 63/140/5 43/141/5
f 45/142/6 64/143/6 44/139/6
f 46/144/7 65/145/7 45/146/7
f 48/147/8 67/148/8 47/149/8
f 49/150/9 68/151/9 48/147/9
f 50/152/10 69/153/10 49/154/10
f 51/155/11 70/156/11 50/157/11
f 52/158/12 71/159/12 51/160/12
f 53/161/13 72/162/13 52/158/13
f 54/163/14 73/164/14 53/161/14
f 41/136/15 80/165/15 60/166/15
f 55/167/16 74/168/16 54/163/16
f 60/166/17 79/169/17 59/170/17
f 56/171/18 75/172/18 55/173/18
f 47/174/19 66/175/19 46/144/19
f 57/176/20 76/177/20 56/178/20
f 58/179/21 77/180/21 57/176/21
f 59/181/22 78/182/22 58/183/22
f 100/184/1 82/185/1 81/186/1
f 100/184/1 83/187/1 82/185/1
f 100/184/1 84/188/1 83/187/1
f 99/189/1 84/188/1 100/184/1
f 99/189/1 85/190/1 84/188/1
f 98/191/1 85/190/1 99/189/1
f 85/190/1 87/192/1 86/193/1
f 98/191/1 87/192/1 85/190/1
f 98/191/1 88/194/1 87/192/1
f 98/191/1 89/195/1 88/194/1
f 98/191/1 90/196/1 89/195/1
f 97/197/1 90/196/1 98/191/1
f 97/197/1 91/198/1 90/196/1
f 96/199/1 91/198/1 97/197/1
f 96/199/1 92/200/1 91/198/1
f 95/201/1 92/200/1 96/199/1
f 95/201/1 93/202/1 92/200/1
f 94/203/1 93/202/1 95/201/1
f 120/204/2 101/205/2 102/206/2
f 120/204/2 102/206/2 103/207/2
f 120/204/2 103/207/2 104/208/2
f 119/209/2 120/204/2 104/208/2
f 119/209/2 104/208/2 105/210/2
f 118/211/2 119/209/2 105/210/2
f 105/210/2 106/212/2 107/213/2
f 118/211/2 105/210/2 107/213/2
f 118/211/2 107/213/2 108/214/2
f 118/211/2 108/214/2 109/215/2
f 118/211/2 109/215/2 110/216/2
f 117/217/2 118/211/2 110/216/2
f 117/217/2 110/216/2 111/218/2
f 116/219/2 117/217/2 111/218/2
f 116/219/2 111/218/2 112/220/2
f 115/221/2 116/219/2 112/220/2
f 115/221/2 112/220/2 113/222/2
f 114/223/2 115/221/2 113/222/2
f 82/224/3 101/225/3 81/226/3
f 83/227/4 102/228/4 82/224/4
f 84/229/5 103/230/5 83/231/5
f 85/232/6 104/233/6 84/229/6
f 86/234/7 105/235/7 85/236/7
f 88/237/8 107/238/8 87/239/8
f 89/240/9 108/241/9 88/237/9
f 90/242/10 109/243/10 89/244/10
f 91/245/11 110/246/11 90/242/11
f 92/247/12 111/248/12 91/249/12
f 93/250/13 112/251/13 92/247/13
f 94/252/14 113/253/14 93/250/14
f 81/226/15 120/254/15 100/255/15
f 95/256/16 114/257/16 94/252/16
f 100/255/17 119/258/17 99/259/17
f 96/260/18 115/261/18 95/262/18
f 87/263/19 106/264/19 86/234/19
f 97/265/20 116/266/20 96/267/20
f 98/268/21 117/269/21 97/265/21
f 99/270/22 118/271/22 98/272/22
f 2/45/3 22/49/3 21/46/3
f 3/48/4 23/273/4 22/49/4
f 4/50/5 24/54/5 23/51/5
f 5/53/6 25/274/6 24/54/6
f 6/55/7 26/85/7 25/56/7
f 8/58/8 28/62/8 27/59/8
f 9/61/9 29/275/9 28/62/9
f 10/63/10 30/67/10 29/64/10
f 11/66/11 31/276/11 30/67/11
f 12/68/12 32/72/12 31/69/12
f 13/71/13 33/74/13 32/72/13
f 14/73/14 34/78/14 33/74/14
f 1/47/15 21/46/15 40/75/15
f 15/77/16 35/277/16 34/78/16
f 20/76/17 40/75/17 39/79/17
f 16/81/18 36/278/18 35/82/18
f 7/84/19 27/279/19 26/85/19
f 17/86/20 37/90/20 36/87/20
f 18/89/21 38/280/21 37/90/21
f 19/91/22 39/281/22 38/92/22
f 42/134/3 62/138/3 61/135/3
f 43/137/4 63/282/4 62/138/4
f 44/139/5 64/143/5 63/140/5
f 45/142/6 65/283/6 64/143/6
f 46/144/7 66/175/7 65/145/7
f 48/147/8 68/151/8 67/148/8
f 49/150/9 69/284/9 68/151/9
f 50/152/10 70/285/10 69/153/10
f 51/155/11 71/286/11 70/156/11
f 52/158/12 72/162/12 71/159/12
f 53/161/13 73/164/13 72/162/13
f 54/163/14 74/168/14 73/164/14
f 41/136/15 61/135/15 80/165/15
f 55/167/16 75/287/16 74/168/16
f 60/166/17 80/165/17 79/169/17
f 56/171/18 76/288/18 75/172/18
f 47/174/19 67/289/19 66/175/19
f 57/176/20 77/180/20 76/177/20
f 58/179/21 78/290/21 77/180/21
f 59/181/22 79/291/22 78/182/22
f 82/224/3 102/228/3 101/225/3
f 83/227/4 103/292/4 102/228/4
f 84/229/5 104/233/5 103/230/5
f 85/232/6 105/293/6 104/233/6
f 86/234/7 106/264/7 105/235/7
f 88/237/8 108/241/8 107/238/8
f 89/240/9 109/294/9 108/241/9
f 90/242/10 110/246/10 109/243/10
f 91/245/11 111/295/11 110/246/11
f 92/247/12 112/251/12 111/248/12
f 93/250/13 113/253/13 112/251/13
f 94/252/14 114/257/14 113/253/14
f 81/226/15 101/225/15 120/254/15
f 95/256/16 115/296/16 114/257/16
f 100/255/17 120/254/17 119/258/17
f 96/260/18 116/297/18 115/261/18
f 87/263/19 107/298/19 106/264/19
f 97/265/20 117/269/20 116/266/20
f 98/268/21 118/299/21 117/269/21
f 99/270/22 119/300/22 118/271/22
o File_Explorer_Clip
v 0.302011 0.258337 0.568217
v 0.402210 0.258337 0.568217
v 0.402210 0.405967 0.568217
v 0.597333 0.405967 0.568217
v 0.597333 0.258337 0.568217
v 0.697532 0.258337 0.568217
v 0.697532 0.354395 0.568217
v 0.697532 0.461328 0.568217
v 0.684051 0.487855 0.568217
v 0.655343 0.503508 0.568217
v 0.501716 0.503508 0.568217
v 0.349474 0.503508 0.568217
v 0.315459 0.488317 0.568217
v 0.302011 0.458692 0.568217
v 0.302011 0.352187 0.568217
v 0.302011 0.258337 0.431783
v 0.402210 0.258337 0.431783
v 0.402210 0.405967 0.431783
v 0.597333 0.405967 0.431783
v 0.597333 0.258337 0.431783
v 0.697532 0.258337 0.431783
v 0.697532 0.354395 0.431783
v 0.697532 0.461328 0.431783
v 0.684051 0.487855 0.431783
v 0.655343 0.503508 0.431783
v 0.501716 0.503508 0.431783
v 0.349474 0.503508 0.431783
v 0.315459 0.488316 0.431783
v 0.302011 0.458692 0.431783
v 0.302011 0.352187 0.431783
vn -0.0000 -0.0000 1.0000
vn -0.0000 -0.0000 -1.0000
vn -0.0000 -1.0000 -0.0000
vn -1.0000 -0.0000 -0.0000
vn 0.8915 0.4530 -0.0000
vn 0.4787 0.8780 -0.0000
vn -0.0000 1.0000 -0.0000
vn -0.4078 0.9131 -0.0000
vn 1.0000 -0.0000 -0.0000
vn -0.9106 0.4133 -0.0000
vt 0.659811 0.537366
vt 0.684386 0.517174
vt 0.664299 0.517174
vt 0.704656 0.517174
vt 0.708444 0.537980
vt 0.658037 0.576744
vt 0.710222 0.573240
vt 0.697002 0.646827
vt 0.710222 0.715377
vt 0.658037 0.718312
vt 0.671257 0.646827
vt 0.671257 0.843059
vt 0.697002 0.843059
vt 0.710222 0.843059
vt 0.658037 0.843059
vt 0.705593 0.535036
vt 0.701379 0.514001
vt 0.682517 0.514001
vt 0.663484 0.514001
vt 0.659928 0.535675
vt 0.707259 0.576057
vt 0.658257 0.572407
vt 0.670671 0.649065
vt 0.658257 0.720476
vt 0.707259 0.723533
vt 0.694845 0.649065
vt 0.694845 0.853487
vt 0.670671 0.853487
vt 0.658257 0.853487
vt 0.707259 0.853487
vt 0.312012 0.680971
vt 0.348267 0.647515
vt 0.312012 0.647515
vt 0.222086 0.797768
vt 0.258340 0.732617
vt 0.222086 0.732617
vt 0.222086 0.850028
vt 0.258340 0.801008
vt 0.222086 0.801008
vt 0.274502 0.736910
vt 0.310756 0.727591
vt 0.274502 0.727591
vt 0.222086 0.550689
vt 0.225836 0.644274
vt 0.225836 0.550689
vt 0.245704 0.644274
vt 0.245704 0.550689
vt 0.265394 0.644274
vt 0.265394 0.550689
vt 0.269756 0.644274
vt 0.269756 0.550689
vt 0.274502 0.714042
vt 0.310756 0.678678
vt 0.274502 0.678678
vt 0.274502 0.856435
vt 0.310756 0.807473
vt 0.274502 0.807473
vt 0.274502 0.772375
vt 0.310756 0.736910
vt 0.274502 0.724351
vt 0.310756 0.714042
vt 0.312012 0.717667
vt 0.348267 0.684212
vt 0.312012 0.684212
vt 0.274502 0.804233
vt 0.310756 0.772375
vt 0.310756 0.647515
vt 0.274502 0.647515
vt 0.348267 0.680971
vt 0.258340 0.797768
vt 0.258340 0.850028
vt 0.222086 0.644274
vt 0.310756 0.856435
vt 0.310756 0.724351
vt 0.348267 0.717667
vt 0.310756 0.804233
s 0
g File_Explorer_Clip_FileExplorerBase
usemtl FileExplorerBase
f 133/301/23 131/302/23 132/303/23
f 133/301/23 130/304/23 131/302/23
f 133/301/23 129/305/23 130/304/23
f 134/306/23 129/305/23 133/301/23
f 134/306/23 128/307/23 129/305/23
f 134/306/23 124/308/23 128/307/23
f 124/308/23 127/309/23 128/307/23
f 135/310/23 123/311/23 134/306/23
f 123/311/23 124/308/23 134/306/23
f 135/310/23 122/312/23 123/311/23
f 125/313/23 127/309/23 124/308/23
f 125/313/23 126/314/23 127/309/23
f 121/315/23 122/312/23 135/310/23
f 148/316/24 147/317/24 146/318/24
f 148/316/24 146/318/24 145/319/24
f 148/316/24 145/319/24 144/320/24
f 149/321/24 148/316/24 144/320/24
f 149/321/24 144/320/24 143/322/24
f 149/321/24 143/322/24 139/323/24
f 139/323/24 143/322/24 142/324/24
f 150/325/24 149/321/24 138/326/24
f 138/326/24 149/321/24 139/323/24
f 150/325/24 138/326/24 137/327/24
f 140/328/24 139/323/24 142/324/24
f 140/328/24 142/324/24 141/329/24
f 136/330/24 150/325/24 137/327/24
f 121/331/25 137/332/25 122/333/25
f 123/334/25 139/335/25 124/336/25
f 124/337/26 140/338/26 125/339/26
f 128/340/27 144/341/27 129/342/27
f 129/343/28 145/344/28 130/345/28
f 130/345/29 146/346/29 131/347/29
f 131/347/29 147/348/29 132/349/29
f 132/349/30 148/350/30 133/351/30
f 134/352/26 150/353/26 135/354/26
f 122/355/31 138/356/31 123/357/31
f 127/358/31 143/359/31 128/340/31
f 133/360/32 149/361/32 134/352/32
f 125/362/25 141/363/25 126/364/25
f 126/365/31 142/366/31 127/358/31
f 135/354/26 136/367/26 121/368/26
f 121/331/25 136/369/25 137/332/25
f 123/334/25 138/370/25 139/335/25
f 124/337/26 139/371/26 140/338/26
f 128/340/27 143/359/27 144/341/27
f 129/343/28 144/372/28 145/344/28
f 130/345/29 145/344/29 146/346/29
f 131/347/29 146/346/29 147/348/29
f 132/349/30 147/348/30 148/350/30
f 134/352/26 149/361/26 150/353/26
f 122/355/31 137/373/31 138/356/31
f 127/358/31 142/366/31 143/359/31
f 133/360/32 148/374/32 149/361/32
f 125/362/25 140/375/25 141/363/25
f 126/365/31 141/376/31 142/366/31
f 135/354/26 150/353/26 136/367/26
