# Made in Blockbench 4.12.6
mtllib game_icon.mtl

o cube
v 0.7716219090564915 0.6620578503988719 0.5692965342376987
v 0.5104894186517457 0.7830589388161833 0.3288936244033097
v 0.7713184947922 0.3269623614496986 0.40096376492138663
v 0.5101860043874543 0.4479634498670099 0.16056085508699766
v 0.24135240820019238 0.6660343692261159 0.5623363790937475
v 0.5024848986049382 0.5450332808088045 0.8027392889281364
v 0.24104899393590096 0.3309388802769426 0.3940036097774354
v 0.5021814843406467 0.2099377918596313 0.6344065196118244
vt 0 1
vt 1 1
vt 1 0
vt 0 0
vt 0 1
vt 1 1
vt 1 0
vt 0 0
vt 0 1
vt 1 1
vt 1 0
vt 0 0
vt 0 1
vt 1 1
vt 1 0
vt 0 0
vt 0 1
vt 1 1
vt 1 0
vt 0 0
vt 0 1
vt 1 1
vt 1 0
vt 0 0
vn -0.6963533077459888 0.32266956911283035 -0.6410744262250372
vn 0.7176986945374758 0.312065518906846 -0.6225140125078342
vn 0.6963533077459888 -0.32266956911283035 0.6410744262250372
vn -0.7176986945374758 -0.312065518906846 0.6225140125078342
vn 0.0008091047047770474 0.8935879705311287 0.4488873848434989
vn -0.0008091047047770474 -0.8935879705311287 -0.4488873848434989
usemtl m_f1e22bec-b656-eca7-4ba2-ebfddf22290b
f 4/4/1 7/3/1 5/2/1 2/1/1
f 3/8/2 4/7/2 2/6/2 1/5/2
f 8/12/3 3/11/3 1/10/3 6/9/3
f 7/16/4 8/15/4 6/14/4 5/13/4
usemtl m_440b9aa1-a9a7-ec0e-5340-199df91c0820
f 6/20/5 1/19/5 2/18/5 5/17/5
usemtl m_19a68674-72cf-3b69-d98f-2e50584bab94
f 7/24/6 4/23/6 3/22/6 8/21/6