# Blender 4.1.1 Goo Engine
# www.blender.org
mtllib photoshop.mtl
o Photoshop_Base
v 0.244439 0.755561 0.534849
v 0.755561 0.755561 0.534849
v 0.755561 0.244439 0.534849
v 0.244439 0.244439 0.534849
v 0.244439 0.755561 0.465151
v 0.755561 0.755561 0.465151
v 0.755561 0.244439 0.465151
v 0.244439 0.244439 0.465151
vn -0.0000 -0.0000 1.0000
vn -0.0000 -0.0000 -1.0000
vn -1.0000 -0.0000 -0.0000
vn -0.0000 1.0000 -0.0000
vn 1.0000 -0.0000 -0.0000
vn -0.0000 -1.0000 -0.0000
vt 1.000000 0.000000
vt 0.333333 0.000000
vt 0.000000 0.000000
vt 0.666667 0.000000
s 0
g Photoshop_Base_PhotoshopBase
usemtl PhotoshopBase
f 4/1/1 2/2/1 1/3/1
f 4/1/1 3/4/1 2/2/1
f 8/1/2 5/3/2 6/2/2
f 8/1/2 6/2/2 7/4/2
f 1/3/3 8/1/3 4/1/3
f 2/2/4 5/3/4 1/3/4
f 3/4/5 6/2/5 2/2/5
f 4/1/6 7/4/6 3/4/6
f 1/3/3 5/3/3 8/1/3
f 2/2/4 6/2/4 5/3/4
f 3/4/5 7/4/5 6/2/5
f 4/1/6 8/1/6 7/4/6
o Photoshop_Border
v 0.244396 0.754960 0.527880
v 0.755611 0.754960 0.527880
v 0.755611 0.245042 0.527880
v 0.244396 0.245042 0.527880
v 0.221154 0.221207 0.527880
v 0.778741 0.221207 0.527880
v 0.778741 0.778795 0.527880
v 0.221154 0.778795 0.527880
v 0.244396 0.754960 0.472122
v 0.755611 0.754960 0.472122
v 0.755611 0.245042 0.472122
v 0.244396 0.245042 0.472122
v 0.221154 0.221207 0.472122
v 0.778741 0.221207 0.472122
v 0.778741 0.778795 0.472122
v 0.221154 0.778795 0.472122
vn -0.0000 -0.0000 1.0000
vn -0.0000 -0.0000 -1.0000
vn -0.0000 -1.0000 -0.0000
vn -1.0000 -0.0000 -0.0000
vn -0.0000 1.0000 -0.0000
vn 1.0000 -0.0000 -0.0000
vt 0.571429 0.000000
vt 0.000000 0.000000
vt 1.000000 0.000000
vt 0.857143 0.000000
vt 0.142857 0.000000
vt 0.714286 0.000000
vt 0.428571 0.000000
vt 0.285714 0.000000
s 0
g Photoshop_Border_PhotoshopBorder
usemtl PhotoshopBorder
f 13/5/7 9/6/7 16/7/7
f 9/6/7 15/8/7 16/7/7
f 9/6/7 10/9/7 15/8/7
f 10/9/7 14/10/7 15/8/7
f 13/5/7 12/11/7 9/6/7
f 11/12/7 14/10/7 10/9/7
f 13/5/7 11/12/7 12/11/7
f 13/5/7 14/10/7 11/12/7
f 21/5/8 24/7/8 17/6/8
f 17/6/8 24/7/8 23/8/8
f 17/6/8 23/8/8 18/9/8
f 18/9/8 23/8/8 22/10/8
f 21/5/8 17/6/8 20/11/8
f 19/12/8 18/9/8 22/10/8
f 21/5/8 20/11/8 19/12/8
f 21/5/8 19/12/8 22/10/8
f 9/6/9 18/9/9 10/9/9
f 10/9/10 19/12/10 11/12/10
f 11/12/11 20/11/11 12/11/11
f 16/7/10 21/5/10 13/5/10
f 12/11/12 17/6/12 9/6/12
f 15/8/11 24/7/11 16/7/11
f 13/5/9 22/10/9 14/10/9
f 14/10/12 23/8/12 15/8/12
f 9/6/9 17/6/9 18/9/9
f 10/9/10 18/9/10 19/12/10
f 11/12/11 19/12/11 20/11/11
f 16/7/10 24/7/10 21/5/10
f 12/11/12 20/11/12 17/6/12
f 15/8/11 23/8/11 24/7/11
f 13/5/9 21/5/9 22/10/9
f 14/10/12 22/10/12 23/8/12
o Photoshop_Text
v 0.402756 0.520007 0.539496
v 0.410259 0.519637 0.539496
v 0.420542 0.519584 0.539496
v 0.455176 0.528462 0.539496
v 0.470514 0.563618 0.539496
v 0.458167 0.595109 0.539496
v 0.423824 0.605641 0.539496
v 0.411450 0.605403 0.539496
v 0.402650 0.605006 0.539496
v 0.402703 0.562506 0.539496
v 0.363477 0.636867 0.539496
v 0.365237 0.638785 0.539496
v 0.368347 0.639513 0.539496
v 0.393862 0.640280 0.539496
v 0.425095 0.640571 0.539496
v 0.490366 0.618515 0.539496
v 0.509899 0.564465 0.539496
v 0.483404 0.503548 0.539496
v 0.419589 0.484547 0.539496
v 0.410100 0.484759 0.539496
v 0.402438 0.484971 0.539496
v 0.402438 0.442736 0.539497
v 0.402438 0.400502 0.539497
v 0.401869 0.398504 0.539497
v 0.399791 0.397856 0.539497
v 0.382957 0.397856 0.539497
v 0.366123 0.397856 0.539497
v 0.364125 0.398425 0.539497
v 0.363477 0.400502 0.539497
v 0.363477 0.518684 0.539496
v 0.592057 0.546153 0.539496
v 0.573899 0.540847 0.539496
v 0.568765 0.530063 0.539496
v 0.573648 0.518856 0.539496
v 0.596080 0.504553 0.539496
v 0.631680 0.478937 0.539496
v 0.641393 0.448241 0.539497
v 0.623408 0.407925 0.539497
v 0.578187 0.394045 0.539497
v 0.551984 0.396691 0.539497
v 0.533085 0.403466 0.539497
v 0.531590 0.404815 0.539497
v 0.531285 0.406959 0.539497
v 0.531285 0.423207 0.539497
v 0.531285 0.439455 0.539497
v 0.532013 0.441585 0.539497
v 0.533932 0.441255 0.539497
v 0.555822 0.431371 0.539497
v 0.578187 0.428235 0.539497
v 0.597033 0.433117 0.539497
v 0.602856 0.445383 0.539497
v 0.597535 0.457264 0.539497
v 0.575540 0.471845 0.539497
v 0.541701 0.495649 0.539496
v 0.531285 0.527311 0.539496
v 0.547219 0.563935 0.539496
v 0.592057 0.579284 0.539496
v 0.616156 0.577445 0.539496
v 0.631441 0.573145 0.539496
v 0.633228 0.571120 0.539496
v 0.633665 0.568699 0.539496
v 0.633665 0.553615 0.539496
v 0.633665 0.538531 0.539496
v 0.632857 0.536507 0.539496
v 0.630383 0.536308 0.539496
v 0.612927 0.543533 0.539496
v 0.402756 0.520007 0.460505
v 0.410259 0.519637 0.460505
v 0.420542 0.519584 0.460505
v 0.455176 0.528462 0.460505
v 0.470514 0.563618 0.460505
v 0.458167 0.595109 0.460505
v 0.423824 0.605641 0.460505
v 0.411450 0.605402 0.460505
v 0.402650 0.605006 0.460505
v 0.402703 0.562506 0.460505
v 0.363477 0.636867 0.460505
v 0.365237 0.638785 0.460505
v 0.368347 0.639513 0.460505
v 0.393862 0.640280 0.460505
v 0.425095 0.640571 0.460505
v 0.490366 0.618515 0.460505
v 0.509899 0.564465 0.460505
v 0.483404 0.503548 0.460505
v 0.419589 0.484547 0.460505
v 0.410100 0.484759 0.460505
v 0.402438 0.484971 0.460505
v 0.402438 0.442736 0.460505
v 0.402438 0.400502 0.460505
v 0.401869 0.398504 0.460505
v 0.399791 0.397856 0.460505
v 0.382957 0.397856 0.460505
v 0.366123 0.397856 0.460505
v 0.364125 0.398425 0.460505
v 0.363477 0.400502 0.460505
v 0.363477 0.518684 0.460505
v 0.592057 0.546153 0.460505
v 0.573899 0.540847 0.460505
v 0.568765 0.530063 0.460505
v 0.573648 0.518856 0.460505
v 0.596080 0.504553 0.460505
v 0.631680 0.478937 0.460505
v 0.641393 0.448241 0.460505
v 0.623408 0.407925 0.460505
v 0.578187 0.394045 0.460505
v 0.551984 0.396691 0.460505
v 0.533085 0.403466 0.460505
v 0.531590 0.404815 0.460505
v 0.531285 0.406959 0.460505
v 0.531285 0.423207 0.460505
v 0.531285 0.439455 0.460505
v 0.532013 0.441585 0.460505
v 0.533932 0.441254 0.460505
v 0.555822 0.431371 0.460505
v 0.578187 0.428235 0.460505
v 0.597033 0.433117 0.460505
v 0.602856 0.445383 0.460505
v 0.597535 0.457264 0.460505
v 0.575540 0.471845 0.460505
v 0.541701 0.495649 0.460505
v 0.531285 0.527311 0.460505
v 0.547219 0.563935 0.460505
v 0.592057 0.579284 0.460505
v 0.616156 0.577445 0.460505
v 0.631441 0.573144 0.460505
v 0.633228 0.571120 0.460505
v 0.633665 0.568699 0.460505
v 0.633665 0.553615 0.460505
v 0.633665 0.538531 0.460505
v 0.632857 0.536507 0.460505
v 0.630383 0.536308 0.460505
v 0.612927 0.543533 0.460505
vn -0.0000 -0.0000 1.0000
vn -0.0000 -0.0000 -1.0000
vn 0.0493 0.9988 -0.0000
vn -0.2483 0.9687 -0.0000
vn -0.9310 -0.3650 -0.0000
vn 0.0192 -0.9998 -0.0000
vn 1.0000 0.0012 -0.0000
vn -0.7369 0.6760 -0.0000
vn -0.0301 0.9995 -0.0000
vn -0.0223 -0.9998 -0.0000
vn 1.0000 -0.0000 -0.0000
vn 0.9617 -0.2739 -0.0000
vn -0.0000 -1.0000 -0.0000
vn 0.2805 -0.9599 -0.0000
vn 0.9167 0.3995 -0.0000
vn 0.9132 -0.4074 -0.0000
vn -0.1005 -0.9949 -0.0000
vn -0.6700 -0.7424 -0.0000
vn -1.0000 -0.0000 -0.0000
vn -0.9463 0.3233 -0.0000
vn -0.2508 0.9680 -0.0000
vn -0.1246 -0.9922 -0.0000
vn 0.0761 0.9971 -0.0000
vn 0.7498 0.6617 -0.0000
vn 0.9289 -0.3704 -0.0000
vn 0.4115 0.9114 -0.0000
vn -0.9127 -0.4087 -0.0000
vn -0.5753 -0.8179 -0.0000
vn 0.3201 0.9474 -0.0000
vn -0.9170 0.3989 -0.0000
vn 0.9170 -0.3988 -0.0000
vn 0.0051 1.0000 -0.0000
vn -0.9166 0.3999 -0.0000
vn -0.2932 -0.9561 -0.0000
vn 0.0451 -0.9990 -0.0000
vn -0.2278 0.9737 -0.0000
vn -0.0093 1.0000 -0.0000
vn 0.2854 -0.9584 -0.0000
vn 0.2979 -0.9546 -0.0000
vn -0.9546 -0.2980 -0.0000
vn 0.9029 -0.4299 -0.0000
vn 0.5376 0.8432 -0.0000
vn 0.9534 0.3017 -0.0000
vn 0.2934 -0.9560 -0.0000
vn -0.3374 -0.9413 -0.0000
vn -0.9901 -0.1406 -0.0000
vn 0.1699 0.9855 -0.0000
vn -0.9034 0.4289 -0.0000
vn -0.3239 0.9461 -0.0000
vn 0.9841 0.1775 -0.0000
vn 0.0799 -0.9968 -0.0000
vn -0.3824 -0.9240 -0.0000
vn -0.2738 -0.9618 -0.0000
vn 0.1388 0.9903 -0.0000
vn -0.5525 -0.8335 -0.0000
vn -0.9499 -0.3125 -0.0000
vn 0.5841 0.8117 -0.0000
vn 0.9405 0.3399 -0.0000
vn 0.2708 0.9626 -0.0000
vn -0.0276 -0.9996 -0.0000
vt 0.846154 0.000000
vt 0.876923 0.000000
vt 0.861538 0.000000
vt 0.892308 0.000000
vt 0.907692 0.000000
vt 0.923077 0.000000
vt 0.938462 0.000000
vt 0.830769 0.000000
vt 0.476923 0.000000
vt 0.461538 0.000000
vt 1.000000 0.000000
vt 0.953846 0.000000
vt 0.984615 0.000000
vt 0.492308 0.000000
vt 0.969231 0.000000
vt 0.507692 0.000000
vt 0.815385 0.000000
vt 0.523077 0.000000
vt 0.538462 0.000000
vt 0.800000 0.000000
vt 0.553846 0.000000
vt 0.784615 0.000000
vt 0.769231 0.000000
vt 0.569231 0.000000
vt 0.753846 0.000000
vt 0.676923 0.000000
vt 0.707692 0.000000
vt 0.692308 0.000000
vt 0.723077 0.000000
vt 0.661538 0.000000
vt 0.738462 0.000000
vt 0.646154 0.000000
vt 0.584615 0.000000
vt 0.630769 0.000000
vt 0.615385 0.000000
vt 0.600000 0.000000
vt 0.200000 0.000000
vt 0.230769 0.000000
vt 0.215385 0.000000
vt 0.184615 0.000000
vt 0.169231 0.000000
vt 0.153846 0.000000
vt 0.446154 0.000000
vt 0.123077 0.000000
vt 0.107692 0.000000
vt 0.092308 0.000000
vt 0.076923 0.000000
vt 0.246154 0.000000
vt 0.138462 0.000000
vt 0.061538 0.000000
vt 0.261538 0.000000
vt 0.046154 0.000000
vt 0.000000 0.000000
vt 0.030769 0.000000
vt 0.015385 0.000000
vt 0.430769 0.000000
vt 0.307692 0.000000
vt 0.276923 0.000000
vt 0.323077 0.000000
vt 0.292308 0.000000
vt 0.338462 0.000000
vt 0.415385 0.000000
vt 0.353846 0.000000
vt 0.369231 0.000000
vt 0.400000 0.000000
vt 0.384615 0.000000
s 0
g Photoshop_Text_PhotoshopText
usemtl PhotoshopText
f 80/13/13 82/14/13 81/15/13
f 80/13/13 83/16/13 82/14/13
f 80/13/13 84/17/13 83/16/13
f 80/13/13 85/18/13 84/17/13
f 80/13/13 86/19/13 85/18/13
f 79/20/13 56/21/13 80/13/13
f 56/21/13 55/22/13 80/13/13
f 55/22/13 86/19/13 80/13/13
f 55/22/13 90/23/13 86/19/13
f 90/23/13 87/24/13 86/19/13
f 89/25/13 87/24/13 90/23/13
f 79/20/13 57/26/13 56/21/13
f 89/25/13 88/27/13 87/24/13
f 79/20/13 58/28/13 57/26/13
f 78/29/13 58/28/13 79/20/13
f 78/29/13 59/30/13 58/28/13
f 78/29/13 60/31/13 59/30/13
f 77/32/13 60/31/13 78/29/13
f 77/32/13 61/33/13 60/31/13
f 76/34/13 61/33/13 77/32/13
f 75/35/13 61/33/13 76/34/13
f 75/35/13 62/36/13 61/33/13
f 74/37/13 62/36/13 75/35/13
f 69/38/13 71/39/13 70/40/13
f 69/38/13 72/41/13 71/39/13
f 68/42/13 72/41/13 69/38/13
f 73/43/13 62/36/13 74/37/13
f 68/42/13 73/43/13 72/41/13
f 68/42/13 62/36/13 73/43/13
f 67/44/13 62/36/13 68/42/13
f 67/44/13 63/45/13 62/36/13
f 66/46/13 63/45/13 67/44/13
f 65/47/13 63/45/13 66/46/13
f 64/48/13 63/45/13 65/47/13
f 38/49/13 40/50/13 39/51/13
f 37/52/13 40/50/13 38/49/13
f 36/53/13 40/50/13 37/52/13
f 35/54/13 40/50/13 36/53/13
f 54/55/13 33/56/13 35/54/13
f 33/56/13 40/50/13 35/54/13
f 33/56/13 32/57/13 40/50/13
f 32/57/13 31/58/13 40/50/13
f 31/58/13 30/59/13 40/50/13
f 30/59/13 41/60/13 40/50/13
f 54/55/13 34/61/13 33/56/13
f 29/62/13 41/60/13 30/59/13
f 29/62/13 42/63/13 41/60/13
f 28/64/13 42/63/13 29/62/13
f 54/55/13 25/65/13 34/61/13
f 27/66/13 42/63/13 28/64/13
f 54/55/13 26/67/13 25/65/13
f 54/55/13 27/66/13 26/67/13
f 54/55/13 42/63/13 27/66/13
f 53/68/13 45/69/13 54/55/13
f 45/69/13 42/63/13 54/55/13
f 45/69/13 43/70/13 42/63/13
f 53/68/13 46/71/13 45/69/13
f 44/72/13 43/70/13 45/69/13
f 53/68/13 47/73/13 46/71/13
f 52/74/13 47/73/13 53/68/13
f 52/74/13 48/75/13 47/73/13
f 52/74/13 49/76/13 48/75/13
f 51/77/13 49/76/13 52/74/13
f 50/78/13 49/76/13 51/77/13
f 146/13/14 147/15/14 148/14/14
f 146/13/14 148/14/14 149/16/14
f 146/13/14 149/16/14 150/17/14
f 146/13/14 150/17/14 151/18/14
f 146/13/14 151/18/14 152/19/14
f 145/20/14 146/13/14 122/21/14
f 122/21/14 146/13/14 121/22/14
f 121/22/14 146/13/14 152/19/14
f 121/22/14 152/19/14 156/23/14
f 156/23/14 152/19/14 153/24/14
f 155/25/14 156/23/14 153/24/14
f 145/20/14 122/21/14 123/26/14
f 155/25/14 153/24/14 154/27/14
f 145/20/14 123/26/14 124/28/14
f 144/29/14 145/20/14 124/28/14
f 144/29/14 124/28/14 125/30/14
f 144/29/14 125/30/14 126/31/14
f 143/32/14 144/29/14 126/31/14
f 143/32/14 126/31/14 127/33/14
f 142/34/14 143/32/14 127/33/14
f 141/35/14 142/34/14 127/33/14
f 141/35/14 127/33/14 128/36/14
f 140/37/14 141/35/14 128/36/14
f 135/38/14 136/40/14 137/39/14
f 135/38/14 137/39/14 138/41/14
f 134/42/14 135/38/14 138/41/14
f 139/43/14 140/37/14 128/36/14
f 134/42/14 138/41/14 139/43/14
f 134/42/14 139/43/14 128/36/14
f 133/44/14 134/42/14 128/36/14
f 133/44/14 128/36/14 129/45/14
f 132/46/14 133/44/14 129/45/14
f 131/47/14 132/46/14 129/45/14
f 130/48/14 131/47/14 129/45/14
f 104/49/14 105/51/14 106/50/14
f 103/52/14 104/49/14 106/50/14
f 102/53/14 103/52/14 106/50/14
f 101/54/14 102/53/14 106/50/14
f 120/55/14 101/54/14 99/56/14
f 99/56/14 101/54/14 106/50/14
f 99/56/14 106/50/14 98/57/14
f 98/57/14 106/50/14 97/58/14
f 97/58/14 106/50/14 96/59/14
f 96/59/14 106/50/14 107/60/14
f 120/55/14 99/56/14 100/61/14
f 95/62/14 96/59/14 107/60/14
f 95/62/14 107/60/14 108/63/14
f 94/64/14 95/62/14 108/63/14
f 120/55/14 100/61/14 91/65/14
f 93/66/14 94/64/14 108/63/14
f 120/55/14 91/65/14 92/67/14
f 120/55/14 92/67/14 93/66/14
f 120/55/14 93/66/14 108/63/14
f 119/68/14 120/55/14 111/69/14
f 111/69/14 120/55/14 108/63/14
f 111/69/14 108/63/14 109/70/14
f 119/68/14 111/69/14 112/71/14
f 110/72/14 111/69/14 109/70/14
f 119/68/14 112/71/14 113/73/14
f 118/74/14 119/68/14 113/73/14
f 118/74/14 113/73/14 114/75/14
f 118/74/14 114/75/14 115/76/14
f 117/77/14 118/74/14 115/76/14
f 116/78/13 117/77/13 115/76/13
f 26/67/15 91/65/15 25/65/15
f 28/64/16 93/66/16 27/66/16
f 30/59/17 95/62/17 29/62/17
f 32/57/18 97/58/18 31/58/18
f 34/61/19 99/56/19 33/56/19
f 36/53/20 101/54/20 35/54/20
f 38/49/21 103/52/21 37/52/21
f 44/72/22 109/70/22 43/70/22
f 46/71/23 111/69/23 45/69/23
f 48/75/24 113/73/24 47/73/24
f 50/78/25 115/76/25 49/76/25
f 56/21/26 121/22/26 55/22/26
f 58/28/27 123/26/27 57/26/27
f 62/36/28 127/33/28 61/33/28
f 64/48/29 129/45/29 63/45/29
f 66/46/30 131/47/30 65/47/30
f 68/42/31 133/44/31 67/44/31
f 70/40/32 135/38/32 69/38/32
f 74/37/33 139/43/33 73/43/33
f 55/22/34 156/23/34 90/23/34
f 82/14/35 147/15/35 81/15/35
f 84/17/36 149/16/36 83/16/36
f 86/19/23 151/18/23 85/18/23
f 88/27/37 153/24/37 87/24/37
f 72/41/38 137/39/38 71/39/38
f 76/34/39 141/35/39 75/35/39
f 78/29/40 143/32/40 77/32/40
f 40/50/41 105/51/41 39/51/41
f 80/13/42 145/20/42 79/20/42
f 42/63/43 107/60/43 41/60/43
f 35/54/31 120/55/31 54/55/31
f 25/65/19 100/61/19 34/61/19
f 27/66/44 92/67/44 26/67/44
f 29/62/45 94/64/45 28/64/45
f 31/58/46 96/59/46 30/59/46
f 33/56/47 98/57/47 32/57/47
f 37/52/48 102/53/48 36/53/48
f 39/51/49 104/49/49 38/49/49
f 43/70/50 108/63/50 42/63/50
f 47/73/23 112/71/23 46/71/23
f 49/76/51 114/75/51 48/75/51
f 51/77/25 116/78/25 50/78/25
f 53/68/52 118/74/52 52/74/52
f 57/26/53 122/21/53 56/21/53
f 59/30/54 124/28/54 58/28/54
f 61/33/55 126/31/55 60/31/55
f 63/45/56 128/36/56 62/36/56
f 65/47/57 130/48/57 64/48/57
f 67/44/58 132/46/58 66/46/58
f 69/38/31 134/42/31 68/42/31
f 71/39/59 136/40/59 70/40/59
f 75/35/60 140/37/60 74/37/60
f 81/15/61 146/13/61 80/13/61
f 85/18/62 150/17/62 84/17/62
f 87/24/23 152/19/23 86/19/23
f 89/25/63 154/27/63 88/27/63
f 90/23/64 155/25/64 89/25/64
f 52/74/65 117/77/65 51/77/65
f 73/43/66 138/41/66 72/41/66
f 54/55/31 119/68/31 53/68/31
f 77/32/67 142/34/67 76/34/67
f 79/20/68 144/29/68 78/29/68
f 60/31/69 125/30/69 59/30/69
f 41/60/70 106/50/70 40/50/70
f 83/16/71 148/14/71 82/14/71
f 45/69/72 110/72/72 44/72/72
f 26/67/15 92/67/15 91/65/15
f 28/64/16 94/64/16 93/66/16
f 30/59/17 96/59/17 95/62/17
f 32/57/18 98/57/18 97/58/18
f 34/61/19 100/61/19 99/56/19
f 36/53/20 102/53/20 101/54/20
f 38/49/21 104/49/21 103/52/21
f 44/72/22 110/72/22 109/70/22
f 46/71/23 112/71/23 111/69/23
f 48/75/24 114/75/24 113/73/24
f 50/78/25 116/78/25 115/76/25
f 56/21/26 122/21/26 121/22/26
f 58/28/27 124/28/27 123/26/27
f 62/36/28 128/36/28 127/33/28
f 64/48/29 130/48/29 129/45/29
f 66/46/30 132/46/30 131/47/30
f 68/42/31 134/42/31 133/44/31
f 70/40/32 136/40/32 135/38/32
f 74/37/33 140/37/33 139/43/33
f 55/22/34 121/22/34 156/23/34
f 82/14/35 148/14/35 147/15/35
f 84/17/36 150/17/36 149/16/36
f 86/19/23 152/19/23 151/18/23
f 88/27/37 154/27/37 153/24/37
f 72/41/38 138/41/38 137/39/38
f 76/34/39 142/34/39 141/35/39
f 78/29/40 144/29/40 143/32/40
f 40/50/41 106/50/41 105/51/41
f 80/13/42 146/13/42 145/20/42
f 42/63/43 108/63/43 107/60/43
f 35/54/31 101/54/31 120/55/31
f 25/65/19 91/65/19 100/61/19
f 27/66/44 93/66/44 92/67/44
f 29/62/45 95/62/45 94/64/45
f 31/58/46 97/58/46 96/59/46
f 33/56/47 99/56/47 98/57/47
f 37/52/48 103/52/48 102/53/48
f 39/51/49 105/51/49 104/49/49
f 43/70/50 109/70/50 108/63/50
f 47/73/23 113/73/23 112/71/23
f 49/76/51 115/76/51 114/75/51
f 51/77/25 117/77/25 116/78/25
f 53/68/52 119/68/52 118/74/52
f 57/26/53 123/26/53 122/21/53
f 59/30/54 125/30/54 124/28/54
f 61/33/55 127/33/55 126/31/55
f 63/45/56 129/45/56 128/36/56
f 65/47/57 131/47/57 130/48/57
f 67/44/58 133/44/58 132/46/58
f 69/38/31 135/38/31 134/42/31
f 71/39/59 137/39/59 136/40/59
f 75/35/60 141/35/60 140/37/60
f 81/15/61 147/15/61 146/13/61
f 85/18/62 151/18/62 150/17/62
f 87/24/23 153/24/23 152/19/23
f 89/25/63 155/25/63 154/27/63
f 90/23/64 156/23/64 155/25/64
f 52/74/65 118/74/65 117/77/65
f 73/43/66 139/43/66 138/41/66
f 54/55/31 120/55/31 119/68/31
f 77/32/67 143/32/67 142/34/67
f 79/20/68 145/20/68 144/29/68
f 60/31/69 126/31/69 125/30/69
f 41/60/70 107/60/70 106/50/70
f 83/16/71 149/16/71 148/14/71
f 45/69/72 111/69/72 110/72/72
