# Blender 4.1.1 Goo Engine
# www.blender.org
mtllib premiere_pro.mtl
o Premiere_Pro_Base
v 0.244439 0.755561 0.534849
v 0.755561 0.755561 0.534849
v 0.755561 0.244439 0.534849
v 0.244439 0.244439 0.534849
v 0.244439 0.755561 0.465151
v 0.755561 0.755561 0.465151
v 0.755561 0.244439 0.465151
v 0.244439 0.244439 0.465151
vn -0.0000 -0.0000 1.0000
vn -0.0000 -0.0000 -1.0000
vn -1.0000 -0.0000 -0.0000
vn -0.0000 1.0000 -0.0000
vn 1.0000 -0.0000 -0.0000
vn -0.0000 -1.0000 -0.0000
vt 1.000000 0.000000
vt 0.333333 0.000000
vt 0.000000 0.000000
vt 0.666667 0.000000
s 0
g Premiere_Pro_Base_PremiereProBase
usemtl PremiereProBase
f 4/1/1 2/2/1 1/3/1
f 4/1/1 3/4/1 2/2/1
f 8/1/2 5/3/2 6/2/2
f 8/1/2 6/2/2 7/4/2
f 1/3/3 8/1/3 4/1/3
f 2/2/4 5/3/4 1/3/4
f 3/4/5 6/2/5 2/2/5
f 4/1/6 7/4/6 3/4/6
f 1/3/3 5/3/3 8/1/3
f 2/2/4 6/2/4 5/3/4
f 3/4/5 7/4/5 6/2/5
f 4/1/6 8/1/6 7/4/6
o Premiere_Pro_Border
v 0.221206 0.777711 0.527881
v 0.221206 0.220510 0.527881
v 0.778407 0.220510 0.527881
v 0.778407 0.777711 0.527881
v 0.244422 0.753899 0.527881
v 0.755190 0.753899 0.527881
v 0.755190 0.244322 0.527881
v 0.244422 0.244322 0.527881
v 0.221206 0.777711 0.472123
v 0.221206 0.220510 0.472123
v 0.778407 0.220510 0.472123
v 0.778407 0.777711 0.472123
v 0.244422 0.753899 0.472123
v 0.755190 0.753899 0.472123
v 0.755190 0.244322 0.472123
v 0.244422 0.244322 0.472123
vn -0.0000 -0.0000 1.0000
vn -0.0000 -0.0000 -1.0000
vn -1.0000 -0.0000 -0.0000
vn -0.0000 -1.0000 -0.0000
vn 1.0000 -0.0000 -0.0000
vn -0.0000 1.0000 -0.0000
vt 0.142857 0.000000
vt 0.571429 0.000000
vt 0.000000 0.000000
vt 0.428571 0.000000
vt 0.714286 0.000000
vt 0.285714 0.000000
vt 1.000000 0.000000
vt 0.857143 0.000000
s 0
g Premiere_Pro_Border_PremiereProBorder
usemtl PremiereProBorder
f 10/5/7 13/6/7 9/7/7
f 13/6/7 12/8/7 9/7/7
f 13/6/7 14/9/7 12/8/7
f 14/9/7 11/10/7 12/8/7
f 10/5/7 16/11/7 13/6/7
f 15/12/7 11/10/7 14/9/7
f 10/5/7 15/12/7 16/11/7
f 10/5/7 11/10/7 15/12/7
f 18/5/8 17/7/8 21/6/8
f 21/6/8 17/7/8 20/8/8
f 21/6/8 20/8/8 22/9/8
f 22/9/8 20/8/8 19/10/8
f 18/5/8 21/6/8 24/11/8
f 23/12/8 22/9/8 19/10/8
f 18/5/8 24/11/8 23/12/8
f 18/5/8 23/12/8 19/10/8
f 9/7/9 18/5/9 10/5/9
f 10/5/10 19/10/10 11/10/10
f 11/10/11 20/8/11 12/8/11
f 13/6/10 22/9/10 14/9/10
f 14/9/9 23/12/9 15/12/9
f 12/8/12 17/7/12 9/7/12
f 15/12/12 24/11/12 16/11/12
f 16/11/11 21/6/11 13/6/11
f 9/7/9 17/7/9 18/5/9
f 10/5/10 18/5/10 19/10/10
f 11/10/11 19/10/11 20/8/11
f 13/6/10 21/6/10 22/9/10
f 14/9/9 22/9/9 23/12/9
f 12/8/12 20/8/12 17/7/12
f 15/12/12 23/12/12 24/11/12
f 16/11/11 24/11/11 21/6/11
o Premiere_Pro_Text
v 0.555760 0.534203 0.539496
v 0.555615 0.541635 0.539496
v 0.554598 0.556734 0.539496
v 0.554918 0.558679 0.539496
v 0.556457 0.559753 0.539496
v 0.590174 0.569944 0.539496
v 0.641489 0.575780 0.539496
v 0.643580 0.575316 0.539496
v 0.644277 0.573458 0.539496
v 0.644277 0.556617 0.539496
v 0.644277 0.539777 0.539496
v 0.643696 0.537919 0.539496
v 0.641721 0.537454 0.539496
v 0.617327 0.536700 0.539496
v 0.597811 0.532809 0.539496
v 0.597811 0.459641 0.539496
v 0.597811 0.386473 0.539496
v 0.597202 0.384383 0.539496
v 0.595023 0.383686 0.539496
v 0.576786 0.383686 0.539496
v 0.558548 0.383686 0.539496
v 0.556457 0.384296 0.539496
v 0.555760 0.386473 0.539496
v 0.555760 0.460338 0.539496
v 0.365948 0.636405 0.539495
v 0.366413 0.638409 0.539495
v 0.368271 0.639193 0.539495
v 0.395076 0.640035 0.539495
v 0.427980 0.640354 0.539495
v 0.498346 0.617039 0.539496
v 0.520446 0.559753 0.539496
v 0.492509 0.495470 0.539496
v 0.425192 0.475436 0.539496
v 0.415172 0.475668 0.539496
v 0.407070 0.475901 0.539496
v 0.407070 0.431303 0.539496
v 0.407070 0.386706 0.539496
v 0.406460 0.384615 0.539496
v 0.404282 0.383918 0.539496
v 0.386393 0.383918 0.539496
v 0.368504 0.383918 0.539496
v 0.366413 0.384528 0.539496
v 0.365716 0.386706 0.539496
v 0.365745 0.511555 0.539496
v 0.407070 0.513065 0.539496
v 0.414998 0.512659 0.539496
v 0.425889 0.512601 0.539496
v 0.462451 0.521979 0.539496
v 0.478627 0.559056 0.539496
v 0.465675 0.592301 0.539496
v 0.429373 0.603422 0.539496
v 0.416305 0.603160 0.539496
v 0.407070 0.602725 0.539496
v 0.407070 0.557895 0.539496
v 0.555760 0.534203 0.460504
v 0.555615 0.541635 0.460504
v 0.554598 0.556734 0.460504
v 0.554918 0.558679 0.460504
v 0.556457 0.559753 0.460504
v 0.590174 0.569944 0.460504
v 0.641489 0.575780 0.460504
v 0.643580 0.575316 0.460504
v 0.644277 0.573458 0.460504
v 0.644277 0.556617 0.460504
v 0.644277 0.539777 0.460504
v 0.643696 0.537919 0.460504
v 0.641721 0.537454 0.460504
v 0.617327 0.536700 0.460504
v 0.597811 0.532809 0.460504
v 0.597811 0.459641 0.460504
v 0.597811 0.386473 0.460505
v 0.597202 0.384383 0.460505
v 0.595023 0.383686 0.460505
v 0.576786 0.383686 0.460505
v 0.558548 0.383686 0.460505
v 0.556457 0.384296 0.460505
v 0.555760 0.386473 0.460505
v 0.555760 0.460338 0.460504
v 0.365948 0.636405 0.460504
v 0.366413 0.638409 0.460504
v 0.368271 0.639193 0.460504
v 0.395076 0.640035 0.460504
v 0.427980 0.640354 0.460504
v 0.498346 0.617039 0.460504
v 0.520446 0.559753 0.460504
v 0.492509 0.495470 0.460504
v 0.425192 0.475436 0.460504
v 0.415172 0.475668 0.460504
v 0.407070 0.475901 0.460504
v 0.407070 0.431303 0.460504
v 0.407070 0.386705 0.460505
v 0.406460 0.384615 0.460505
v 0.404282 0.383918 0.460505
v 0.386393 0.383918 0.460505
v 0.368504 0.383918 0.460505
v 0.366413 0.384528 0.460505
v 0.365716 0.386705 0.460505
v 0.365745 0.511555 0.460504
v 0.407070 0.513065 0.460504
v 0.414998 0.512659 0.460504
v 0.425889 0.512601 0.460504
v 0.462451 0.521979 0.460504
v 0.478627 0.559056 0.460504
v 0.465675 0.592301 0.460504
v 0.429373 0.603422 0.460504
v 0.416305 0.603160 0.460504
v 0.407070 0.602725 0.460504
v 0.407070 0.557895 0.460504
vn -0.0000 -0.0000 1.0000
vn -0.0000 -0.0000 -1.0000
vn -0.9998 -0.0195 -0.0000
vn -0.0000 -1.0000 -0.0000
vn -0.9868 0.1620 -0.0000
vn -0.5723 0.8200 -0.0000
vn -0.2893 0.9572 -0.0000
vn -0.1130 0.9936 -0.0000
vn 0.2290 -0.9734 -0.0000
vn -0.2799 -0.9600 -0.0000
vn 1.0000 -0.0000 -0.0000
vn 0.9600 -0.2801 -0.0000
vn 0.3047 -0.9524 -0.0000
vn -0.9977 -0.0672 -0.0000
vn -1.0000 -0.0000 -0.0000
vn -0.9741 0.2259 -0.0000
vn -0.3886 0.9214 -0.0000
vn -0.0314 0.9995 -0.0000
vn -0.0097 1.0000 -0.0000
vn 0.9330 0.3599 -0.0000
vn 0.9171 -0.3986 -0.0000
vn 0.2852 -0.9585 -0.0000
vn -0.0232 -0.9997 -0.0000
vn 0.9600 -0.2800 -0.0000
vn -1.0000 0.0002 -0.0000
vn -1.0000 0.0016 -0.0000
vn -0.2800 -0.9600 -0.0000
vn 0.0512 0.9987 -0.0000
vn 0.0053 1.0000 -0.0000
vn 0.2169 0.9762 -0.0000
vn -0.2485 0.9686 -0.0000
vn 0.9363 0.3512 -0.0000
vn -0.9166 0.3999 -0.0000
vn 0.3145 0.9493 -0.0000
vn -0.9318 -0.3630 -0.0000
vn -0.9524 -0.3048 -0.0000
vn -0.2929 -0.9561 -0.0000
vn 0.9545 -0.2983 -0.0000
vn 0.0200 -0.9998 -0.0000
vn 0.0471 -0.9989 -0.0000
vn 0.0309 -0.9995 -0.0000
vn 0.1955 -0.9807 -0.0000
vn -0.0287 -0.9996 -0.0000
vt 0.509434 0.000000
vt 0.547170 0.000000
vt 0.528302 0.000000
vt 0.490566 0.000000
vt 0.471698 0.000000
vt 0.452830 0.000000
vt 0.811321 0.000000
vt 0.981132 0.000000
vt 0.962264 0.000000
vt 0.943396 0.000000
vt 0.924528 0.000000
vt 0.566038 0.000000
vt 1.000000 0.000000
vt 0.905660 0.000000
vt 0.584906 0.000000
vt 0.886792 0.000000
vt 0.830189 0.000000
vt 0.867925 0.000000
vt 0.849057 0.000000
vt 0.792453 0.000000
vt 0.641509 0.000000
vt 0.603774 0.000000
vt 0.660377 0.000000
vt 0.622642 0.000000
vt 0.679245 0.000000
vt 0.773585 0.000000
vt 0.698113 0.000000
vt 0.716981 0.000000
vt 0.754717 0.000000
vt 0.735849 0.000000
vt 0.094340 0.000000
vt 0.132075 0.000000
vt 0.113208 0.000000
vt 0.150943 0.000000
vt 0.169811 0.000000
vt 0.075472 0.000000
vt 0.056604 0.000000
vt 0.037736 0.000000
vt 0.018868 0.000000
vt 0.188679 0.000000
vt 0.000000 0.000000
vt 0.207547 0.000000
vt 0.245283 0.000000
vt 0.226415 0.000000
vt 0.264151 0.000000
vt 0.433962 0.000000
vt 0.283019 0.000000
vt 0.415094 0.000000
vt 0.301887 0.000000
vt 0.396226 0.000000
vt 0.320755 0.000000
vt 0.339623 0.000000
vt 0.377358 0.000000
vt 0.358491 0.000000
s 0
g Premiere_Pro_Text_PremiereProText
usemtl PremiereProText
f 52/13/13 54/14/13 53/15/13
f 51/16/13 54/14/13 52/13/13
f 50/17/13 54/14/13 51/16/13
f 49/18/13 54/14/13 50/17/13
f 68/19/13 77/20/13 49/18/13
f 77/20/13 54/14/13 49/18/13
f 77/20/13 76/21/13 54/14/13
f 76/21/13 75/22/13 54/14/13
f 75/22/13 74/23/13 54/14/13
f 74/23/13 55/24/13 54/14/13
f 68/19/13 78/25/13 77/20/13
f 73/26/13 55/24/13 74/23/13
f 73/26/13 56/27/13 55/24/13
f 72/28/13 56/27/13 73/26/13
f 68/19/13 69/29/13 78/25/13
f 71/30/13 56/27/13 72/28/13
f 68/19/13 70/31/13 69/29/13
f 68/19/13 71/30/13 70/31/13
f 68/19/13 56/27/13 71/30/13
f 67/32/13 59/33/13 68/19/13
f 59/33/13 56/27/13 68/19/13
f 59/33/13 57/34/13 56/27/13
f 67/32/13 60/35/13 59/33/13
f 58/36/13 57/34/13 59/33/13
f 67/32/13 61/37/13 60/35/13
f 66/38/13 61/37/13 67/32/13
f 66/38/13 62/39/13 61/37/13
f 66/38/13 63/40/13 62/39/13
f 65/41/13 63/40/13 66/38/13
f 64/42/13 63/40/13 65/41/13
f 30/43/13 32/44/13 31/45/13
f 30/43/13 33/46/13 32/44/13
f 30/43/13 34/47/13 33/46/13
f 29/48/13 34/47/13 30/43/13
f 28/49/13 34/47/13 29/48/13
f 27/50/13 34/47/13 28/49/13
f 26/51/13 34/47/13 27/50/13
f 26/51/13 35/52/13 34/47/13
f 25/53/13 35/52/13 26/51/13
f 25/53/13 36/54/13 35/52/13
f 25/53/13 38/55/13 36/54/13
f 38/55/13 37/56/13 36/54/13
f 25/53/13 39/57/13 38/55/13
f 48/58/13 39/57/13 25/53/13
f 48/58/13 40/59/13 39/57/13
f 47/60/13 40/59/13 48/58/13
f 47/60/13 41/61/13 40/59/13
f 46/62/13 41/61/13 47/60/13
f 46/62/13 42/63/13 41/61/13
f 46/62/13 43/64/13 42/63/13
f 45/65/13 43/64/13 46/62/13
f 44/66/13 43/64/13 45/65/13
f 106/13/14 107/15/14 108/14/14
f 105/16/14 106/13/14 108/14/14
f 104/17/14 105/16/14 108/14/14
f 103/18/14 104/17/14 108/14/14
f 122/19/14 103/18/14 131/20/14
f 131/20/14 103/18/14 108/14/14
f 131/20/14 108/14/14 130/21/14
f 130/21/14 108/14/14 129/22/14
f 129/22/14 108/14/14 128/23/14
f 128/23/14 108/14/14 109/24/14
f 122/19/14 131/20/14 132/25/14
f 127/26/14 128/23/14 109/24/14
f 127/26/14 109/24/14 110/27/14
f 126/28/14 127/26/14 110/27/14
f 122/19/14 132/25/14 123/29/14
f 125/30/14 126/28/14 110/27/14
f 122/19/14 123/29/14 124/31/14
f 122/19/14 124/31/14 125/30/14
f 122/19/14 125/30/14 110/27/14
f 121/32/14 122/19/14 113/33/14
f 113/33/14 122/19/14 110/27/14
f 113/33/14 110/27/14 111/34/14
f 121/32/14 113/33/14 114/35/14
f 112/36/14 113/33/14 111/34/14
f 121/32/14 114/35/14 115/37/14
f 120/38/14 121/32/14 115/37/14
f 120/38/14 115/37/14 116/39/14
f 120/38/14 116/39/14 117/40/14
f 119/41/14 120/38/14 117/40/14
f 118/42/13 119/41/13 117/40/13
f 84/43/14 85/45/14 86/44/14
f 84/43/14 86/44/14 87/46/14
f 84/43/14 87/46/14 88/47/14
f 83/48/14 84/43/14 88/47/14
f 82/49/14 83/48/14 88/47/14
f 81/50/14 82/49/14 88/47/14
f 80/51/14 81/50/14 88/47/14
f 80/51/14 88/47/14 89/52/14
f 79/53/14 80/51/14 89/52/14
f 79/53/14 89/52/14 90/54/14
f 79/53/14 90/54/14 92/55/14
f 92/55/14 90/54/14 91/56/14
f 79/53/14 92/55/14 93/57/14
f 102/58/14 79/53/14 93/57/14
f 102/58/14 93/57/14 94/59/14
f 101/60/14 102/58/14 94/59/14
f 101/60/14 94/59/14 95/61/14
f 100/62/14 101/60/14 95/61/14
f 100/62/14 95/61/14 96/63/14
f 100/62/14 96/63/14 97/64/14
f 99/65/14 100/62/14 97/64/14
f 98/66/13 99/65/13 97/64/13
f 26/51/15 79/53/15 25/53/15
f 65/41/16 118/42/16 64/42/16
f 28/49/17 81/50/17 27/50/17
f 29/48/18 82/49/18 28/49/18
f 30/43/19 83/48/19 29/48/19
f 31/45/20 84/43/20 30/43/20
f 37/56/21 90/54/21 36/54/21
f 66/38/22 119/41/22 65/41/22
f 41/61/23 94/59/23 40/59/23
f 42/63/24 95/61/24 41/61/24
f 43/64/25 96/63/25 42/63/25
f 27/50/26 80/51/26 26/51/26
f 25/53/27 102/58/27 48/58/27
f 50/17/28 103/18/28 49/18/28
f 51/16/29 104/17/29 50/17/29
f 52/13/30 105/16/30 51/16/30
f 53/15/31 106/13/31 52/13/31
f 55/24/32 108/14/32 54/14/32
f 56/27/33 109/24/33 55/24/33
f 57/34/34 110/27/34 56/27/34
f 58/36/35 111/34/35 57/34/35
f 60/35/23 113/33/23 59/33/23
f 61/37/23 114/35/23 60/35/23
f 62/39/36 115/37/36 61/37/36
f 63/40/25 116/39/25 62/39/25
f 64/42/16 117/40/16 63/40/16
f 68/19/37 121/32/37 67/32/37
f 49/18/38 122/19/38 68/19/38
f 46/62/39 99/65/39 45/65/39
f 70/31/40 123/29/40 69/29/40
f 71/30/41 124/31/41 70/31/41
f 32/44/42 85/45/42 31/45/42
f 72/28/43 125/30/43 71/30/43
f 33/46/44 86/44/44 32/44/44
f 73/26/45 126/28/45 72/28/45
f 69/29/23 132/25/23 78/25/23
f 34/47/23 87/46/23 33/46/23
f 54/14/46 107/15/46 53/15/46
f 74/23/47 127/26/47 73/26/47
f 47/60/48 100/62/48 46/62/48
f 35/52/23 88/47/23 34/47/23
f 75/22/49 128/23/49 74/23/49
f 36/54/50 89/52/50 35/52/50
f 76/21/51 129/22/51 75/22/51
f 67/32/48 120/38/48 66/38/48
f 77/20/52 130/21/52 76/21/52
f 38/55/53 91/56/53 37/56/53
f 78/25/23 131/20/23 77/20/23
f 39/57/54 92/55/54 38/55/54
f 59/33/55 112/36/55 58/36/55
f 48/58/27 101/60/27 47/60/27
f 40/59/23 93/57/23 39/57/23
f 44/66/16 97/64/16 43/64/16
f 45/65/16 98/66/16 44/66/16
f 26/51/15 80/51/15 79/53/15
f 65/41/16 119/41/16 118/42/16
f 28/49/17 82/49/17 81/50/17
f 29/48/18 83/48/18 82/49/18
f 30/43/19 84/43/19 83/48/19
f 31/45/20 85/45/20 84/43/20
f 37/56/21 91/56/21 90/54/21
f 66/38/22 120/38/22 119/41/22
f 41/61/23 95/61/23 94/59/23
f 42/63/36 96/63/36 95/61/36
f 43/64/25 97/64/25 96/63/25
f 27/50/26 81/50/26 80/51/26
f 25/53/27 79/53/27 102/58/27
f 50/17/28 104/17/28 103/18/28
f 51/16/29 105/16/29 104/17/29
f 52/13/30 106/13/30 105/16/30
f 53/15/31 107/15/31 106/13/31
f 55/24/32 109/24/32 108/14/32
f 56/27/33 110/27/33 109/24/33
f 57/34/34 111/34/34 110/27/34
f 58/36/35 112/36/35 111/34/35
f 60/35/23 114/35/23 113/33/23
f 61/37/23 115/37/23 114/35/23
f 62/39/24 116/39/24 115/37/24
f 63/40/25 117/40/25 116/39/25
f 64/42/16 118/42/16 117/40/16
f 68/19/37 122/19/37 121/32/37
f 49/18/38 103/18/38 122/19/38
f 46/62/39 100/62/39 99/65/39
f 70/31/40 124/31/40 123/29/40
f 71/30/41 125/30/41 124/31/41
f 32/44/42 86/44/42 85/45/42
f 72/28/43 126/28/43 125/30/43
f 33/46/44 87/46/44 86/44/44
f 73/26/45 127/26/45 126/28/45
f 69/29/23 123/29/23 132/25/23
f 34/47/23 88/47/23 87/46/23
f 54/14/46 108/14/46 107/15/46
f 74/23/47 128/23/47 127/26/47
f 47/60/48 101/60/48 100/62/48
f 35/52/23 89/52/23 88/47/23
f 75/22/49 129/22/49 128/23/49
f 36/54/50 90/54/50 89/52/50
f 76/21/51 130/21/51 129/22/51
f 67/32/48 121/32/48 120/38/48
f 77/20/52 131/20/52 130/21/52
f 38/55/53 92/55/53 91/56/53
f 78/25/23 132/25/23 131/20/23
f 39/57/54 93/57/54 92/55/54
f 59/33/55 113/33/55 112/36/55
f 48/58/27 102/58/27 101/60/27
f 40/59/23 94/59/23 93/57/23
f 44/66/16 98/66/16 97/64/16
f 45/65/16 99/65/16 98/66/16
