# Blender 4.1.1 Goo Engine
# www.blender.org
mtllib white.mtl
o Win10_Task_View_Icon
v 0.669289 0.638596 0.518263
v 0.669289 0.626634 0.518263
v 0.699251 0.626634 0.518263
v 0.729214 0.626634 0.518263
v 0.729214 0.498043 0.518263
v 0.729214 0.369452 0.518263
v 0.699251 0.369452 0.518263
v 0.669289 0.369452 0.518263
v 0.669289 0.357491 0.518263
v 0.669289 0.345529 0.518263
v 0.711236 0.345529 0.518263
v 0.753184 0.345529 0.518263
v 0.753184 0.498043 0.518263
v 0.753184 0.650558 0.518263
v 0.711236 0.650558 0.518263
v 0.669289 0.650558 0.518263
v 0.342696 0.498043 0.518263
v 0.342696 0.312633 0.518263
v 0.500000 0.312633 0.481737
v 0.657304 0.312633 0.518263
v 0.657304 0.498043 0.518263
v 0.657304 0.683454 0.518263
v 0.500000 0.683454 0.518263
v 0.342696 0.683454 0.518263
v 0.633334 0.498043 0.518263
v 0.633334 0.339548 0.518263
v 0.500000 0.339548 0.518263
v 0.366666 0.339548 0.518263
v 0.366666 0.498043 0.518263
v 0.366666 0.656539 0.518263
v 0.500000 0.656539 0.518263
v 0.633334 0.656539 0.518263
v 0.246816 0.498043 0.518263
v 0.246816 0.345529 0.518263
v 0.288763 0.345529 0.518263
v 0.330711 0.345529 0.518263
v 0.330711 0.357491 0.518263
v 0.330711 0.369452 0.518263
v 0.300748 0.369452 0.518263
v 0.270786 0.369452 0.518263
v 0.270786 0.498043 0.518263
v 0.270786 0.626634 0.518263
v 0.300748 0.626634 0.518263
v 0.330711 0.626634 0.518263
v 0.330711 0.638596 0.518263
v 0.330711 0.650558 0.518263
v 0.288763 0.650558 0.518263
v 0.246816 0.650558 0.518263
v 0.669289 0.638596 0.481737
v 0.669289 0.626634 0.481737
v 0.699251 0.626634 0.481737
v 0.729214 0.626634 0.481737
v 0.729214 0.498043 0.481737
v 0.729214 0.369452 0.481737
v 0.699251 0.369452 0.481737
v 0.669289 0.369452 0.481737
v 0.669289 0.357491 0.481737
v 0.669289 0.345529 0.481737
v 0.711236 0.345529 0.481737
v 0.753184 0.345529 0.481737
v 0.753184 0.498043 0.481737
v 0.753184 0.650558 0.481737
v 0.711236 0.650558 0.481737
v 0.669289 0.650558 0.481737
v 0.342696 0.498043 0.481737
v 0.342696 0.312633 0.481737
v 0.500000 0.312633 0.518263
v 0.657304 0.312633 0.481737
v 0.657304 0.498043 0.481737
v 0.657304 0.683454 0.481737
v 0.500000 0.683454 0.481737
v 0.342696 0.683454 0.481737
v 0.633334 0.498043 0.481737
v 0.633334 0.339548 0.481737
v 0.500000 0.339548 0.481737
v 0.366666 0.339548 0.481737
v 0.366666 0.498043 0.481737
v 0.366666 0.656539 0.481737
v 0.500000 0.656539 0.481737
v 0.633334 0.656539 0.481737
v 0.246816 0.498043 0.481737
v 0.246816 0.345529 0.481737
v 0.288763 0.345529 0.481737
v 0.330711 0.345529 0.481737
v 0.330711 0.357491 0.481737
v 0.330711 0.369452 0.481737
v 0.300748 0.369452 0.481737
v 0.270786 0.369452 0.481737
v 0.270786 0.498043 0.481737
v 0.270786 0.626634 0.481737
v 0.300748 0.626634 0.481737
v 0.330711 0.626634 0.481737
v 0.330711 0.638596 0.481737
v 0.330711 0.650558 0.481737
v 0.288763 0.650558 0.481737
v 0.246816 0.650558 0.481737
vn -0.0000 -1.0000 -0.0000
vn -0.0000 -0.0000 1.0000
vn -1.0000 -0.0000 -0.0000
vn 1.0000 -0.0000 -0.0000
vn -0.0000 1.0000 -0.0000
vn -0.0000 -0.0000 -1.0000
vt 0.678292 0.642067
vt 0.635452 0.826557
vt 0.635452 0.457578
vt 0.620672 0.841671
vt 0.635786 0.841671
vt 0.650900 0.841671
vt 0.666015 0.841671
vt 0.736245 0.642067
vt 0.693406 0.826557
vt 0.693406 0.457578
vt 0.681129 0.841671
vt 0.696243 0.841671
vt 0.711358 0.841671
vt 0.726472 0.841671
vt 0.823342 0.830438
vt 0.809313 0.873277
vt 0.809313 0.830438
vt 0.925220 0.457578
vt 0.968059 0.608393
vt 0.925220 0.608393
vt 0.949604 0.007557
vt 0.992443 0.158372
vt 0.949604 0.158372
vt 0.992443 0.309186
vt 0.949604 0.309186
vt 0.181418 0.865579
vt 0.224257 0.900720
vt 0.181418 0.900720
vt 0.441290 0.830438
vt 0.427260 0.873277
vt 0.427260 0.830438
vt 0.413231 0.873277
vt 0.413231 0.830438
vt 0.867266 0.785446
vt 0.910105 0.834643
vt 0.867266 0.834643
vt 0.968059 0.759207
vt 0.925220 0.759207
vt 0.775743 0.225010
vt 0.818582 0.442464
vt 0.775743 0.442464
vt 0.925220 0.958811
vt 0.925220 0.774321
vt 0.833697 0.007557
vt 0.876536 0.225010
vt 0.833697 0.225010
vt 0.876536 0.442464
vt 0.833697 0.442464
vt 0.577499 0.457578
vt 0.620338 0.642067
vt 0.577499 0.642067
vt 0.775743 0.007557
vt 0.818582 0.225010
vt 0.461592 0.643466
vt 0.504431 0.829353
vt 0.461592 0.829353
vt 0.867266 0.457578
vt 0.910105 0.613955
vt 0.867266 0.613955
vt 0.910105 0.770332
vt 0.867266 0.770332
vt 0.239371 0.865579
vt 0.282210 0.900720
vt 0.239371 0.900720
vt 0.751359 0.636451
vt 0.794198 0.815324
vt 0.751359 0.815324
vt 0.065511 0.830438
vt 0.108350 0.879635
vt 0.065511 0.879635
vt 0.620338 0.826557
vt 0.577499 0.826557
vt 0.297324 0.830438
vt 0.340163 0.865579
vt 0.297324 0.865579
vt 0.751359 0.457578
vt 0.794198 0.636451
vt 0.605557 0.841671
vt 0.591528 0.884510
vt 0.591528 0.841671
vt 0.577499 0.884510
vt 0.577499 0.841671
vt 0.181418 0.830438
vt 0.224257 0.865579
vt 0.891650 0.007557
vt 0.934489 0.163934
vt 0.891650 0.163934
vt 0.837371 0.830438
vt 0.823342 0.873277
vt 0.123464 0.830438
vt 0.166303 0.879635
vt 0.123464 0.879635
vt 0.934489 0.320311
vt 0.891650 0.320311
vt 0.461592 0.457578
vt 0.504431 0.643466
vt 0.166303 0.928833
vt 0.123464 0.928833
vt 0.239371 0.830438
vt 0.282210 0.865579
vt 0.519545 0.457578
vt 0.562385 0.643466
vt 0.519545 0.643466
vt 0.562385 0.829353
vt 0.519545 0.829353
vt 0.910105 0.883840
vt 0.867266 0.883840
vt 0.809313 0.457578
vt 0.852152 0.636451
vt 0.809313 0.636451
vt 0.852152 0.815324
vt 0.809313 0.815324
vt 0.007557 0.830438
vt 0.050396 0.879635
vt 0.007557 0.879635
vt 0.050396 0.928833
vt 0.007557 0.928833
vt 0.108350 0.928833
vt 0.065511 0.928833
vt 0.779418 0.830438
vt 0.765388 0.873277
vt 0.765388 0.830438
vt 0.340163 0.900720
vt 0.297324 0.900720
vt 0.751359 0.873277
vt 0.751359 0.830438
vt 0.355278 0.830438
vt 0.398117 0.865579
vt 0.355278 0.865579
vt 0.461592 0.844467
vt 0.398117 0.900720
vt 0.355278 0.900720
vt 0.234575 0.636451
vt 0.234575 0.457578
vt 0.262687 0.485637
vt 0.446478 0.815324
vt 0.348083 0.801295
vt 0.418365 0.787265
vt 0.376536 0.442464
vt 0.348423 0.410898
vt 0.348423 0.225010
vt 0.192047 0.442464
vt 0.035670 0.410898
vt 0.192047 0.410898
vt 0.007557 0.225010
vt 0.007557 0.442464
vt 0.035670 0.039123
vt 0.035670 0.225010
vt 0.007557 0.007557
vt 0.192047 0.039123
vt 0.376536 0.007557
vt 0.348423 0.039123
vt 0.376536 0.225010
vt 0.077839 0.485637
vt 0.007557 0.471607
vt 0.105952 0.457578
vt 0.121066 0.636451
vt 0.121066 0.457578
vt 0.149179 0.485637
vt 0.391650 0.007557
vt 0.419763 0.039123
vt 0.391650 0.225010
vt 0.760629 0.007557
vt 0.576140 0.039123
vt 0.760629 0.225010
vt 0.732516 0.039123
vt 0.732516 0.410898
vt 0.732516 0.225010
vt 0.576140 0.442464
vt 0.760629 0.442464
vt 0.419763 0.410898
vt 0.576140 0.410898
vt 0.391650 0.442464
vt 0.419763 0.225010
vt 0.968059 0.457578
vt 0.992443 0.007557
vt 0.441290 0.873277
vt 0.910105 0.785446
vt 0.876536 0.007557
vt 0.620338 0.457578
vt 0.818582 0.007557
vt 0.910105 0.457578
vt 0.108350 0.830438
vt 0.340163 0.830438
vt 0.794198 0.457578
vt 0.605557 0.884510
vt 0.224257 0.830438
vt 0.934489 0.007557
vt 0.837371 0.873277
vt 0.166303 0.830438
vt 0.504431 0.457578
vt 0.282210 0.830438
vt 0.562385 0.457578
vt 0.852152 0.457578
vt 0.050396 0.830438
vt 0.779418 0.873277
vt 0.398117 0.830438
vt 0.262687 0.787265
vt 0.332969 0.787265
vt 0.332969 0.801295
vt 0.332969 0.815324
vt 0.283772 0.815324
vt 0.332969 0.457578
vt 0.332969 0.471607
vt 0.332969 0.485637
vt 0.297828 0.485637
vt 0.234575 0.815324
vt 0.262687 0.636451
vt 0.383224 0.485637
vt 0.348083 0.485637
vt 0.348083 0.471607
vt 0.348083 0.457578
vt 0.446478 0.457578
vt 0.418365 0.485637
vt 0.446478 0.636451
vt 0.418365 0.636451
vt 0.397280 0.815324
vt 0.348083 0.815324
vt 0.348083 0.787265
vt 0.007557 0.801295
vt 0.007557 0.787265
vt 0.077839 0.787265
vt 0.007557 0.815324
vt 0.056754 0.815324
vt 0.105952 0.815324
vt 0.105952 0.636451
vt 0.077839 0.636451
vt 0.007557 0.457578
vt 0.042698 0.485637
vt 0.007557 0.485637
vt 0.219460 0.801295
vt 0.219460 0.815324
vt 0.170263 0.815324
vt 0.219460 0.457578
vt 0.219460 0.471607
vt 0.219460 0.485637
vt 0.184319 0.485637
vt 0.121066 0.815324
vt 0.149179 0.787265
vt 0.219460 0.787265
vt 0.149179 0.636451
s 0
g Win10_Task_View_Icon_WhiteShaded
usemtl WhiteShaded
f 19/1/1 20/2/1 18/3/1
f 43/4/2 44/4/2 42/4/2
f 35/5/2 36/5/2 34/5/2
f 3/6/2 4/6/2 2/6/2
f 11/7/2 12/7/2 10/7/2
f 67/8/1 66/9/1 68/10/1
f 91/11/2 90/11/2 92/11/2
f 83/12/2 82/12/2 84/12/2
f 51/13/2 50/13/2 52/13/2
f 59/14/2 58/14/2 60/14/2
f 1/15/3 50/16/3 2/17/3
f 40/18/4 89/19/4 41/20/4
f 4/21/3 53/22/3 5/23/3
f 5/23/3 54/24/3 6/25/3
f 7/26/5 56/27/5 8/28/5
f 8/29/3 57/30/3 9/31/3
f 9/31/3 58/32/3 10/33/3
f 10/34/1 59/35/1 11/36/1
f 41/20/4 90/37/4 42/38/4
f 17/39/3 66/40/3 18/41/3
f 19/42/5 66/43/5 67/42/5
f 20/44/4 69/45/4 21/46/4
f 21/46/4 70/47/4 22/48/4
f 22/49/5 71/50/5 23/51/5
f 24/52/3 65/53/3 17/39/3
f 25/54/3 74/55/3 26/56/3
f 30/57/1 79/58/1 31/59/1
f 31/59/1 80/60/1 32/61/1
f 3/62/1 52/63/1 4/64/1
f 33/65/3 82/66/3 34/67/3
f 34/68/1 83/69/1 35/70/1
f 23/51/5 72/71/5 24/72/5
f 42/73/1 91/74/1 43/75/1
f 48/76/3 81/77/3 33/65/3
f 44/78/4 93/79/4 45/80/4
f 45/80/4 94/81/4 46/82/4
f 6/83/5 55/84/5 7/26/5
f 26/85/5 75/86/5 27/87/5
f 16/88/3 49/89/3 1/15/3
f 46/90/5 95/91/5 47/92/5
f 27/87/5 76/93/5 28/94/5
f 32/95/3 73/96/3 25/54/3
f 47/92/5 96/97/5 48/98/5
f 2/99/1 51/100/1 3/62/1
f 28/101/4 77/102/4 29/103/4
f 29/103/4 78/104/4 30/105/4
f 11/36/1 60/106/1 12/107/1
f 12/108/4 61/109/4 13/110/4
f 13/110/4 62/111/4 14/112/4
f 14/113/5 63/114/5 15/115/5
f 15/115/5 64/116/5 16/117/5
f 35/70/1 84/118/1 36/119/1
f 36/120/4 85/121/4 37/122/4
f 43/75/1 92/123/1 44/124/1
f 37/122/4 86/125/4 38/126/4
f 38/127/5 87/128/5 39/129/5
f 20/130/1 67/130/1 68/130/1
f 39/129/5 88/131/5 40/132/5
f 33/133/2 34/134/2 40/135/2
f 96/136/6 93/137/6 90/138/6
f 22/139/2 32/140/2 25/141/2
f 23/142/2 32/140/2 22/139/2
f 23/142/2 30/143/2 31/144/2
f 17/145/2 30/143/2 24/146/2
f 17/145/2 28/147/2 29/148/2
f 18/149/2 27/150/2 28/147/2
f 20/151/2 26/152/2 27/150/2
f 21/153/2 25/141/2 26/152/2
f 23/142/2 31/144/2 32/140/2
f 23/142/2 24/146/2 30/143/2
f 17/145/2 29/148/2 30/143/2
f 17/145/2 18/149/2 28/147/2
f 18/149/2 20/151/2 27/150/2
f 20/151/2 21/153/2 26/152/2
f 21/153/2 22/139/2 25/141/2
f 6/154/2 9/155/2 12/156/2
f 61/157/6 60/158/6 54/159/6
f 68/160/6 74/161/6 69/162/6
f 66/163/6 75/164/6 68/160/6
f 65/165/6 76/166/6 66/163/6
f 65/165/6 78/167/6 77/168/6
f 71/169/6 78/167/6 72/170/6
f 71/169/6 80/171/6 79/172/6
f 70/173/6 73/174/6 80/171/6
f 69/162/6 73/174/6 70/173/6
f 68/160/6 75/164/6 74/161/6
f 66/163/6 76/166/6 75/164/6
f 65/165/6 77/168/6 76/166/6
f 65/165/6 72/170/6 78/167/6
f 71/169/6 79/172/6 78/167/6
f 71/169/6 70/173/6 80/171/6
f 69/162/6 74/161/6 73/174/6
f 1/15/3 49/89/3 50/16/3
f 40/18/4 88/175/4 89/19/4
f 4/21/3 52/176/3 53/22/3
f 5/23/3 53/22/3 54/24/3
f 7/26/5 55/84/5 56/27/5
f 8/29/3 56/177/3 57/30/3
f 9/31/3 57/30/3 58/32/3
f 10/34/1 58/178/1 59/35/1
f 41/20/4 89/19/4 90/37/4
f 17/39/3 65/53/3 66/40/3
f 19/42/1 18/43/1 66/43/1
f 20/44/4 68/179/4 69/45/4
f 21/46/4 69/45/4 70/47/4
f 22/49/5 70/180/5 71/50/5
f 24/52/3 72/181/3 65/53/3
f 25/54/3 73/96/3 74/55/3
f 30/57/1 78/182/1 79/58/1
f 31/59/1 79/58/1 80/60/1
f 3/62/1 51/100/1 52/63/1
f 33/65/3 81/77/3 82/66/3
f 34/68/1 82/183/1 83/69/1
f 23/51/5 71/50/5 72/71/5
f 42/73/1 90/184/1 91/74/1
f 48/76/3 96/185/3 81/77/3
f 44/78/4 92/186/4 93/79/4
f 45/80/4 93/79/4 94/81/4
f 6/83/5 54/187/5 55/84/5
f 26/85/5 74/188/5 75/86/5
f 16/88/3 64/189/3 49/89/3
f 46/90/5 94/190/5 95/91/5
f 27/87/5 75/86/5 76/93/5
f 32/95/3 80/191/3 73/96/3
f 47/92/5 95/91/5 96/97/5
f 2/99/1 50/192/1 51/100/1
f 28/101/4 76/193/4 77/102/4
f 29/103/4 77/102/4 78/104/4
f 11/36/1 59/35/1 60/106/1
f 12/108/4 60/194/4 61/109/4
f 13/110/4 61/109/4 62/111/4
f 14/113/5 62/195/5 63/114/5
f 15/115/5 63/114/5 64/116/5
f 35/70/1 83/69/1 84/118/1
f 36/120/4 84/196/4 85/121/4
f 43/75/1 91/74/1 92/123/1
f 37/122/4 85/121/4 86/125/4
f 38/127/5 86/197/5 87/128/5
f 20/130/5 19/130/5 67/130/5
f 39/129/5 87/128/5 88/131/5
f 42/198/2 44/199/2 45/200/2
f 45/200/2 46/201/2 47/202/2
f 34/134/2 36/203/2 37/204/2
f 37/204/2 38/205/2 39/206/2
f 37/204/2 39/206/2 40/135/2
f 45/200/2 47/202/2 48/207/2
f 42/198/2 45/200/2 48/207/2
f 42/198/2 48/207/2 33/133/2
f 41/208/2 42/198/2 33/133/2
f 34/134/2 37/204/2 40/135/2
f 40/135/2 41/208/2 33/133/2
f 87/209/6 86/210/6 85/211/6
f 85/211/6 84/212/6 82/213/6
f 87/209/6 85/211/6 82/213/6
f 88/214/6 87/209/6 82/213/6
f 88/214/6 82/213/6 81/215/6
f 89/216/6 88/214/6 81/215/6
f 95/217/6 94/218/6 93/137/6
f 93/137/6 92/219/6 90/138/6
f 90/138/6 89/216/6 81/215/6
f 96/136/6 95/217/6 93/137/6
f 90/138/6 81/215/6 96/136/6
f 1/220/2 2/221/2 4/222/2
f 16/223/2 1/220/2 4/222/2
f 15/224/2 16/223/2 4/222/2
f 14/225/2 15/224/2 4/222/2
f 13/226/2 14/225/2 4/222/2
f 13/226/2 4/222/2 5/227/2
f 9/155/2 10/228/2 12/156/2
f 7/229/2 8/230/2 9/155/2
f 13/226/2 5/227/2 6/154/2
f 6/154/2 7/229/2 9/155/2
f 12/156/2 13/226/2 6/154/2
f 49/231/6 64/232/6 63/233/6
f 60/158/6 58/234/6 57/235/6
f 57/235/6 56/236/6 55/237/6
f 57/235/6 55/237/6 54/159/6
f 49/231/6 63/233/6 62/238/6
f 52/239/6 50/240/6 49/231/6
f 52/239/6 49/231/6 62/238/6
f 52/239/6 62/238/6 61/157/6
f 53/241/6 52/239/6 61/157/6
f 60/158/6 57/235/6 54/159/6
f 54/159/6 53/241/6 61/157/6
