# Blender 4.1.1 Goo Engine
# www.blender.org
mtllib wallpaper.mtl
o Wallpaper
v -17.000000 19.000000 11.000000
v 18.000000 19.000000 11.000000
v -17.000000 19.000000 -9.000000
v 18.000000 19.000000 -9.000000
v -17.000000 0.000000 11.000000
v 18.000000 0.000000 11.000000
v -17.000000 0.000000 -9.000000
v 18.000000 0.000000 -9.000000
vn 1.0000 -0.0000 -0.0000
vn -1.0000 -0.0000 -0.0000
vn -0.0000 -1.0000 -0.0000
vn -0.0000 -0.0000 1.0000
vt 0.000419 0.000431
vt 0.000439 0.999525
vt 0.000439 0.000431
vt 0.999639 0.001707
vt 0.999503 0.997259
vt 0.999503 0.001707
vt 0.003752 0.999549
vt 0.999803 0.999549
vt 0.000121 0.999782
vt 0.999879 0.000218
vt 0.999879 0.999782
vt 0.000419 0.999525
vt 0.999639 0.997259
vt 0.000121 0.000218
s 0
g Wallpaper_Windows10Wallpaper
usemtl Windows10Wallpaper
f 7/1/1 1/2/1 5/3/1
f 6/4/2 4/5/2 8/6/2
f 3/7/3 2/8/3 1/7/3
f 3/9/4 8/10/4 4/11/4
f 7/1/1 3/12/1 1/2/1
f 6/4/2 2/13/2 4/5/2
f 3/7/3 4/8/3 2/8/3
f 3/9/4 7/14/4 8/10/4
