# Blender 4.1.1 Goo Engine
# www.blender.org
mtllib white.mtl
o Windows_10_Logo
v 0.733045 0.485184 0.520979
v 0.732982 0.254817 0.520979
v 0.469246 0.292032 0.520979
v 0.468878 0.485616 0.520979
v 0.445232 0.700913 0.520979
v 0.445317 0.509090 0.520979
v 0.246502 0.507959 0.520979
v 0.246321 0.673830 0.520979
v 0.445289 0.294999 0.520979
v 0.246475 0.322328 0.520979
v 0.246464 0.488277 0.520979
v 0.445135 0.486990 0.520979
v 0.469248 0.704459 0.520979
v 0.732984 0.742942 0.520979
v 0.732984 0.511530 0.520979
v 0.469248 0.509439 0.520979
v 0.733045 0.485184 0.479021
v 0.732982 0.254817 0.479021
v 0.469246 0.292032 0.479021
v 0.468878 0.485616 0.479021
v 0.445232 0.700913 0.479021
v 0.445317 0.509090 0.479021
v 0.246502 0.507959 0.479021
v 0.246321 0.673830 0.479021
v 0.445289 0.294999 0.479021
v 0.246475 0.322328 0.479021
v 0.246464 0.488277 0.479021
v 0.445135 0.486990 0.479021
v 0.732984 0.742942 0.479021
v 0.732984 0.511530 0.479021
v 0.469248 0.509439 0.479021
v 0.469248 0.704457 0.479021
vn -0.0000 -0.0000 1.0000
vn -0.0000 -0.0000 -1.0000
vn -0.1362 -0.9907 -0.0000
vn 1.0000 0.0008 -0.0000
vn 0.0065 1.0000 -0.0000
vn -1.0000 -0.0001 -0.0000
vn 0.0016 1.0000 -0.0000
vn -1.0000 -0.0019 -0.0000
vn -0.1397 -0.9902 -0.0000
vn 1.0000 -0.0003 -0.0000
vn -0.1349 0.9909 -0.0000
vn -1.0000 -0.0011 -0.0000
vn 0.0057 -1.0000 -0.0000
vn 1.0000 0.0004 -0.0000
vn -0.1444 0.9895 -0.0000
vn -1.0000 -0.0000 -0.0000
vn 0.0079 -1.0000 -0.0000
vn 1.0000 -0.0000 -0.0000
vt 0.733983 0.318701
vt 0.549301 0.538599
vt 0.549301 0.317492
vt 0.007309 0.611487
vt 0.222749 0.318255
vt 0.263687 0.611836
vt 0.191907 0.847991
vt 0.007309 0.627573
vt 0.220788 0.626454
vt 0.224341 0.301153
vt 0.007309 0.009351
vt 0.264840 0.007309
vt 0.536990 0.009351
vt 0.319961 0.301153
vt 0.279459 0.007309
vt 0.762780 0.555892
vt 0.578183 0.776310
vt 0.549301 0.554773
vt 0.580589 0.008518
vt 0.765271 0.228416
vt 0.551608 0.229971
vt 0.534683 0.611487
vt 0.319243 0.318255
vt 0.534683 0.317492
vt 0.508943 0.849236
vt 0.462248 0.626454
vt 0.508943 0.626454
vt 0.902517 0.007309
vt 0.949213 0.220978
vt 0.902517 0.220977
vt 0.885592 0.848350
vt 0.838896 0.627857
vt 0.885592 0.627857
vt 0.595997 0.791777
vt 0.549301 0.976463
vt 0.549301 0.791777
vt 0.826585 0.300591
vt 0.779889 0.007309
vt 0.826585 0.007309
vt 0.946906 0.764590
vt 0.900211 0.549149
vt 0.946906 0.549149
vt 0.885592 0.613094
vt 0.838896 0.317492
vt 0.885592 0.317492
vt 0.339619 0.626454
vt 0.386315 0.882832
vt 0.339619 0.882832
vt 0.447629 0.626454
vt 0.400933 0.849360
vt 0.400933 0.626454
vt 0.657311 0.976377
vt 0.610615 0.791777
vt 0.657311 0.791777
vt 0.824278 0.848558
vt 0.777582 0.627857
vt 0.824278 0.627857
vt 0.900211 0.779209
vt 0.946906 0.992691
vt 0.900210 0.992691
vt 0.824278 0.317492
vt 0.777582 0.613238
vt 0.777582 0.317492
vt 0.946906 0.317494
vt 0.900211 0.534530
vt 0.900211 0.317492
vt 0.887899 0.300035
vt 0.841203 0.007309
vt 0.887899 0.007309
vt 0.278305 0.626454
vt 0.325001 0.883993
vt 0.278305 0.883993
vt 0.762964 0.540154
vt 0.007309 0.317492
vt 0.007309 0.848840
vt 0.007309 0.302874
vt 0.536990 0.302874
vt 0.762780 0.777159
vt 0.765271 0.007309
vt 0.278305 0.611836
vt 0.462247 0.849236
vt 0.949213 0.007309
vt 0.838896 0.848350
vt 0.595997 0.976463
vt 0.779889 0.300591
vt 0.900211 0.764590
vt 0.838896 0.613094
vt 0.386315 0.626454
vt 0.447629 0.849360
vt 0.610615 0.976377
vt 0.777582 0.848558
vt 0.946906 0.779209
vt 0.824278 0.613238
vt 0.946906 0.534530
vt 0.841203 0.300035
vt 0.325001 0.626454
s 0
g Windows_10_Logo_WhiteShaded
usemtl WhiteShaded
f 10/1/1 12/2/1 11/3/1
f 1/4/1 3/5/1 2/6/1
f 8/7/1 6/8/1 5/9/1
f 13/10/1 15/11/1 14/12/1
f 30/13/2 32/14/2 29/15/2
f 22/16/2 24/17/2 21/18/2
f 26/19/2 28/20/2 25/21/2
f 17/22/2 19/23/2 20/24/2
f 25/25/3 10/26/3 26/27/3
f 28/28/4 9/29/4 25/30/4
f 27/31/5 12/32/5 28/33/5
f 27/34/6 10/35/6 11/36/6
f 20/37/7 1/38/7 17/39/7
f 19/40/8 4/41/8 20/42/8
f 18/43/9 3/44/9 19/45/9
f 17/46/10 2/47/10 18/48/10
f 21/49/11 8/50/11 5/51/11
f 23/52/12 8/53/12 24/54/12
f 22/55/13 7/56/13 23/57/13
f 21/58/14 6/59/14 22/60/14
f 29/61/15 13/62/15 14/63/15
f 32/64/16 16/65/16 13/66/16
f 30/67/17 16/68/17 31/69/17
f 29/70/18 15/71/18 30/72/18
f 10/1/1 9/73/1 12/2/1
f 1/4/1 4/74/1 3/5/1
f 8/7/1 7/75/1 6/8/1
f 13/10/1 16/76/1 15/11/1
f 30/13/2 31/77/2 32/14/2
f 22/16/2 23/78/2 24/17/2
f 26/19/2 27/79/2 28/20/2
f 17/22/2 18/80/2 19/23/2
f 25/25/3 9/81/3 10/26/3
f 28/28/4 12/82/4 9/29/4
f 27/31/5 11/83/5 12/32/5
f 27/34/6 26/84/6 10/35/6
f 20/37/7 4/85/7 1/38/7
f 19/40/8 3/86/8 4/41/8
f 18/43/9 2/87/9 3/44/9
f 17/46/10 1/88/10 2/47/10
f 21/49/11 24/89/11 8/50/11
f 23/52/12 7/90/12 8/53/12
f 22/55/13 6/91/13 7/56/13
f 21/58/14 5/92/14 6/59/14
f 29/61/15 32/93/15 13/62/15
f 32/64/16 31/94/16 16/65/16
f 30/67/17 15/95/17 16/68/17
f 29/70/18 14/96/18 15/71/18
